<?xml version="1.0" encoding="UTF-8"?>
<svg id="Capa_2" data-name="Capa 2" xmlns="http://www.w3.org/2000/svg" viewBox="0 0 376.58 217.36">
  <defs>
    <style>
      .cls-1 {
        fill: #fff;
      }

      .cls-2 {
        fill: #3b538b;
      }

      .cls-3 {
        stroke: #3b538b;
      }

      .cls-3, .cls-4 {
        fill: none;
        stroke-miterlimit: 10;
      }

      .cls-4 {
        stroke: #4e7ab0;
      }

      .cls-5 {
        fill: #211915;
        font-family: MontserratRoman-ExtraLight, Montserrat;
        font-size: 12px;
        font-variation-settings: 'wght' 200;
      }
    </style>
  </defs>
  <polygon class="cls-2" points="159.1 32.58 155.32 33.03 147.57 35.76 137.82 40.77 128.56 46.98 123.74 51.55 121.71 53.99 119.82 56.68 118.7 59.02 120.69 60.86 125.14 63.8 132.02 65.85 138.15 66.59 144.05 66.92 148.28 66.56 154.12 65.77 156.99 64.16 158.73 62.69 159.39 60.34 161.08 54.81 162 50.55 163.18 42.88 163.04 36.68 162.57 33.92 161.43 33.03 159.1 32.58"/>
  <polygon class="cls-3" points="200.92 138.94 198.7 139.37 196.54 139.62 196.01 140.22 197.58 141.43 201.08 143.3 202.94 144.89 203.84 146.47 204.72 148.02 205.22 148.44 209.25 147.55 220.56 144.23 228.45 141.55 237.62 137.8 242.66 135.46 248.32 132.14 253.82 129.11 259.44 125.13 263.96 121.32 262.36 121.55 257.38 123.75 247.52 128.06 236.48 131.74 227.32 134.39 219.67 135.96 206.33 138.48 200.92 138.94"/>
  <polygon class="cls-1" points="197.75 156.16 193.37 157.8 185.87 159.48 179.55 160.57 169.43 161.37 165.44 161.47 161.55 161.35 156.77 161.12 151.18 160.63 144.88 159.57 141.96 158.82 134.24 156.77 128.83 154.76 124.35 152.49 122.17 150.44 120 146.32 119.6 143.17 120 142.75 124.17 145.82 131.4 149.38 139.93 152.39 145.44 154.19 151.9 155.81 156.43 156.63 159.99 157.46 162.92 157.71 166.33 157.94 169.88 158.27 172.67 158.25 178.3 158.19 179.63 158.13 183.4 157.96 185.39 157.64 190.21 156.87 193.95 156.22 197.44 155.58 197.75 156.16"/>
  <polygon class="cls-3" points="65.9 114.35 65.06 115.28 64.12 116 62.38 116.74 61.11 117.43 59.4 117.82 55.88 118.29 53.21 118.17 51.03 117.81 45.71 116.03 37.86 112.06 32.87 109.1 26.97 104.45 26.43 104.8 26.83 106.25 27.55 107.7 29.28 110.64 30.73 112.58 34.98 117.11 40.6 121.64 52.8 128.9 69.94 136.42 92.83 143.92 100.68 145.9 108.49 147.69 115.42 148.81 118.97 149.58 120.95 149.87 119.67 147.64 119.26 145.59 118.97 141.45 119.26 138.49 119.53 136.27 117.06 135.91 115.6 135.44 103.52 132.02 87.64 126.05 72.8 118.66 65.9 114.35"/>
  <path class="cls-3" d="M359.7,111.49c-.31,.77-.8,1.37-1.82,2.23-1.95,1.65-3.67,2.43-3.67,2.43-6.24,2.87-12.58,3.92-12.58,3.92-1.63,.26-6.51,1.01-12.91,.69-2.34-.11-6.13-.42-10.66-1.42-1.2-.26-4.33-.99-8.22-2.38-3.26-1.17-4.03-1.72-10.48-4.21-1.95-.76-3.51-1.34-5.69-1.79-2.92-.61-4.98-.59-5.53-.58-.41,.01-2.2,.07-4.59,.6-.82,.18-2.8,.67-6.03,2.12-1.18,.53-4.29,1.99-8.55,4.87-1.18,.8-1.62,1.14-2.92,2.15h-.01c-.72,.57-1.71,1.31-3.23,2.46-3.78,2.84-5.67,4.26-7.61,5.58-4.12,2.81-7.45,4.55-10.6,6.19-1,.52-5.58,2.91-11.97,5.53-1.14,.48-5.07,2.07-10.36,3.84-1.8,.6-6.12,2-11.81,3.48-2.25,.58-4.18,1.03-5.66,1.37-.36-.89-.97-2.15-2.02-3.42-1.36-1.66-2.84-2.62-5.29-3.96-3.85-2.13-6.91-3.49-7.21-3.62-4.51-1.98-5.46-2.2-11.12-4.58-1.95-.82-3.81-1.62-7.5-3.23-3.73-1.61-5.14-2.25-7.84-3.36-2.25-.92-3.7-1.52-5.78-2.27-2.34-.85-4.39-1.59-7.12-2.27-2.12-.53-4.44-1.12-7.57-1.33-2.6-.17-5.15-.33-8.39,.54-3.44,.93-5.92,2.58-7.3,3.66-.59,.46-2.33,1.86-4.03,4.17-.74,1-2.49,3.54-3.54,7.25-.82,2.89-.83,5.16-.83,5.7v.34c.02,.88,.11,1.61,.16,2.11,.17,1.48,.28,2.4,.74,3.48,.35,.85,1.29,2.15,1.71,2.65-.29-.05-.75-.11-1.31-.22-28.52-4.77-48.76-12.45-58.93-16.73,0,0-9.83-4.12-20.37-10.94,0,0-7.06-4.56-11.97-11.43-1.03-1.45-1.85-3.27-2.11-3.85-.33-.75-.71-1.71-.85-2.97-.02-.2-.02-.36-.03-.48-.2-.16-.46-.37-.78-.65-1.26-1.09-2.07-2.05-2.32-2.34-.58-.68-1.05-1.27-1.48-2-.11-.2-.23-.42-.34-.65-.52-1.09-1.17-2.43-.85-4.09,.26-1.37,1.01-2.27,1.39-2.71,.93-1.11,1.99-1.64,2.63-1.94,4.1-1.91,8.97-2.68,9.4-2.74,.29-.05,2.7-.31,7.51-.84,3.19-.35,3.28-.36,3.73-.43,2.11-.32,4.9-.75,7.94-2.04,2.04-.87,3.34-1.78,5.67-3.4,2.41-1.68,3.09-2.42,5.97-4.69,1.45-1.14,4.05-3.19,6.73-4.92,3.83-2.46,7.04-3.77,9.75-4.86,6.75-2.72,12.36-3.76,16.09-4.44,3.75-.68,6.93-1.01,8.43-1.17,.72-.08,3.77-.39,7.84-.57,1.82-.08,3.39-.11,4.59-.14,.26-.66,.65-1.56,1.21-2.58,.24-.42,1.04-1.83,2.85-3.95,.35-.41,1.66-1.93,3.9-3.94,2.08-1.88,3.78-3.14,5.03-4.04,.61-.45,3.23-2.34,6.92-4.52,2.59-1.51,4.75-2.59,6.06-3.22,2.57-1.25,4.44-1.98,4.93-2.17,1.39-.54,2.47-.91,2.88-1.04,4.65-1.56,6.77-1.64,8.27-1.42,.45,.08,1.26,.22,1.91,.84,.7,.67,.88,1.55,.95,1.98,.78,4.67,.16,9.58,.16,9.58-.52,4.09-1.21,7.25-1.79,9.58-.36,1.47-.71,2.7-.96,3.54-.59,1.6-1.18,3.21-1.76,4.8,2.3,.39,5.29,.91,8.83,1.6,.19,.03,.4,.07,.59,.11l.11,.02c1.29,.25,2.63,.51,4.04,.8,6.97,1.43,12.05,2.66,20.99,4.86,7.63,1.87,13.43,3.37,18.55,4.7,7.32,1.89,13.67,3.6,16.93,4.46,5.16,1.39,9.5,2.57,16.15,4.27,4.53,1.17,6.64,1.68,8.56,2.13,7.23,1.69,10.92,2.29,13.91,2.66,4.31,.55,6.8,.59,9.48,.17,3.28-.52,5.05-1.43,5.58-1.72,2.72-1.46,4.34-3.47,5.02-4.31,1.08-1.37,1.85-2.76,2.57-4.08,.61-1.11,.78-1.55,1.35-2.68,1.22-2.42,2.32-4.18,3.22-5.58,1.71-2.73,3.23-4.77,3.99-5.76,3.24-4.27,6.06-7.06,6.78-7.76,.11-.12,2.24-2.17,5.38-4.47,.88-.66,2.84-2.05,5.32-2.39,.78-.1,1.52-.09,2.23,.28,.95,.49,1.36,1.33,1.59,1.8,.39,.8,.44,1.51,.51,2.51,.07,1.08-.01,1.89-.02,2.05,0,0-.25,2.68-.34,7.55-.01,.57-.03,2.88,.29,5.74,.17,1.54,.5,4.25,1.54,7.49,.48,1.49,1.8,5.24,4.7,9.38,2.72,3.86,5.49,6.17,7.66,7.95,3.65,3,6.89,4.76,9.25,6.05,1.59,.86,3.85,2.1,6.77,3.26,.85,.34,2.63,1.02,5.47,2.19,.74,.31,1.35,.55,1.74,.72,.22,.07,2,.71,2.47,2.41,.29,1.05-.08,1.98-.25,2.39Z"/>
  <path class="cls-2" d="M204.74,152.23c-.23,.49-.53,.78-.89,1.13-.29,.28-.63,.55-1.37,1.01-.07,.05-.14,.08-.2,.12t-.02,.01c-1.05,.29-2.83,.68-4.8,1.08l-3.49,.63-3.75,.66-4.81,.77c-1.66,.19-3.61,.37-5.76,.49l-1.33,.06-5.63,.06c-2.22-.03-4.33-.15-6.34-.31-8.37-.66-15.15-2.28-21.21-4.29,0,0-8.22-2.23-15.95-5.76-2.17-1-3.27-1.49-4.65-2.4-1.03-.68-2.02-1.44-3.82-2.48-.63-.36-1.06-.6-1.44-.79v-.34c0-.53,.01-2.81,.83-5.7,1.05-3.7,2.81-6.25,3.54-7.25,1.7-2.31,3.44-3.7,4.03-4.17,1.38-1.08,3.86-2.73,7.3-3.66,3.24-.87,5.79-.71,8.39-.54,3.13,.2,5.45,.79,7.57,1.33,2.73,.68,4.78,1.42,7.12,2.27,2.07,.75,3.52,1.35,5.78,2.27,2.7,1.11,4.11,1.76,7.84,3.36,3.69,1.61,5.55,2.41,7.5,3.23,5.66,2.38,6.61,2.59,11.12,4.58,.31,.14,3.36,1.49,7.21,3.62,2.45,1.35,3.93,2.3,5.29,3.96,1.04,1.27,1.65,2.53,2.02,3.42,.17,.72,.2,1.33,.2,1.76,.01,.76,.01,1.29-.27,1.89Z"/>
  <path class="cls-3" d="M200.07,155.03s-1.12,1.11-2.1,1.51c-1.95,.77-7.62,2.77-17.96,4.27-2.48,.36-9.72,1.31-19.17,.95-8.82-.34-15.29-1.66-17.11-2.05-2.64-.57-4.61-1.14-8.55-2.29,0,0-5.57-1.62-10.18-4.19-.77-.43-1.64-1.02-2.45-1.93-.32-.35-.55-.67-.68-.86-.42-.5-1.36-1.8-1.71-2.65-.45-1.08-.57-1.99-.74-3.48-.05-.5-.14-1.22-.16-2.11,.37,.19,.8,.43,1.44,.79,1.8,1.04,2.79,1.8,3.82,2.48,1.38,.91,2.48,1.4,4.65,2.4,7.72,3.53,15.95,5.76,15.95,5.76,6.06,2.02,12.84,3.64,21.21,4.29,2.02,.16,4.12,.27,6.34,.31l5.63-.06,1.33-.06c2.15-.11,4.1-.29,5.76-.49l4.81-.77,3.75-.66,3.49-.63"/>
  <path class="cls-3" d="M119.67,136.08c-.35-.08-.84-.19-1.42-.33-2.69-.63-4.85-1.2-6.15-1.55-.88-.24-3.63-.99-6.77-1.97-7.99-2.49-14.43-5.18-15.44-5.6-1.7-.71-6.51-2.77-12.27-5.78-4.42-2.31-7.3-4.09-9.86-5.86-.71-.49-1.3-.91-1.7-1.21-.54,.55-1.35,1.29-2.45,2-2.6,1.67-5.08,2.02-6.23,2.17-2.39,.31-4.24,.01-5.43-.19-1.79-.3-3.08-.75-4.32-1.2-.5-.18-1.96-.71-5.52-2.52-1.99-1.01-4.04-2.05-6.72-3.67-2.38-1.44-4.17-2.68-5.2-3.39-.99-.69-3.29-2.69-3.9-3.14"/>
  <path class="cls-3" d="M118.18,59.25c1.29,1.2,3.01,2.57,5.2,3.81,3.45,1.95,6.39,2.63,8.95,3.19,1.91,.42,7.86,1.61,15.68,.68,2.47-.29,4.99-.04,7.62-1.52,1.43-.8,2.43-1.76,3.06-2.46"/>
  <path class="cls-3" d="M195.42,139.62c2.25-.24,4.98-.57,8.07-1,4.97-.7,8.8-1.4,10.44-1.71,7.06-1.31,12.41-2.65,14.08-3.08,3.64-.93,9.14-2.34,16.14-4.8,6.86-2.42,12.23-4.81,17.45-7.15,2.57-1.16,2.93-1.02,4.45-1.73"/>
  <path class="cls-3" d="M185.39,157.65c2.51-.29,4.44-.62,5.58-.84,1.86-.35,4.28-.79,6.47-1.22l3.14-.67c.41-.08,.99-.21,1.68-.42,.98-.3,1.48-.45,1.89-.82,.64-.56,.82-1.32,.9-1.63,.08-.33,.08-.5,.13-1.63,.03-.71,.06-1.08,.07-1.51,0-.34,0-.63,0-.83"/>
  <path class="cls-3" d="M172.67,158.25c.24,0,.48,.01,.71,.01,2.23,.03,4.33-.02,6.24-.12"/>
  <path class="cls-4" d="M119.26,142.21c-.09-.05-.17-.09-.25-.14-.01-.01-.03-.01-.05-.02"/>
  <polygon class="cls-2" points="118.09 59.64 116.2 59.64 113.14 59.76 109.25 59.96 103.85 60.5 97.1 61.45 92.15 62.52 86.62 63.87 80.16 66.27 75.23 68.68 69.95 71.6 65.59 74.96 59.51 79.88 54 83.33 50.09 84.9 43.49 86.03 35.92 86.85 32.35 87.34 27.5 88.69 23.79 90.14 21.65 91.93 20.63 95.1 21.7 98.84 24.71 101.91 27.61 104.63 32.89 108.61 37.59 111.3 43.85 114.7 51.95 117.57 58.46 117.49 62.02 116.46 64.77 114.59 66.08 113.67 66.86 114.21 70.9 116.8 75.33 119.21 82.65 122.94 89.42 126.19 95.93 128.59 103.68 131.37 116.25 135.13 119.89 135.82 121.3 132.28 122.79 129.64 125.47 126.27 128.75 123.62 132.52 121.61 134.7 120.83 139.05 120.14 143.62 120.26 152.43 121.93 161.55 125.09 177.86 132.08 195.04 139.37 195.95 139.37 200.75 138.65 207.27 137.81 213.89 136.61 222.64 134.76 234.91 131.62 244.61 128.59 255.47 124.16 262.94 121.05 267.03 119.09 271.66 115.93 276.17 113.44 282.56 110.92 287.04 110.11 292.72 110.52 299.16 112.24 306.88 115.4 316.22 118.77 324.02 120.1 335.14 120.48 340.93 119.86 348.63 118.01 354.17 115.75 356.21 114.55 358.65 112.75 359.7 110.51 359.7 108.87 359.14 108.12 357.97 107.09 355.57 106.1 351.38 104.48 346.94 102.73 340.67 99.31 333.87 94.65 326.67 87.47 323.93 82.64 321.52 76.78 319.91 69.05 319.86 59.64 320.1 54.73 319.81 52.34 318.72 50.57 317.4 49.91 316.49 49.91 315.05 50.3 312.54 51.16 310.25 52.82 307.14 55.4 303.69 58.75 300.79 62.18 297.57 66.32 294.79 70.5 292.5 74.38 290.44 78.21 287.8 82.56 285 85.33 284.01 86.27 282.77 87 281.26 87.45 280.15 87.94 278.48 88.21 276.77 88.89 272.36 89.08 262.69 87.82 253.4 85.88 247.58 84.48 234.53 80.96 222.83 77.93 203.15 72.93 167.87 64.34 159.45 63.1 158.69 63.17 156.4 65.21 152.46 66.94 146.29 67.29 131.19 66 124.8 64.17 121.98 62.55 118.09 59.64"/>
  <text class="cls-5" transform="translate(141.99 199.2)"><tspan x="0" y="0">Mamíferos</tspan></text>
  <ellipse class="cls-2" cx="142.67" cy="65.76" rx="11.2" ry="3.37"/>
</svg>