<?xml version="1.0" encoding="UTF-8"?>
<svg id="Capa_2" data-name="Capa 2" xmlns="http://www.w3.org/2000/svg" viewBox="0 0 841.89 217.36">
  <defs>
    <style>
      .cls-1 {
        fill: none;
      }

      .cls-2 {
        fill: #fff;
      }

      .cls-3 {
        fill: #80a7b7;
      }

      .cls-4 {
        fill: #9f9f9f;
      }

      .cls-5 {
        fill: #24215b;
      }

      .cls-6 {
        fill: #283b54;
      }

      .cls-7 {
        fill: #3b538b;
      }

      .cls-8 {
        fill: #3b528b;
      }

      .cls-9 {
        fill: #3c538e;
      }

      .cls-10 {
        fill: #211915;
        font-family: MontserratRoman-ExtraLight, Montserrat;
        font-size: 12px;
        font-variation-settings: 'wght' 200;
      }
    </style>
  </defs>
  <path class="cls-9" d="M514.75,46.25c.89-1.96,2.38-3.12,2.38-3.12s1.44-1.12,3.52-1.51c3.11-.59,30.03-.67,66.65-.21,.07,11.72,.14,23.45,.21,35.17-17.34,.07-34.68,.14-52.01,.21-.24-.02-.57-.03-.95,.06-1.46,.34-1.93,1.7-2.42,1.96-2.81,1.51-20.18-26.37-17.37-32.56Z"/>
  <path class="cls-9" d="M489.32,141.97c-.18-7.15-.31-14.38-.38-21.67-.17-16.33-.08-32.32,.26-47.96,.02-.13,.05-.26,.07-.39,.15-.82,.25-1.62,.33-2.39l2.11,2.59h0s.08,.06,.12,.09c8.53,6.22,19.28,10.82,32.91,12.72-.05,19.75-.11,39.5-.16,59.25"/>
  <path class="cls-6" d="M250.97,75.83c-.12-.17,.05-.58,.39-1.4,.35-.85,.7-1.44,.72-1.48,.52-.89,.6-1.24,1.4-3.03,.82-1.81,1.74-3.67,2.39-4.9,.89-1.69,1.86-3.53,3.4-5.77,1.56-2.25,2.69-3.44,3.43-4.15,.81-.77,1.39-1.19,2.56-2.02,.62-.44,1.15-.78,1.91-.98,.34-.09,.68-.11,1.35-.16,.16-.01,.39-.03,.67,.04,.22,.06,.38,.14,.39,.15,.63,.36-2.95,15.72-13.31,21.75-1.68,.98-4.92,2.51-5.31,1.96Z"/>
  <path class="cls-6" d="M220.23,137.98c-.06-.18-.11-.44-.11-.51v-.64l.93-2.71,6.1-.88,38.69,21.18,7.92-2.71,17.16-24.01,13.18-26.13,3.61-1.9,.17-.11,.14-.12s.02-.01,.02-.02c-.02,.03-.04,.07-.07,.12-.04,.07-.07,.12-.1,.16-.05,.08-.1,.17-.15,.25-.24,.4-.57,1-.57,1-.18,.33-.4,.72-.68,1.24-.18,.34-.52,.99-.93,1.82-.07,.15-.34,.7-.68,1.43-.05,.1-.2,.43-.39,.86-.06,.14-.25,.56-.49,1.13-.07,.16-.36,.84-.74,1.78-.24,.6-.42,1.05-.55,1.38-.3,.77-.52,1.35-.7,1.84-.25,.67-.43,1.15-.65,1.77-.29,.79-.35,.96-.88,2.42-.4,1.09-.6,1.64-.78,2.14,0,0-.43,1.16-.83,2.21-.42,1.11-2.22,5.64-4.16,9.67-4.42,9.17-10.34,17.47-10.34,17.47-4.12,5.76-8.38,10.65-12.45,14.74-2.2-.63-5.39-1.64-9.09-3.21-3.47-1.48-5.92-2.83-12.14-6.45-15.06-8.78-14.05-8.64-15.71-9.11-4.56-1.29-8.65-3.98-13.22-5.25-.22-.06-1.26-.2-1.5-.87Z"/>
  <path class="cls-6" d="M290.18,97.6c.44-.17,.49-.48,1.95-2.69,.68-1.03,1.25-1.83,2.39-3.44,.9-1.27,1.67-2.35,2.76-3.72,.6-.75,1.18-1.48,2.03-2.41,.7-.77,1.53-1.66,2.73-2.68,1.43-1.21,2.58-1.93,2.84-2.09,.6-.37,1.15-.71,1.94-1.04,1.65-.69,1.92-.35,2.66-.83,1.82-1.2,1.56-4.21,1.4-4.97-.06-.29-.18-.88-.67-1.17-.14-.08-.25-.11-.37-.14-.64-.15-1.03-.24-1.73-.25-1.19-.01-2.21,.26-2.41,.31-1.92,.5-3.35,1.31-3.76,1.55-1.33,.78-3.07,2-5.43,4.38-1.54,1.55-2.98,3.33-5.85,6.89-1.32,1.64-1.7,2.15-2.68,3.27-1.64,1.89-3.1,3.34-4.09,4.28,3.95,5,5.6,5.01,6.27,4.75Z"/>
  <path class="cls-7" d="M259.58,80.98c-.21-.38,4.97-5.47,7.71-8.7,1.92-2.27,3.15-4.23,3.93-5.48,1.07-1.72,2.5-4.06,3.71-7.37,.86-2.35,1.33-4.41,1.6-5.92-.1,.06-.26,.13-.46,.17-.29,.06-.53,.02-.68,0-1.12-.18-1.24-.22-1.24-.22-2.27-.64-3.39-1-3.39-1-.35-.11-.83-.27-1.39-.46-.27,.67-.69,1.63-1.31,2.74-1.05,1.9-2.11,3.21-2.95,4.23-2.01,2.43-3.29,3.74-6.29,7.01-3.1,3.38-3.89,4.32-4.24,4.74-.53,.64-1.94,2.37-3.66,4.76-1.3,1.81-2.38,3.45-3.51,5.26-2.1,3.35-3.8,6.36-6.25,10.84-3.2,5.88-5.53,10.38-5.95,11.18-3.3,6.38-5.04,9.73-6.87,13.64-2.14,4.56-4.94,11.01-7.76,19.12,.55-.26,1.51-.65,2.74-.76,1.68-.15,2.99,.29,3.71,.55,2.38,.85,8.12,3.13,15.66,6.42,3.4,2.02,6.86,4.14,10.37,6.38,4.41,2.81,8.63,5.63,12.66,8.42,1.66-.38,4.08-1.13,6.6-2.76,1.38-.89,2.72-1.99,5.84-5.53,2.76-3.13,4.69-5.33,6.94-8.65,1.48-2.19,2.01-3.26,6.54-12.18,2.72-5.36,5.97-10.48,8.22-16.06,.5-1.24,1.45-3.68,3.44-6.49,1.6-2.25,3.23-3.85,4.35-4.85,.72-1.16,1.77-2.85,3.02-4.9,4.63-7.58,5.55-9.42,6.33-11.42,.58-1.49,1.36-3.77,1.91-6.71-.93-.74-2.06-1.54-3.4-2.29-1.88-1.06-3.64-1.73-5.09-2.17-.35,1.15-.82,2.59-1.44,4.23-.57,1.5-1.63,4.12-3.27,7.25-2.3,4.4-4.6,7.57-5.71,9.05-1.56,2.07-3.58,4.49-6.14,7.03-1.05-1.19-2.62-2.82-4.73-4.51-.69-.55-3.35-2.62-9.46-5.52-3.85-1.83-5.78-2.42-12.58-5.31,0,0-4.53-1.92-5.91-2.86-.24-.16-.62-.52-1.01-.57-.07,0-.29-.02-.46-.19,0,0-.07-.07-.11-.15Z"/>
  <line class="cls-5" x1="229.76" y1="137.7" x2="253.62" y2="149.83"/>
  <path class="cls-3" d="M177.73,90.2c-1.07,.43-2.92,1.02-5.27,.97-.74-.01-2.8-.11-5.18-1.15-2.39-1.04-2.52-1.9-5.6-4.1-1.97-1.4-4-2.85-6.95-3.72-1.53-.45-3.87-.92-6.66-.66-2.2,.21-3.83,.79-6.04,1.68-4.86,1.97-8.48,3.84-9.68,4.46-7.87,4.05-11.91,6.1-16.99,7.61-1.46,.43-3.65,1.11-6.5,1.51-2.44,.34-4.24,.34-5.5,.35-2.75,.03-6.77,.16-12.06,.62-4,1.56-7.16,2.2-9.36,2.49-.98,.13-2.37,.27-3.97,1.12-1.05,.55-3.17,1.67-3.88,4.12-.1,.33-.86,3.13,1.05,5.38,1.68,1.98,4.13,1.99,4.47,1.98,.23,.01,.9,.08,1.46,.59,.92,.84,.7,2.11,.68,2.2-.11,.55-.38,.93-.54,1.12-.46,.28-1.09,.72-1.71,1.41-.29,.33-.97,1.09-1.36,2.19-.66,1.83-.15,3.49,.21,4.71,.3,.98,.65,2.1,1.66,3.14,.47,.48,1.09,1.13,2.09,1.41,.8,.23,1.24,.05,2.32,.42,.57,.2,.91,.31,1.24,.63,.63,.61,.89,1.63,.62,2.44-.12,.36-.32,.57-.77,1.03-1.86,1.9-2.07,1.97-2.4,2.45-.8,1.17-.76,2.5-.75,2.94,.07,2.22,1.52,3.64,1.81,3.92,2.2,2.08,5.18,1.51,5.48,1.45,.86-.14,2.17-.37,3.74-.75,1.62-.39,2.25-.64,5-1.46,3.87-1.15,3.73-1,4.89-1.44,1.6-.61,1.93-.93,4.94-2.55,2.82-1.52,5-2.56,7.21-3.61,2.88-1.38,4.32-2.07,5.4-2.46,3.05-1.1,5.47-1.35,8.67-1.65,9.18-.86,13.78-1.29,16.41-1.38,2.95-.1,5.88-.13,9.89-1.01,3.3-.72,4.79-1.45,5.48-1.82,.62-.33,3.57-1.97,6.02-5.41,1.53-2.15,2.42-4.38,3.01-5.89,.61-1.54,1.07-3.04,2.32-5.06,.9-1.46,1.5-2.06,1.93-2.42,.84-.71,1.67-1.08,3.35-1.8,1.16-.5,3-1.2,3.39-1.34,.11-.04,.2-.07,.26-.1-.86-3.15-1.71-6.3-2.57-9.46l-1.32-5.12Z"/>
  <rect class="cls-6" x="176.93" y="89.35" width="2.14" height="17.72" rx=".85" ry=".85" transform="translate(-19.52 50.1) rotate(-15.2)"/>
  <rect class="cls-6" x="179.48" y="86.45" width="11.58" height="18.93" rx="4.51" ry="4.51" transform="translate(-17.41 46.48) rotate(-13.67)"/>
  <path class="cls-8" d="M431.63,132.86c-.24-18.13-.31-30.75,0-33.85,.05-.44,.24-2.08-.5-3.71-.12-.26-.85-1.82-2.43-2.63-1.13-.58-2.15-.54-2.63-.49h-69.5c-.34,.09-.8,.23-1.31,.46-.72,.32-1.11,.49-1.51,.89-.5,.52-.72,1.1-.98,1.78-.24,.62-.36,1.17-.43,1.56,0,12.93,0,25.87,0,38.8,.07,.52,.3,1.78,1.23,2.92,1.23,1.51,2.81,1.74,3.21,1.79,23.49,0,46.99-.01,70.49-.02,.37-.14,3.54-1.43,4.31-4.77,.25-1.08,.17-2.05,.04-2.75Zm-25.29-2.47c-4.3,5.46-9.74,6.68-11.22,6.96-4.78,.89-8.57-.49-10.13-1.17-1.39-.61-5.47-2.59-8.6-7.47-.83-1.3-3.03-4.8-3.44-9.95-.3-3.63,.43-6.36,.95-8.31,.58-2.18,1.66-6.06,4.79-9.51,.31-.35,1.35-1.46,2.91-2.57,5.16-3.66,10.55-3.41,11.42-3.36,1.56,.1,6.6,.62,11.24,4.95,5.69,5.32,6.57,12.49,6.72,13.85,.12,1.17,.88,9.57-4.64,16.58Zm21.19-29.33c-.02,.26-.07,.67-.32,1.01-.23,.32-.53,.46-.58,.48-.16,.07-.29,.1-.39,.11-3.12,.1-5.43,.09-6.21,.01-.23-.02-.62-.08-.95-.4-.33-.32-.44-.76-.45-.81-.05-.19-.05-.35-.05-.41-.01-1.22-.14-1.81,0-3.37,.06-.64,.11-.89,.28-1.15,.3-.45,.77-.59,.8-.61,.15-.04,.27-.05,.37-.05,2.11,0,4.21,.02,6.32,.02,.11,.03,.54,.14,.87,.59,.29,.41,.31,.86,.31,1,.01,.24,.11,2.26,0,3.57Z"/>
  <path class="cls-1" d="M353.94,92.15s-.08,.02-.13,.03h-.11"/>
  <path class="cls-4" d="M413.58,113.77c-.16-1.36-1.14-8.53-7.48-13.85-5.16-4.32-10.78-4.85-12.52-4.95-.97-.05-6.97-.31-12.72,3.36-1.75,1.12-2.9,2.23-3.25,2.57-3.49,3.45-4.69,7.32-5.34,9.51-.58,1.95-1.39,4.68-1.06,8.31,.46,5.15,2.91,8.66,3.84,9.95,3.49,4.87,8.04,6.86,9.59,7.47,1.73,.68,5.95,2.06,11.28,1.17,1.65-.28,7.71-1.5,12.5-6.96,6.15-7.01,5.31-15.41,5.17-16.58Zm-7.75,9.06c-2.89,5.91-8.6,7.61-9.42,7.84-5.4,1.51-9.79-.58-10.75-1.06-4.2-2.12-6.09-5.58-6.64-6.68-.55-1.1-2-4.35-1.43-8.62,.46-3.49,2.04-5.91,2.82-6.95,.77-1.04,2.83-3.53,6.48-4.98,1.25-.49,3.79-1.31,6.86-.99,5.58,.57,11.33,4.72,13.08,10.95,1.46,5.21-.52,9.54-.99,10.49Z"/>
  <path class="cls-1" d="M406.66,122.86c-2.89,5.91-8.6,7.61-9.42,7.84-5.4,1.51-9.79-.58-10.75-1.06-4.2-2.12-6.09-5.58-6.64-6.68-.55-1.1-2-4.35-1.43-8.62,.46-3.49,2.04-5.91,2.82-6.95,.77-1.04,2.83-3.53,6.48-4.98,1.25-.49,3.79-1.31,6.86-.99,5.58,.57,11.33,4.72,13.08,10.95,1.46,5.21-.52,9.54-.99,10.49Z"/>
  <path class="cls-1" d="M406.66,122.86c-2.89,5.91-8.6,7.61-9.42,7.84-5.4,1.51-9.79-.58-10.75-1.06-4.2-2.12-6.09-5.58-6.64-6.68-.55-1.1-2-4.35-1.43-8.62,.46-3.49,2.04-5.91,2.82-6.95,.77-1.04,2.83-3.53,6.48-4.98,1.25-.49,3.79-1.31,6.86-.99,5.58,.57,11.33,4.72,13.08,10.95,1.46,5.21-.52,9.54-.99,10.49Z"/>
  <path class="cls-3" d="M395.53,106.18c-.39,.11-1.36,.45-2.15,1.4-.16,.19-1.13,1.41-.96,3.15,.15,1.48,1.09,2.89,2.57,3.53,1.63,.71,3.53,.31,4.75-.9,1.54-1.53,1.23-3.61,1.2-3.77-.05-.31-.31-1.65-1.54-2.63-1.66-1.32-3.63-.84-3.87-.78Z"/>
  <path class="cls-4" d="M427.81,101.06c-.02,.26-.08,.67-.36,1.01-.26,.32-.59,.46-.64,.48-.17,.07-.32,.1-.43,.11-3.48,.1-6.05,.09-6.92,.01-.26-.02-.7-.08-1.06-.4-.37-.32-.49-.76-.5-.81-.05-.19-.05-.35-.05-.41-.01-1.22-.16-1.81,0-3.37,.07-.64,.13-.89,.31-1.15,.34-.45,.86-.59,.89-.61,.16-.04,.31-.05,.41-.05,2.35,0,4.69,.02,7.04,.02,.13,.03,.61,.14,.97,.59,.32,.41,.35,.86,.35,1,.01,.24,.13,2.26,0,3.57Z"/>
  <path class="cls-3" d="M359.12,92.18v-1.26c0-.74,.6-1.34,1.34-1.34h8.86c.74,0,1.34,.6,1.34,1.34v1.26"/>
  <rect class="cls-4" x="484.75" y="139.82" width="43.13" height="11.88" rx="2.04" ry="2.04"/>
  <path class="cls-4" d="M490.05,72.04c-.85-1.76-1.24-3.58-1.24-3.58s-.39-1.85-.32-3.76c.2-5.35,5.2-10.87,6.2-11.98,2.55-2.82,4.87-4.37,7.66-6.24,5.65-3.78,8.51-4.12,9.45-4.18,2.94-.18,5.32,.83,5.32,.83s.26,.11,.5,.23c4.37,2.13,15.25,32.77,15.28,32.9h0s.11,.35,.11,.36c.09,.3,.13,3.89-.91,5.74-1.43,2.53-5.69,3.14-10.07,3.16-18.04,.06-30.3-9.99-31.99-13.47Z"/>
  <rect class="cls-4" x="571.51" y="52.64" width="43.13" height="11.88" rx="2.04" ry="2.04" transform="translate(534.49 651.66) rotate(-90)"/>
  <path class="cls-3" d="M758.02,85.25c-2.74-9.74-7.66-15.97-12.64-22.28-5.18-6.56-10.09-12.78-18.29-17.62-20.23-11.96-42.77-5.11-46.23-3.99-2.95,.95-14.84,5.02-25.6,16.28-10.28,10.77-13.81,22.13-14.63,24.95-1,3.42-4.38,16.19-.33,31.92,1.32,5.2,6.38,22.04,22.94,34.25,3.68,2.71,14.82,10.71,31.26,11.64,14.47,.82,25.15-4.3,30.58-6.97,4.3-2.12,13.49-6.8,21.63-16.96,3.63-4.57,9.08-12.74,11.63-24.28,.97-4.38,3.12-14.65-.33-26.94Zm-18.77,23.33c-3.83,17.25-17.43,25.36-20.08,26.88-2.57,1.46-16.56,9.04-32.99,3.58-11.22-3.72-17.61-11.54-20.22-15.29-1.32-1.92-7.62-11.29-7.31-24.74,.23-10.23,4.16-17.47,5.2-19.28,5.65-9.94,13.96-14.43,16.89-15.95,2.38-1.25,8.55-4.39,16.89-4.79,12.43-.59,26.53,5.06,35.11,17.15,10.25,14.45,7.04,30.18,6.52,32.45Z"/>
  <path class="cls-1" d="M688.34,98.4c-6.28,.03-12.57,.04-18.84,.06-.04-.03-.16-.13-.29-.26-2.91-3.44,5.57-16.08,5.57-16.08,.09-.11,.19-.19,.28-.24,.82-.5,2.01,.28,2.08,.34l11.69,11.73,.68,.69c-.34,.37-1.12,1.31-1.22,2.67-.04,.42,0,.78,.05,1.08Z"/>
  <path class="cls-1" d="M689.67,106.04c-4.12,4.74-8.25,9.48-12.36,14.23-.05,.01-.2,.04-.39,.04-4.51-.06-8.44-14.78-8.44-14.78-.03-.14-.03-.26,0-.38,.16-.93,1.53-1.31,1.64-1.34,5.5-.37,11.01-.72,16.52-1.07l.97-.06c.05,.5,.24,1.72,1.2,2.7,.29,.29,.59,.5,.86,.67Z"/>
  <path class="cls-1" d="M697.04,129.02s-.13,.16-.28,.29c-3.39,2.96-16.14-5.35-16.14-5.35-.13-.09-.2-.19-.25-.28-.52-.81,.25-2.01,.3-2.09,3.86-3.95,7.72-7.91,11.58-11.85l.68-.69c.38,.34,1.32,1.12,2.69,1.21,.42,.03,.78-.03,1.08-.09,.11,6.29,.21,12.57,.34,18.85Z"/>
  <path class="cls-1" d="M697.16,89.48c-.5,.03-1.73,.15-2.75,1.06-.3,.28-.54,.57-.71,.83-4.54-4.35-9.08-8.7-13.61-13.05-.01-.04-.03-.19-.01-.39,.28-4.49,15.17-7.69,15.17-7.69,.14-.01,.26-.01,.37,.01,.93,.21,1.24,1.59,1.26,1.7,.09,5.51,.18,11.04,.26,16.56v.97Z"/>
  <path class="cls-1" d="M717.11,78.61c-3.96,3.85-7.92,7.69-11.88,11.54l-.71,.68c-.37-.35-1.29-1.16-2.66-1.29-.4-.04-.78,0-1.08,.05,.06-6.28,.13-12.57,.18-18.85,.04-.03,.14-.15,.29-.28,3.47-2.86,16,5.79,16,5.79,.1,.09,.18,.19,.24,.28,.48,.82-.32,1.99-.38,2.08Z"/>
  <path class="cls-1" d="M717.92,122.87c-.44,4.48-15.44,7.16-15.44,7.16-.15,.01-.26,0-.37-.04-.92-.23-1.19-1.63-1.21-1.73,.11-5.52,.21-11.05,.32-16.57l.03-.96c.5-.01,1.73-.1,2.79-.97,.32-.26,.55-.55,.73-.79,4.39,4.49,8.76,9,13.15,13.51,0,.04,.01,.19,0,.39Z"/>
  <path class="cls-1" d="M729.15,96.87c.01,.14-.01,.26-.03,.37-.24,.92-1.64,1.2-1.74,1.21-5.52-.08-11.04-.16-16.56-.24l-.97-.03c-.01-.5-.1-1.73-.98-2.77-.26-.33-.54-.57-.79-.74,4.48-4.4,8.97-8.79,13.44-13.19,.05,0,.2-.03,.4,0,4.49,.42,7.23,15.4,7.23,15.4Z"/>
  <path class="cls-1" d="M722.93,119.03c-.1,.11-.2,.19-.29,.24-.83,.47-1.99-.35-2.07-.42-3.77-4.04-7.53-8.07-11.3-12.12l-.66-.72c.35-.35,1.17-1.26,1.32-2.62,.05-.42,.03-.78-.03-1.08,6.28,.19,12.56,.38,18.85,.57,.03,.03,.14,.13,.26,.28,2.8,3.53-6.1,15.88-6.1,15.88Z"/>
  <path class="cls-1" d="M688.34,98.4c-6.28,.03-12.57,.04-18.84,.06-.04-.03-.16-.13-.29-.26-2.91-3.44,5.57-16.08,5.57-16.08,.09-.11,.19-.19,.28-.24,.82-.5,2.01,.28,2.08,.34l11.69,11.73,.68,.69c-.34,.37-1.12,1.31-1.22,2.67-.04,.42,0,.78,.05,1.08Z"/>
  <path class="cls-1" d="M689.67,106.04c-4.12,4.74-8.25,9.48-12.36,14.23-.05,.01-.2,.04-.39,.04-4.51-.06-8.44-14.78-8.44-14.78-.03-.14-.03-.26,0-.38,.16-.93,1.53-1.31,1.64-1.34,5.5-.37,11.01-.72,16.52-1.07l.97-.06c.05,.5,.24,1.72,1.2,2.7,.29,.29,.59,.5,.86,.67Z"/>
  <path class="cls-1" d="M697.04,129.02s-.13,.16-.28,.29c-3.39,2.96-16.14-5.35-16.14-5.35-.13-.09-.2-.19-.25-.28-.52-.81,.25-2.01,.3-2.09,3.86-3.95,7.72-7.91,11.58-11.85l.68-.69c.38,.34,1.32,1.12,2.69,1.21,.42,.03,.78-.03,1.08-.09,.11,6.29,.21,12.57,.34,18.85Z"/>
  <path class="cls-1" d="M697.16,89.48c-.5,.03-1.73,.15-2.75,1.06-.3,.28-.54,.57-.71,.83-4.54-4.35-9.08-8.7-13.61-13.05-.01-.04-.03-.19-.01-.39,.28-4.49,15.17-7.69,15.17-7.69,.14-.01,.26-.01,.37,.01,.93,.21,1.24,1.59,1.26,1.7,.09,5.51,.18,11.04,.26,16.56v.97Z"/>
  <path class="cls-1" d="M717.11,78.61c-3.96,3.85-7.92,7.69-11.88,11.54l-.71,.68c-.37-.35-1.29-1.16-2.66-1.29-.4-.04-.78,0-1.08,.05,.06-6.28,.13-12.57,.18-18.85,.04-.03,.14-.15,.29-.28,3.47-2.86,16,5.79,16,5.79,.1,.09,.18,.19,.24,.28,.48,.82-.32,1.99-.38,2.08Z"/>
  <path class="cls-1" d="M717.92,122.87c-.44,4.48-15.44,7.16-15.44,7.16-.15,.01-.26,0-.37-.04-.92-.23-1.19-1.63-1.21-1.73,.11-5.52,.21-11.05,.32-16.57l.03-.96c.5-.01,1.73-.1,2.79-.97,.32-.26,.55-.55,.73-.79,4.39,4.49,8.76,9,13.15,13.51,0,.04,.01,.19,0,.39Z"/>
  <path class="cls-1" d="M729.15,96.87c.01,.14-.01,.26-.03,.37-.24,.92-1.64,1.2-1.74,1.21-5.52-.08-11.04-.16-16.56-.24l-.97-.03c-.01-.5-.1-1.73-.98-2.77-.26-.33-.54-.57-.79-.74,4.48-4.4,8.97-8.79,13.44-13.19,.05,0,.2-.03,.4,0,4.49,.42,7.23,15.4,7.23,15.4Z"/>
  <path class="cls-1" d="M722.93,119.03c-.1,.11-.2,.19-.29,.24-.83,.47-1.99-.35-2.07-.42-3.77-4.04-7.53-8.07-11.3-12.12l-.66-.72c.35-.35,1.17-1.26,1.32-2.62,.05-.42,.03-.78-.03-1.08,6.28,.19,12.56,.38,18.85,.57,.03,.03,.14,.13,.26,.28,2.8,3.53-6.1,15.88-6.1,15.88Z"/>
  <path class="cls-6" d="M732.73,76.13c-8.58-12.09-22.68-17.74-35.11-17.15-8.34,.4-14.5,3.54-16.89,4.79-2.93,1.53-11.24,6.02-16.89,15.95-1.03,1.82-4.97,9.06-5.2,19.28-.3,13.46,5.99,22.83,7.31,24.74,2.61,3.75,8.99,11.56,20.22,15.29,16.43,5.46,30.42-2.12,32.99-3.58,2.65-1.51,16.24-9.62,20.08-26.88,.52-2.27,3.73-18-6.52-32.45Zm-57.95,5.99c.09-.11,.19-.19,.28-.24,.82-.5,2.01,.28,2.08,.34l11.69,11.73,.68,.69c-.34,.37-1.12,1.31-1.22,2.67-.04,.42,0,.78,.05,1.08-6.28,.03-12.57,.04-18.84,.06-.04-.03-.16-.13-.29-.26-2.91-3.44,5.57-16.08,5.57-16.08Zm15.88,17.32c.71,0,1.29,.58,1.29,1.29s-.58,1.29-1.29,1.29-1.29-.58-1.29-1.29,.58-1.29,1.29-1.29Zm-13.75,20.87c-4.51-.06-8.44-14.78-8.44-14.78-.03-.14-.03-.26,0-.38,.16-.93,1.53-1.31,1.64-1.34,5.5-.37,11.01-.72,16.52-1.07l.97-.06c.05,.5,.24,1.72,1.2,2.7,.29,.29,.59,.5,.86,.67-4.12,4.74-8.25,9.48-12.36,14.23-.05,.01-.2,.04-.39,.04Zm19.85,9c-3.39,2.96-16.14-5.35-16.14-5.35-.13-.09-.2-.19-.25-.28-.52-.81,.25-2.01,.3-2.09,3.86-3.95,7.72-7.91,11.58-11.85l.68-.69c.38,.34,1.32,1.12,2.69,1.21,.42,.03,.78-.03,1.08-.09,.11,6.29,.21,12.57,.34,18.85-.04,.04-.13,.16-.28,.29Zm-3.39-24.3c.71,0,1.29,.57,1.29,1.27s-.58,1.29-1.29,1.29-1.29-.57-1.29-1.29,.58-1.27,1.29-1.27Zm-1.29-9.93c0-.71,.58-1.27,1.29-1.27s1.29,.57,1.29,1.27-.58,1.29-1.29,1.29-1.29-.57-1.29-1.29Zm2.32-4.54c-.3,.28-.54,.57-.71,.83-4.54-4.35-9.08-8.7-13.61-13.05-.01-.04-.03-.19-.01-.39,.28-4.49,15.17-7.69,15.17-7.69,.14-.01,.26-.01,.37,.01,.93,.21,1.24,1.59,1.26,1.7,.09,5.51,.18,11.04,.26,16.56v.97c-.49,.03-1.72,.15-2.74,1.06Zm27.52-9.07c4.49,.42,7.23,15.4,7.23,15.4,.01,.14-.01,.26-.03,.37-.24,.92-1.64,1.2-1.74,1.21-5.52-.08-11.04-.16-16.56-.24l-.97-.03c-.01-.5-.1-1.73-.98-2.77-.26-.33-.54-.57-.79-.74,4.48-4.4,8.97-8.79,13.44-13.19,.05,0,.2-.03,.4,0Zm-17.04,14.39c-.71,0-1.29-.57-1.29-1.29s.58-1.27,1.29-1.27,1.29,.57,1.29,1.27-.58,1.29-1.29,1.29Zm1.29,10.61c0,.71-.58,1.27-1.29,1.27s-1.29-.57-1.29-1.27,.58-1.29,1.29-1.29,1.29,.57,1.29,1.29Zm1.27-7.04c.72,0,1.29,.58,1.29,1.29s-.57,1.29-1.29,1.29-1.27-.58-1.27-1.29,.57-1.29,1.27-1.29Zm-8.31-7.97c.71,0,1.27,.58,1.27,1.29s-.57,1.29-1.27,1.29-1.29-.58-1.29-1.29,.57-1.29,1.29-1.29Zm.04,18.16c-.71,0-1.29-.58-1.29-1.29s.58-1.29,1.29-1.29,1.29,.58,1.29,1.29-.58,1.29-1.29,1.29Zm1.78-38.88s.14-.15,.29-.28c3.47-2.86,16,5.79,16,5.79,.1,.09,.18,.19,.24,.28,.48,.82-.32,1.99-.38,2.08-3.96,3.85-7.92,7.69-11.88,11.54l-.71,.68c-.37-.35-1.29-1.16-2.66-1.29-.4-.04-.78,0-1.08,.05,.06-6.28,.13-12.57,.18-18.85Zm16.96,52.12c-.44,4.48-15.44,7.16-15.44,7.16-.15,.01-.26,0-.37-.04-.92-.23-1.19-1.63-1.21-1.73,.11-5.52,.21-11.05,.32-16.57l.03-.96c.5-.01,1.73-.1,2.79-.97,.32-.26,.55-.55,.73-.79,4.39,4.49,8.76,9,13.15,13.51,0,.04,.01,.19,0,.39Zm5.02-3.83c-.1,.11-.2,.19-.29,.24-.83,.47-1.99-.35-2.07-.42-3.77-4.04-7.53-8.07-11.3-12.12l-.66-.72c.35-.35,1.17-1.26,1.32-2.62,.05-.42,.03-.78-.03-1.08,6.28,.19,12.56,.38,18.85,.57,.03,.03,.14,.13,.26,.28,2.8,3.53-6.1,15.88-6.1,15.88Z"/>
  <path class="cls-1" d="M688.34,98.4c-6.28,.03-12.57,.04-18.84,.06-.04-.03-.16-.13-.29-.26-2.91-3.44,5.57-16.08,5.57-16.08,.09-.11,.19-.19,.28-.24,.82-.5,2.01,.28,2.08,.34l11.69,11.73,.68,.69c-.34,.37-1.12,1.31-1.22,2.67-.04,.42,0,.78,.05,1.08Z"/>
  <path class="cls-1" d="M689.67,106.04c-4.12,4.74-8.25,9.48-12.36,14.23-.05,.01-.2,.04-.39,.04-4.51-.06-8.44-14.78-8.44-14.78-.03-.14-.03-.26,0-.38,.16-.93,1.53-1.31,1.64-1.34,5.5-.37,11.01-.72,16.52-1.07l.97-.06c.05,.5,.24,1.72,1.2,2.7,.29,.29,.59,.5,.86,.67Z"/>
  <path class="cls-1" d="M697.04,129.02s-.13,.16-.28,.29c-3.39,2.96-16.14-5.35-16.14-5.35-.13-.09-.2-.19-.25-.28-.52-.81,.25-2.01,.3-2.09,3.86-3.95,7.72-7.91,11.58-11.85l.68-.69c.38,.34,1.32,1.12,2.69,1.21,.42,.03,.78-.03,1.08-.09,.11,6.29,.21,12.57,.34,18.85Z"/>
  <path class="cls-1" d="M697.16,89.48c-.5,.03-1.73,.15-2.75,1.06-.3,.28-.54,.57-.71,.83-4.54-4.35-9.08-8.7-13.61-13.05-.01-.04-.03-.19-.01-.39,.28-4.49,15.17-7.69,15.17-7.69,.14-.01,.26-.01,.37,.01,.93,.21,1.24,1.59,1.26,1.7,.09,5.51,.18,11.04,.26,16.56v.97Z"/>
  <path class="cls-1" d="M717.11,78.61c-3.96,3.85-7.92,7.69-11.88,11.54l-.71,.68c-.37-.35-1.29-1.16-2.66-1.29-.4-.04-.78,0-1.08,.05,.06-6.28,.13-12.57,.18-18.85,.04-.03,.14-.15,.29-.28,3.47-2.86,16,5.79,16,5.79,.1,.09,.18,.19,.24,.28,.48,.82-.32,1.99-.38,2.08Z"/>
  <path class="cls-1" d="M717.92,122.87c-.44,4.48-15.44,7.16-15.44,7.16-.15,.01-.26,0-.37-.04-.92-.23-1.19-1.63-1.21-1.73,.11-5.52,.21-11.05,.32-16.57l.03-.96c.5-.01,1.73-.1,2.79-.97,.32-.26,.55-.55,.73-.79,4.39,4.49,8.76,9,13.15,13.51,0,.04,.01,.19,0,.39Z"/>
  <path class="cls-1" d="M729.15,96.87c.01,.14-.01,.26-.03,.37-.24,.92-1.64,1.2-1.74,1.21-5.52-.08-11.04-.16-16.56-.24l-.97-.03c-.01-.5-.1-1.73-.98-2.77-.26-.33-.54-.57-.79-.74,4.48-4.4,8.97-8.79,13.44-13.19,.05,0,.2-.03,.4,0,4.49,.42,7.23,15.4,7.23,15.4Z"/>
  <path class="cls-1" d="M722.93,119.03c-.1,.11-.2,.19-.29,.24-.83,.47-1.99-.35-2.07-.42-3.77-4.04-7.53-8.07-11.3-12.12l-.66-.72c.35-.35,1.17-1.26,1.32-2.62,.05-.42,.03-.78-.03-1.08,6.28,.19,12.56,.38,18.85,.57,.03,.03,.14,.13,.26,.28,2.8,3.53-6.1,15.88-6.1,15.88Z"/>
  <path class="cls-1" d="M688.34,98.4c-6.28,.03-12.57,.04-18.84,.06-.04-.03-.16-.13-.29-.26-2.91-3.44,5.57-16.08,5.57-16.08,.09-.11,.19-.19,.28-.24,.82-.5,2.01,.28,2.08,.34l11.69,11.73,.68,.69c-.34,.37-1.12,1.31-1.22,2.67-.04,.42,0,.78,.05,1.08Z"/>
  <path class="cls-1" d="M697.16,89.48c-.5,.03-1.73,.15-2.75,1.06-.3,.28-.54,.57-.71,.83-4.54-4.35-9.08-8.7-13.61-13.05-.01-.04-.03-.19-.01-.39,.28-4.49,15.17-7.69,15.17-7.69,.14-.01,.26-.01,.37,.01,.93,.21,1.24,1.59,1.26,1.7,.09,5.51,.18,11.04,.26,16.56v.97Z"/>
  <path class="cls-1" d="M717.11,78.61c-3.96,3.85-7.92,7.69-11.88,11.54l-.71,.68c-.37-.35-1.29-1.16-2.66-1.29-.4-.04-.78,0-1.08,.05,.06-6.28,.13-12.57,.18-18.85,.04-.03,.14-.15,.29-.28,3.47-2.86,16,5.79,16,5.79,.1,.09,.18,.19,.24,.28,.48,.82-.32,1.99-.38,2.08Z"/>
  <path class="cls-1" d="M729.15,96.87c.01,.14-.01,.26-.03,.37-.24,.92-1.64,1.2-1.74,1.21-5.52-.08-11.04-.16-16.56-.24l-.97-.03c-.01-.5-.1-1.73-.98-2.77-.26-.33-.54-.57-.79-.74,4.48-4.4,8.97-8.79,13.44-13.19,.05,0,.2-.03,.4,0,4.49,.42,7.23,15.4,7.23,15.4Z"/>
  <path class="cls-1" d="M722.93,119.03c-.1,.11-.2,.19-.29,.24-.83,.47-1.99-.35-2.07-.42-3.77-4.04-7.53-8.07-11.3-12.12l-.66-.72c.35-.35,1.17-1.26,1.32-2.62,.05-.42,.03-.78-.03-1.08,6.28,.19,12.56,.38,18.85,.57,.03,.03,.14,.13,.26,.28,2.8,3.53-6.1,15.88-6.1,15.88Z"/>
  <path class="cls-1" d="M717.92,122.87c-.44,4.48-15.44,7.16-15.44,7.16-.15,.01-.26,0-.37-.04-.92-.23-1.19-1.63-1.21-1.73,.11-5.52,.21-11.05,.32-16.57l.03-.96c.5-.01,1.73-.1,2.79-.97,.32-.26,.55-.55,.73-.79,4.39,4.49,8.76,9,13.15,13.51,0,.04,.01,.19,0,.39Z"/>
  <path class="cls-1" d="M697.04,129.02s-.13,.16-.28,.29c-3.39,2.96-16.14-5.35-16.14-5.35-.13-.09-.2-.19-.25-.28-.52-.81,.25-2.01,.3-2.09,3.86-3.95,7.72-7.91,11.58-11.85l.68-.69c.38,.34,1.32,1.12,2.69,1.21,.42,.03,.78-.03,1.08-.09,.11,6.29,.21,12.57,.34,18.85Z"/>
  <path class="cls-1" d="M689.67,106.04c-4.12,4.74-8.25,9.48-12.36,14.23-.05,.01-.2,.04-.39,.04-4.51-.06-8.44-14.78-8.44-14.78-.03-.14-.03-.26,0-.38,.16-.93,1.53-1.31,1.64-1.34,5.5-.37,11.01-.72,16.52-1.07l.97-.06c.05,.5,.24,1.72,1.2,2.7,.29,.29,.59,.5,.86,.67Z"/>
  <path class="cls-2" d="M694.66,95.08c0,.72-.58,1.29-1.29,1.29s-1.29-.57-1.29-1.29,.58-1.27,1.29-1.27,1.29,.57,1.29,1.27Z"/>
  <path class="cls-2" d="M700.41,92.75c0,.71-.57,1.29-1.27,1.29s-1.29-.58-1.29-1.29,.57-1.29,1.29-1.29,1.27,.58,1.27,1.29Z"/>
  <path class="cls-2" d="M706.17,94.58c0,.72-.58,1.29-1.29,1.29s-1.29-.57-1.29-1.29,.58-1.27,1.29-1.27,1.29,.57,1.29,1.27Z"/>
  <path class="cls-2" d="M708.73,100.72c0,.71-.57,1.29-1.29,1.29s-1.27-.58-1.27-1.29,.57-1.29,1.27-1.29,1.29,.58,1.29,1.29Z"/>
  <path class="cls-2" d="M706.17,106.47c0,.71-.58,1.27-1.29,1.27s-1.29-.57-1.29-1.27,.58-1.29,1.29-1.29,1.29,.57,1.29,1.29Z"/>
  <path class="cls-2" d="M700.46,108.34c0,.71-.58,1.29-1.29,1.29s-1.29-.58-1.29-1.29,.58-1.29,1.29-1.29,1.29,.58,1.29,1.29Z"/>
  <path class="cls-2" d="M694.66,106.28c0,.72-.58,1.29-1.29,1.29s-1.29-.57-1.29-1.29,.58-1.27,1.29-1.27,1.29,.57,1.29,1.27Z"/>
  <path class="cls-2" d="M691.95,100.72c0,.71-.58,1.29-1.29,1.29s-1.29-.58-1.29-1.29,.58-1.29,1.29-1.29,1.29,.58,1.29,1.29Z"/>
  <text class="cls-10" transform="translate(79.96 192.25)"><tspan x="0" y="0">Envases</tspan></text>
  <text class="cls-10" transform="translate(219.28 192.25)"><tspan x="0" y="0">Textiles</tspan></text>
  <text class="cls-10" transform="translate(355.69 192.25)"><tspan x="0" y="0">Electrónicos</tspan></text>
  <text class="cls-10" transform="translate(658.38 192.25)"><tspan x="0" y="0">Neumáticos</tspan></text>
  <text class="cls-10" transform="translate(486.87 192.25)"><tspan x="0" y="0">Construcción</tspan></text>
</svg>