<?xml version="1.0" encoding="UTF-8"?>
<svg id="Capa_1" data-name="Capa 1" xmlns="http://www.w3.org/2000/svg" viewBox="0 0 2375.7 4095.1">
  <defs>
    <style>
      .cls-1 {
        letter-spacing: 0em;
      }

      .cls-2 {
        letter-spacing: -.02em;
      }

      .cls-3 {
        letter-spacing: -.02em;
      }

      .cls-4 {
        letter-spacing: 0em;
      }

      .cls-5 {
        letter-spacing: -.05em;
      }

      .cls-6 {
        stroke: #a0a09f;
        stroke-width: 3.42px;
      }

      .cls-6, .cls-7, .cls-8, .cls-9, .cls-10 {
        fill: none;
        stroke-miterlimit: 10;
      }

      .cls-11 {
        letter-spacing: -.02em;
      }

      .cls-12 {
        letter-spacing: -.01em;
      }

      .cls-13 {
        letter-spacing: -.03em;
      }

      .cls-14 {
        fill: #223a55;
        font-family: Montserrat-Regular, Montserrat;
        font-size: 76px;
      }

      .cls-15 {
        letter-spacing: 0em;
      }

      .cls-7 {
        stroke: #000;
        stroke-width: .62px;
      }

      .cls-8 {
        stroke: #223a55;
      }

      .cls-8, .cls-9 {
        stroke-width: 2.11px;
      }

      .cls-9 {
        stroke: #18283e;
      }

      .cls-16 {
        letter-spacing: -.02em;
      }

      .cls-17, .cls-18 {
        stroke-width: 0px;
      }

      .cls-10 {
        stroke: #80afc1;
        stroke-width: 3.47px;
      }

      .cls-19 {
        letter-spacing: -.01em;
      }

      .cls-18 {
        fill: #1e3659;
      }
    </style>
  </defs>
  <g>
    <path class="cls-17" d="m523.75,521.12l-1.23-.35,1.31.44-.09-.09Z"/>
    <path class="cls-18" d="m523.75,521.12l-1.23-.35-1.31-.44-35.22-10.78c-18.75-5.78-38.73-5.78-57.39-.09l-37.33,11.39-4.12,1.23c4.91-5.78,10.16-11.3,15.51-16.65,3.68-3.77,3.24-9.2-.79-12.62-1.05-.88-1.23-2.89-1.84-4.38-.7-1.49-1.4-2.98-2.19-4.38-1.49-2.63-3.94-4.99-4.56-7.8-1.84-8.41-3.15-17.09-4.56-25.58-1.14-7.36,3.15-13.49,10.51-14.72,20.06-3.59,40.22-7.1,60.37-10.51,7.54-1.23,13.58,3.15,14.98,10.6,1.31,7.36,2.37,14.89,3.86,22.17,1.14,5.43,1.05,10.34-3.15,14.46,2.28,3.15,3.42,5.87-.26,8.76-1.66,1.31,1.23,8.85,3.33,9.99,11.22,6.22,22.61,12.09,33.38,18.93,4.47,2.89,8.32,6.75,12,10.78Z"/>
    <path class="cls-10" d="m116.99,540.46l85.72-27.49c22.67-7.27,47.21-6.04,69.05,3.46l22.11,9.62c21.39,9.31,45.4,10.68,67.71,3.87l63.83-19.47c18.7-5.7,38.68-5.69,57.37.05l65.42,20.08c20.88,6.41,43.31,5.66,63.72-2.13l47.92-18.29c22.24-8.49,46.82-8.59,69.13-.29l82.27,30.6"/>
  </g>
  <path class="cls-10" d="m89.32,1293.43l85.72-27.49c22.67-7.27,47.21-6.04,69.05,3.46l22.11,9.62c21.39,9.31,45.4,10.68,67.71,3.87l63.83-19.47c18.7-5.7,38.68-5.69,57.37.05l65.42,20.08c20.88,6.41,43.31,5.66,63.72-2.13l47.92-18.29c22.24-8.49,46.82-8.59,69.13-.29l82.27,30.6"/>
  <path class="cls-10" d="m89.32,1293.43l85.72-27.49c22.67-7.27,47.21-6.04,69.05,3.46l22.11,9.62c21.39,9.31,45.4,10.68,67.71,3.87l63.83-19.47c18.7-5.7,38.68-5.69,57.37.05l65.42,20.08c20.88,6.41,43.31,5.66,63.72-2.13l47.92-18.29c22.24-8.49,46.82-8.59,69.13-.29l82.27,30.6"/>
  <path class="cls-10" d="m89.32,1304.15l85.72-27.49c22.67-7.27,47.21-6.04,69.05,3.46l22.11,9.62c21.39,9.31,45.4,10.68,67.71,3.87l63.83-19.47c18.7-5.7,38.68-5.69,57.37.05l65.42,20.08c20.88,6.41,43.31,5.66,63.72-2.13l47.92-18.29c22.24-8.49,46.82-8.59,69.13-.29l82.27,30.6"/>
  <path class="cls-17" d="m1952.52,1306.35l-.49-.14.53.18-.04-.04Z"/>
  <path class="cls-17" d="m563.39,3604.72v.04l.82-.26-.82.22Z"/>
  <path class="cls-17" d="m338.57,1281.14v.09l1.66-.53-1.66.44Z"/>
  <path class="cls-18" d="m505.57,1270.62c-1.31,3.07-1.75,5.43-1.05,7.62l-4.56-1.4-44.68-13.67c-18.66-5.78-38.64-5.78-57.3-.09l-57.74,17.61-1.66.44c-.88-5.43-1.75-10.86-2.89-16.3-2.45-11.83.18-22.43,6.13-32.68,7.71-13.05,17.96-24.01,28.48-34.61,3.77-3.77,3.24-9.2-.7-12.62-1.14-.88-1.31-2.89-1.93-4.38-.7-1.49-1.31-2.98-2.19-4.38-1.49-2.63-3.86-4.99-4.47-7.8-1.93-8.5-3.24-17.09-4.56-25.58-1.23-7.36,3.07-13.49,10.43-14.72,20.06-3.59,40.22-7.1,60.37-10.51,7.54-1.23,13.58,3.15,14.98,10.6,1.4,7.45,2.45,14.81,3.94,22.26,1.05,5.34.96,10.25-3.24,14.37,2.28,3.15,3.5,5.87-.26,8.76-1.66,1.23,1.31,8.85,3.33,9.99,11.21,6.22,22.61,12.09,33.38,18.93,5.78,3.77,10.51,9.11,15.25,14.19,4.29,4.64,6.4,10.51,7.45,16.73,1.66,9.55,3.5,19.1,4.91,28.74.35,2.72-.26,5.96-1.4,8.5Z"/>
  <path class="cls-10" d="m89.32,1293.43l85.72-27.49c22.67-7.27,47.21-6.04,69.05,3.46l22.11,9.62c21.39,9.31,45.4,10.68,67.71,3.87l63.83-19.47c18.7-5.7,38.68-5.69,57.37.05l65.42,20.08c20.88,6.41,43.31,5.66,63.72-2.13l47.92-18.29c22.24-8.49,46.82-8.59,69.13-.29l82.27,30.6"/>
  <path class="cls-17" d="m1241.01,537.41l-.49-.14.53.18-.04-.04Z"/>
  <path class="cls-18" d="m1241.01,537.41l-.49-.14-.53-.18-14.11-4.32c-7.51-2.32-15.51-2.32-22.99-.04l-14.95,4.56-1.65.49c1.97-2.32,4.07-4.53,6.21-6.67,1.47-1.51,1.3-3.69-.32-5.05-.42-.35-.49-1.16-.74-1.75-.28-.6-.56-1.19-.88-1.75-.6-1.05-1.58-2-1.83-3.12-.74-3.37-1.26-6.84-1.82-10.25-.46-2.95,1.26-5.41,4.21-5.9,8.04-1.44,16.11-2.84,24.18-4.21,3.02-.49,5.44,1.26,6,4.25.53,2.95.95,5.97,1.54,8.88.46,2.18.42,4.14-1.26,5.79.91,1.26,1.37,2.35-.11,3.51-.67.53.49,3.55,1.33,4,4.49,2.49,9.06,4.84,13.37,7.58,1.79,1.16,3.33,2.7,4.81,4.32Z"/>
  <path class="cls-10" d="m1078.07,545.16l34.34-11.01c9.08-2.91,18.91-2.42,27.66,1.38l8.86,3.85c8.57,3.73,18.19,4.28,27.12,1.55l25.57-7.8c7.49-2.29,15.49-2.28,22.98.02l26.21,8.04c8.37,2.57,17.35,2.27,25.53-.85l19.19-7.33c8.91-3.4,18.75-3.44,27.69-.12l32.96,12.26"/>
  <path class="cls-17" d="m1940.03,529.7l-.49-.14.53.18-.04-.04Z"/>
  <path class="cls-18" d="m1940.03,529.7l-.49-.14-.53-.18-14.11-4.32c-7.51-2.32-15.51-2.32-22.99-.04l-14.95,4.56-1.65.49c1.97-2.32,4.07-4.53,6.21-6.67,1.47-1.51,1.3-3.69-.32-5.05-.42-.35-.49-1.16-.74-1.75-.28-.6-.56-1.19-.88-1.75-.6-1.05-1.58-2-1.83-3.12-.74-3.37-1.26-6.84-1.82-10.25-.46-2.95,1.26-5.41,4.21-5.9,8.04-1.44,16.11-2.84,24.18-4.21,3.02-.49,5.44,1.26,6,4.25.53,2.95.95,5.97,1.54,8.88.46,2.18.42,4.14-1.26,5.79.91,1.26,1.37,2.35-.11,3.51-.67.53.49,3.55,1.33,4,4.49,2.49,9.06,4.84,13.37,7.58,1.79,1.16,3.33,2.7,4.81,4.32Z"/>
  <path class="cls-10" d="m1777.09,537.45l34.34-11.01c9.08-2.91,18.91-2.42,27.66,1.38l8.86,3.85c8.57,3.73,18.19,4.28,27.12,1.55l25.57-7.8c7.49-2.29,15.49-2.28,22.98.02l26.21,8.04c8.37,2.57,17.35,2.27,25.53-.85l19.19-7.33c8.91-3.4,18.75-3.44,27.69-.12l32.96,12.26"/>
  <path class="cls-17" d="m1954.32,1308.46v.04l.67-.21-.67.18Z"/>
  <path class="cls-18" d="m1956.32,1303.83c-.53,1.23-.7,2.18-.42,3.05l-1.83-.56-17.9-5.48c-7.48-2.32-15.48-2.32-22.95-.04l-23.13,7.05-.67.18c-.35-2.18-.7-4.35-1.16-6.53-.98-4.74.07-8.99,2.46-13.09,3.09-5.23,7.2-9.62,11.41-13.86,1.51-1.51,1.3-3.69-.28-5.05-.46-.35-.53-1.16-.77-1.75-.28-.6-.53-1.19-.88-1.75-.6-1.05-1.54-2-1.79-3.12-.77-3.4-1.3-6.84-1.83-10.25-.49-2.95,1.23-5.41,4.18-5.9,8.04-1.44,16.11-2.84,24.18-4.21,3.02-.49,5.44,1.26,6,4.25.56,2.98.98,5.93,1.58,8.92.42,2.14.39,4.11-1.3,5.76.91,1.26,1.4,2.35-.11,3.51-.67.49.53,3.55,1.33,4,4.49,2.49,9.06,4.84,13.37,7.58,2.32,1.51,4.21,3.65,6.11,5.69,1.72,1.86,2.56,4.21,2.98,6.7.67,3.83,1.4,7.65,1.97,11.51.14,1.09-.11,2.39-.56,3.4Z"/>
  <path class="cls-10" d="m1789.58,1312.97l34.34-11.01c9.08-2.91,18.91-2.42,27.66,1.38l8.86,3.85c8.57,3.73,18.19,4.28,27.12,1.55l25.57-7.8c7.49-2.29,15.49-2.28,22.98.02l26.21,8.04c8.37,2.57,17.35,2.27,25.53-.85l19.19-7.33c8.91-3.4,18.75-3.44,27.69-.12l32.96,12.26"/>
  <path class="cls-17" d="m1158.85,1307.31v.04l.67-.21-.67.18Z"/>
  <path class="cls-18" d="m1225.75,1303.09c-.53,1.23-.7,2.18-.42,3.05l-1.83-.56-17.9-5.48c-7.48-2.32-15.48-2.32-22.95-.04l-23.13,7.05-.67.18c-.35-2.18-.7-4.35-1.16-6.53-.98-4.74.07-8.99,2.46-13.09,3.09-5.23,7.2-9.62,11.41-13.86,1.51-1.51,1.3-3.69-.28-5.05-.46-.35-.53-1.16-.77-1.75-.28-.6-.53-1.19-.88-1.75-.6-1.05-1.54-2-1.79-3.12-.77-3.4-1.3-6.84-1.83-10.25-.49-2.95,1.23-5.41,4.18-5.9,8.04-1.44,16.11-2.84,24.18-4.21,3.02-.49,5.44,1.26,6,4.25.56,2.98.98,5.93,1.58,8.92.42,2.14.39,4.11-1.3,5.76.91,1.26,1.4,2.35-.11,3.51-.67.49.53,3.55,1.33,4,4.49,2.49,9.06,4.84,13.37,7.58,2.32,1.51,4.21,3.65,6.11,5.69,1.72,1.86,2.56,4.21,2.98,6.7.67,3.83,1.4,7.65,1.97,11.51.14,1.09-.11,2.39-.56,3.4Z"/>
  <path class="cls-6" d="m1059,1312.23l34.34-11.01c9.08-2.91,18.91-2.42,27.66,1.38l8.86,3.85c8.57,3.73,18.19,4.28,27.12,1.55l25.57-7.8c7.49-2.29,15.49-2.28,22.98.02l26.21,8.04c8.37,2.57,17.35,2.27,25.53-.85l19.19-7.33c8.91-3.4,18.75-3.44,27.69-.12l32.96,12.26"/>
  <path class="cls-18" d="m456.1,2077.94c-.42,1.02-.6,1.97-.39,2.81l-1.44-.46-19.2-5.9c-7.48-2.28-15.48-2.28-22.95,0l-22.32,6.81-.63.18c-1.12-6.39-2.25-12.78-3.26-19.2-.18-1.09.11-2.35.56-3.37.84-2,.63-3.3-.88-4.91-.74-.81-1.44-1.93-1.65-2.98-.74-3.51-1.16-7.09-1.93-10.56-.98-4.74.07-9.02,2.49-13.09,3.05-5.23,7.16-9.62,11.41-13.9,1.47-1.51,1.26-3.69-.32-5.02-.46-.39-.49-1.19-.77-1.75-.25-.6-.53-1.23-.84-1.79-.6-1.05-1.58-2-1.83-3.12-.77-3.37-1.3-6.81-1.83-10.25-.46-2.91,1.23-5.37,4.18-5.9,8.07-1.44,16.11-2.81,24.18-4.18,3.02-.53,5.44,1.23,6,4.25.56,2.95.98,5.93,1.58,8.88.42,2.14.39,4.11-1.26,5.79.88,1.23,1.37,2.35-.14,3.51-.63.49.53,3.54,1.37,4,4.46,2.49,9.06,4.81,13.34,7.58,2.32,1.47,4.25,3.62,6.11,5.65,1.72,1.86,2.56,4.25,3.02,6.74.67,3.83,1.4,7.65,1.93,11.51.14,1.09-.07,2.35-.53,3.37-.95,2.14-.77,3.33.81,5.02.77.81,1.47,1.93,1.68,2.98,1.47,7.93,2.84,15.83,4.11,23.76.18,1.12-.14,2.46-.6,3.54Z"/>
  <path class="cls-10" d="m287.96,2086.42l34.34-11.01c9.08-2.91,18.91-2.42,27.66,1.38l8.86,3.85c8.57,3.73,18.19,4.28,27.12,1.55l25.57-7.8c7.49-2.29,15.49-2.28,22.98.02l26.21,8.04c8.37,2.57,17.35,2.27,25.53-.85l19.19-7.33c8.91-3.4,18.75-3.44,27.69-.12l32.96,12.26"/>
  <path class="cls-10" d="m287.02,2092.37l34.34-11.01c9.08-2.91,18.91-2.42,27.66,1.38l8.86,3.85c8.57,3.73,18.19,4.28,27.12,1.55l25.57-7.8c7.49-2.29,15.49-2.28,22.98.02l26.21,8.04c8.37,2.57,17.35,2.27,25.53-.85l19.19-7.33c8.91-3.4,18.75-3.44,27.69-.12l32.96,12.26"/>
  <path class="cls-10" d="m287.02,2098.61l34.34-11.01c9.08-2.91,18.91-2.42,27.66,1.38l8.86,3.85c8.57,3.73,18.19,4.28,27.12,1.55l25.57-7.8c7.49-2.29,15.49-2.28,22.98.02l26.21,8.04c8.37,2.57,17.35,2.27,25.53-.85l19.19-7.33c8.91-3.4,18.75-3.44,27.69-.12l32.96,12.26"/>
  <path class="cls-18" d="m1217.4,2083.11c-.42,1.02-.6,1.97-.39,2.81l-1.44-.46-19.2-5.9c-7.48-2.28-15.48-2.28-22.95,0l-22.32,6.81-.63.18c-1.12-6.39-2.25-12.78-3.26-19.2-.18-1.09.11-2.35.56-3.37.84-2,.63-3.3-.88-4.91-.74-.81-1.44-1.93-1.65-2.98-.74-3.51-1.16-7.09-1.93-10.56-.98-4.74.07-9.02,2.49-13.09,3.05-5.23,7.16-9.62,11.41-13.9,1.47-1.51,1.26-3.69-.32-5.02-.46-.39-.49-1.19-.77-1.75-.25-.6-.53-1.23-.84-1.79-.6-1.05-1.58-2-1.83-3.12-.77-3.37-1.3-6.81-1.83-10.25-.46-2.91,1.23-5.37,4.18-5.9,8.07-1.44,16.11-2.81,24.18-4.18,3.02-.53,5.44,1.23,6,4.25.56,2.95.98,5.93,1.58,8.88.42,2.14.39,4.11-1.26,5.79.88,1.23,1.37,2.35-.14,3.51-.63.49.53,3.54,1.37,4,4.46,2.49,9.06,4.81,13.34,7.58,2.32,1.47,4.25,3.62,6.11,5.65,1.72,1.86,2.56,4.25,3.02,6.74.67,3.83,1.4,7.65,1.93,11.51.14,1.09-.07,2.35-.53,3.37-.95,2.14-.77,3.33.81,5.02.77.81,1.47,1.93,1.68,2.98,1.47,7.93,2.84,15.83,4.11,23.76.18,1.12-.14,2.46-.6,3.54Z"/>
  <path class="cls-10" d="m1049.26,2091.6l34.34-11.01c9.08-2.91,18.91-2.42,27.66,1.38l8.86,3.85c8.57,3.73,18.19,4.28,27.12,1.55l25.57-7.8c7.49-2.29,15.49-2.28,22.98.02l26.21,8.04c8.37,2.57,17.35,2.27,25.53-.85l19.19-7.33c8.91-3.4,18.75-3.44,27.69-.12l32.96,12.26"/>
  <path class="cls-10" d="m1048.32,2097.55l34.34-11.01c9.08-2.91,18.91-2.42,27.66,1.38l8.86,3.85c8.57,3.73,18.19,4.28,27.12,1.55l25.57-7.8c7.49-2.29,15.49-2.28,22.98.02l26.21,8.04c8.37,2.57,17.35,2.27,25.53-.85l19.19-7.33c8.91-3.4,18.75-3.44,27.69-.12l32.96,12.26"/>
  <path class="cls-18" d="m1951.18,2077.62c-.42,1.02-.6,1.97-.39,2.81l-1.44-.46-19.2-5.9c-7.48-2.28-15.48-2.28-22.95,0l-22.32,6.81-.63.18c-1.12-6.39-2.25-12.78-3.26-19.2-.18-1.09.11-2.35.56-3.37.84-2,.63-3.3-.88-4.91-.74-.81-1.44-1.93-1.65-2.98-.74-3.51-1.16-7.09-1.93-10.56-.98-4.74.07-9.02,2.49-13.09,3.05-5.23,7.16-9.62,11.41-13.9,1.47-1.51,1.26-3.69-.32-5.02-.46-.39-.49-1.19-.77-1.75-.25-.6-.53-1.23-.84-1.79-.6-1.05-1.58-2-1.83-3.12-.77-3.37-1.3-6.81-1.83-10.25-.46-2.91,1.23-5.37,4.18-5.9,8.07-1.44,16.11-2.81,24.18-4.18,3.02-.53,5.44,1.23,6,4.25.56,2.95.98,5.93,1.58,8.88.42,2.14.39,4.11-1.26,5.79.88,1.23,1.37,2.35-.14,3.51-.63.49.53,3.54,1.37,4,4.46,2.49,9.06,4.81,13.34,7.58,2.32,1.47,4.25,3.62,6.11,5.65,1.72,1.86,2.56,4.25,3.02,6.74.67,3.83,1.4,7.65,1.93,11.51.14,1.09-.07,2.35-.53,3.37-.95,2.14-.77,3.33.81,5.02.77.81,1.47,1.93,1.68,2.98,1.47,7.93,2.84,15.83,4.11,23.76.18,1.12-.14,2.46-.6,3.54Z"/>
  <path class="cls-10" d="m1783.04,2086.1l34.34-11.01c9.08-2.91,18.91-2.42,27.66,1.38l8.86,3.85c8.57,3.73,18.19,4.28,27.12,1.55l25.57-7.8c7.49-2.29,15.49-2.28,22.98.02l26.21,8.04c8.37,2.57,17.35,2.27,25.53-.85l19.19-7.33c8.91-3.4,18.75-3.44,27.69-.12l32.96,12.26"/>
  <path class="cls-10" d="m1782.1,2092.05l34.34-11.01c9.08-2.91,18.91-2.42,27.66,1.38l8.86,3.85c8.57,3.73,18.19,4.28,27.12,1.55l25.57-7.8c7.49-2.29,15.49-2.28,22.98.02l26.21,8.04c8.37,2.57,17.35,2.27,25.53-.85l19.19-7.33c8.91-3.4,18.75-3.44,27.69-.12l32.96,12.26"/>
  <path class="cls-18" d="m489.15,3621.17l-.7-.21-23.9-7.34c-7.48-2.28-15.48-2.32-22.99-.04l-18.78,5.76-.67.21c-.18-.74-.6-1.4-1.3-2.14-.77-.81-1.44-1.93-1.65-3.02-.88-4.32-1.61-8.67-2.25-13.02-.18-1.05.07-2.28.49-3.23.98-2.18.77-3.33-.84-5.02-.74-.77-1.4-1.83-1.58-2.88-1.47-7.93-2.84-15.93-4.14-23.9-.18-1.09.11-2.35.56-3.4.84-1.97.63-3.3-.88-4.88-.74-.81-1.4-1.93-1.65-2.98-.74-3.51-1.16-7.09-1.9-10.56-1.02-4.77.07-9.02,2.46-13.09,3.09-5.23,7.16-9.62,11.41-13.9,1.47-1.51,1.3-3.69-.32-5.05-.42-.35-.49-1.16-.77-1.75-.25-.6-.53-1.19-.84-1.75-.6-1.05-1.58-2-1.82-3.12-.74-3.37-1.26-6.81-1.83-10.25-.46-2.91,1.26-5.37,4.18-5.9,8.07-1.44,16.15-2.84,24.22-4.18,2.98-.53,5.41,1.23,5.97,4.25.56,2.95.98,5.93,1.58,8.88.46,2.14.42,4.11-1.26,5.79.88,1.23,1.37,2.32-.14,3.51-.63.49.53,3.51,1.37,4,4.46,2.49,9.06,4.81,13.34,7.55,2.32,1.51,4.25,3.65,6.14,5.69,1.68,1.86,2.53,4.21,2.98,6.7.67,3.86,1.4,7.69,1.93,11.51.14,1.12-.07,2.39-.53,3.4-.95,2.14-.74,3.33.84,5.02.77.81,1.47,1.9,1.65,2.98,1.47,7.9,2.84,15.83,4.11,23.76.18,1.12-.11,2.46-.56,3.51-.81,1.86-.74,3.33.81,4.6,1.19.98,1.68,2.14,1.93,3.58.7,4.11,1.4,8.18,2.14,12.28.25,1.4.14,2.7-.67,4-.95,1.54-.63,3.26.81,4.42,1.16.91,1.68,2.07,1.9,3.44l1.16,6.77Z"/>
  <path class="cls-10" d="m317.94,3625.94l34.34-11.01c9.08-2.91,18.91-2.42,27.66,1.38l8.86,3.85c8.57,3.73,18.19,4.28,27.12,1.55l25.57-7.8c7.49-2.29,15.49-2.28,22.98.02l26.21,8.04c8.37,2.57,17.35,2.27,25.53-.85l19.19-7.33c8.91-3.4,18.75-3.44,27.69-.12l32.96,12.26"/>
  <path class="cls-18" d="m1221.87,3607l-.87-.26-29.55-9.07c-9.24-2.82-19.14-2.86-28.42-.04l-23.21,7.12-.82.26c-.22-.91-.74-1.74-1.61-2.65-.95-1-1.78-2.39-2.04-3.73-1.08-5.34-2-10.72-2.78-16.1-.22-1.3.09-2.82.61-3.99,1.22-2.69.95-4.12-1.04-6.21-.91-.95-1.74-2.26-1.95-3.56-1.82-9.81-3.51-19.7-5.12-29.55-.22-1.35.13-2.91.69-4.21,1.04-2.43.78-4.08-1.08-6.03-.91-1-1.74-2.39-2.04-3.69-.91-4.34-1.43-8.77-2.34-13.06-1.26-5.9.09-11.15,3.04-16.19,3.82-6.47,8.85-11.89,14.1-17.18,1.82-1.87,1.61-4.56-.39-6.25-.52-.43-.61-1.43-.95-2.17-.3-.74-.65-1.48-1.04-2.17-.74-1.3-1.95-2.47-2.26-3.86-.91-4.17-1.56-8.42-2.26-12.67-.56-3.6,1.56-6.64,5.16-7.29,9.98-1.78,19.96-3.51,29.94-5.16,3.69-.65,6.68,1.52,7.38,5.25.69,3.64,1.22,7.33,1.95,10.98.56,2.65.52,5.08-1.56,7.16,1.08,1.52,1.69,2.86-.17,4.34-.78.61.65,4.34,1.69,4.95,5.51,3.08,11.2,5.94,16.49,9.33,2.86,1.87,5.25,4.51,7.59,7.03,2.08,2.3,3.12,5.21,3.69,8.29.82,4.77,1.74,9.5,2.39,14.23.17,1.39-.09,2.95-.65,4.21-1.17,2.65-.91,4.12,1.04,6.21.95,1,1.82,2.34,2.04,3.69,1.82,9.76,3.51,19.57,5.08,29.38.22,1.39-.13,3.04-.69,4.34-1,2.3-.91,4.12,1,5.68,1.48,1.22,2.08,2.65,2.39,4.43.87,5.08,1.74,10.11,2.65,15.19.3,1.74.17,3.34-.82,4.95-1.17,1.91-.78,4.04,1,5.47,1.43,1.13,2.08,2.56,2.34,4.25l1.43,8.37Z"/>
  <path class="cls-10" d="m1010.21,3612.88l42.45-13.61c11.23-3.6,23.38-2.99,34.19,1.71l10.95,4.76c10.59,4.61,22.48,5.29,33.53,1.92l31.61-9.64c9.26-2.82,19.16-2.82,28.41.02l32.4,9.94c10.34,3.17,21.45,2.8,31.56-1.05l23.73-9.06c11.02-4.2,23.19-4.26,34.24-.15l40.74,15.15"/>
  <path class="cls-10" d="m1010.21,3619.26l42.45-13.61c11.23-3.6,23.38-2.99,34.19,1.71l10.95,4.76c10.59,4.61,22.48,5.29,33.53,1.92l31.61-9.64c9.26-2.82,19.16-2.82,28.41.02l32.4,9.94c10.34,3.17,21.45,2.8,31.56-1.05l23.73-9.06c11.02-4.2,23.19-4.26,34.24-.15l40.74,15.15"/>
  <path class="cls-10" d="m1010.21,3625.19l42.45-13.61c11.23-3.6,23.38-2.99,34.19,1.71l10.95,4.76c10.59,4.61,22.48,5.29,33.53,1.92l31.61-9.64c9.26-2.82,19.16-2.82,28.41.02l32.4,9.94c10.34,3.17,21.45,2.8,31.56-1.05l23.73-9.06c11.02-4.2,23.19-4.26,34.24-.15l40.74,15.15"/>
  <path class="cls-10" d="m1010.21,3631.08l42.45-13.61c11.23-3.6,23.38-2.99,34.19,1.71l10.95,4.76c10.59,4.61,22.48,5.29,33.53,1.92l31.61-9.64c9.26-2.82,19.16-2.82,28.41.02l32.4,9.94c10.34,3.17,21.45,2.8,31.56-1.05l23.73-9.06c11.02-4.2,23.19-4.26,34.24-.15l40.74,15.15"/>
  <path class="cls-10" d="m1010.21,3637.45l42.45-13.61c11.23-3.6,23.38-2.99,34.19,1.71l10.95,4.76c10.59,4.61,22.48,5.29,33.53,1.92l31.61-9.64c9.26-2.82,19.16-2.82,28.41.02l32.4,9.94c10.34,3.17,21.45,2.8,31.56-1.05l23.73-9.06c11.02-4.2,23.19-4.26,34.24-.15l40.74,15.15"/>
  <path class="cls-18" d="m1964.87,3609.58l-.7-.21-23.9-7.34c-7.48-2.28-15.48-2.32-22.99-.04l-18.78,5.76-.67.21c-.18-.74-.6-1.4-1.3-2.14-.77-.81-1.44-1.93-1.65-3.02-.88-4.32-1.61-8.67-2.25-13.02-.18-1.05.07-2.28.49-3.23.98-2.18.77-3.33-.84-5.02-.74-.77-1.4-1.83-1.58-2.88-1.47-7.93-2.84-15.93-4.14-23.9-.18-1.09.11-2.35.56-3.4.84-1.97.63-3.3-.88-4.88-.74-.81-1.4-1.93-1.65-2.98-.74-3.51-1.16-7.09-1.9-10.56-1.02-4.77.07-9.02,2.46-13.09,3.09-5.23,7.16-9.62,11.41-13.9,1.47-1.51,1.3-3.69-.32-5.05-.42-.35-.49-1.16-.77-1.75-.25-.6-.53-1.19-.84-1.75-.6-1.05-1.58-2-1.82-3.12-.74-3.37-1.26-6.81-1.83-10.25-.46-2.91,1.26-5.37,4.18-5.9,8.07-1.44,16.15-2.84,24.22-4.18,2.98-.53,5.41,1.23,5.97,4.25.56,2.95.98,5.93,1.58,8.88.46,2.14.42,4.11-1.26,5.79.88,1.23,1.37,2.32-.14,3.51-.63.49.53,3.51,1.37,4,4.46,2.49,9.06,4.81,13.34,7.55,2.32,1.51,4.25,3.65,6.14,5.69,1.68,1.86,2.53,4.21,2.98,6.7.67,3.86,1.4,7.69,1.93,11.51.14,1.12-.07,2.39-.53,3.4-.95,2.14-.74,3.33.84,5.02.77.81,1.47,1.9,1.65,2.98,1.47,7.9,2.84,15.83,4.11,23.76.18,1.12-.11,2.46-.56,3.51-.81,1.86-.74,3.33.81,4.6,1.19.98,1.68,2.14,1.93,3.58.7,4.11,1.4,8.18,2.14,12.28.25,1.4.14,2.7-.67,4-.95,1.54-.63,3.26.81,4.42,1.16.91,1.68,2.07,1.9,3.44l1.16,6.77Z"/>
  <path class="cls-10" d="m1793.66,3614.34l34.34-11.01c9.08-2.91,18.91-2.42,27.66,1.38l8.86,3.85c8.57,3.73,18.19,4.28,27.12,1.55l25.57-7.8c7.49-2.29,15.49-2.28,22.98.02l26.21,8.04c8.37,2.57,17.35,2.27,25.53-.85l19.19-7.33c8.91-3.4,18.75-3.44,27.69-.12l32.96,12.26"/>
  <path class="cls-10" d="m1793.66,3620.36l34.34-11.01c9.08-2.91,18.91-2.42,27.66,1.38l8.86,3.85c8.57,3.73,18.19,4.28,27.12,1.55l25.57-7.8c7.49-2.29,15.49-2.28,22.98.02l26.21,8.04c8.37,2.57,17.35,2.27,25.53-.85l19.19-7.33c8.91-3.4,18.75-3.44,27.69-.12l32.96,12.26"/>
  <path class="cls-7" d="m484.66,2811.34s.03.01.04.01c.32.07.64.14.97.21.03,0,.07.01.1.02.36.07.72.14,1.09.21.09.02.17.03.25.04.3.05.6.1.9.14.37.05.75.1,1.12.14s.75.08,1.12.11c.29.03.59.05.89.07.11,0,.21.01.31.02.07,0,.14.01.21.01.28.01.57.02.85.03.37.01.75.02,1.12.02,4.75,0,9.5-.87,14-2.58l19.2-7.32c8.91-3.41,18.75-3.44,27.69-.12l32.96,12.26"/>
  <path class="cls-7" d="m309.38,2814.62l34.34-11.01c9.08-2.91,18.91-2.42,27.65,1.38l8.86,3.85c8.57,3.73,18.19,4.28,27.12,1.55l9.59-2.93"/>
  <path class="cls-18" d="m483.93,2811.14c-.6-.14-1.19-.32-1.79-.49l-26.22-8.04c-7.48-2.32-15.48-2.32-22.99-.04l-15.37,4.7c-.35-2.11-.7-4.21-1.02-6.32-.18-.98.11-2.18.53-3.09,1.05-2.42.77-3.97-1.12-5.86-.67-.7-1.23-1.72-1.44-2.63-.81-4.18-1.54-8.39-2.14-12.6-.18-1.02.07-2.25.53-3.23,1.02-2.28.74-3.93-1.05-5.76-.74-.74-1.33-1.75-1.51-2.77-.84-4.07-1.58-8.14-2.14-12.25-.14-1.19.32-2.49.6-3.72.14-.77.46-1.54.74-2.46-.77-.84-1.54-1.61-2.14-2.49-.49-.67-.98-1.51-1.12-2.32-1.4-7.86-2.77-15.72-4.07-23.62-.14-.91.25-1.97.49-2.95.21-.81.53-1.58.84-2.49-.84-.91-1.58-1.72-2.25-2.53-.39-.42-.81-.91-.91-1.44-.81-4.7-1.75-9.37-2.28-14.11-.53-4.7,1.58-8.74,4.32-12.32,2.95-3.79,6.14-7.41,9.41-10.92,1.19-1.26,1.86-2.39,1.26-4.07-.14-.42-.18-.95-.28-1.51-.11.04-.21,0-.28-.03-.42-.21-.84-.63-.98-1.05-.07-.18.56-.81.91-.88.21-.03.39-.07.6-.11-2.32-.14-3.76-1.58-4.21-4.25-.53-3.02-1.05-6.04-1.54-9.06-.53-2.95.95-5.16,3.86-5.69,7.86-1.4,15.69-2.74,23.59-4.07,3.02-.49,5.12,1.09,5.65,4.11.53,3.05,1.05,6.14,1.58,9.2.39,2.32-.35,4.11-2.11,5.02.49-.14.91-.11,1.09.84.25,1.26-.6,1.3-1.37,1.33.11.25.21.49.21.7-.04,2.42,1.3,3.58,3.47,4.56,5.44,2.46,10.63,5.41,15.09,9.44,2.91,2.6,4.77,5.83,5.44,9.69.67,3.62,1.33,7.23,1.86,10.88.14.95-.21,2-.46,2.98-.21.81-.56,1.54-.95,2.49.88.91,1.72,1.75,2.42,2.67.46.6.84,1.33.98,2.04,1.44,8.04,2.81,16.04,4.18,24.08.11.77-.14,1.65-.39,2.39-.32,1.02-.74,1.93-1.16,3.02.84.91,1.65,1.68,2.28,2.6.49.63.91,1.4,1.05,2.18.81,4.35,1.58,8.67,2.25,13.02.14.95-.14,2.07-.56,2.95-1.05,2.25-.74,3.97,1.02,5.76.7.67,1.3,1.65,1.47,2.6.88,4.25,1.61,8.56,2.25,12.88.14.91-.07,2.07-.49,2.91-1.12,2.35-.84,4,1.02,5.9.67.67,1.26,1.65,1.44,2.6.98,5.09,1.86,10.21,2.7,15.34.35,2.25.07,4.42-.77,6.28Z"/>
  <path class="cls-7" d="m587.49,2814.62l-32.96-12.25c-8.95-3.33-18.78-3.3-27.69.11l-19.2,7.34c-4.49,1.72-9.27,2.56-14,2.56-.74,0-1.44-.04-2.18-.07-.25,0-.49-.04-.7-.04-.18,0-.35-.04-.49-.04-.77-.07-1.51-.14-2.25-.25-.07-.04-.11-.04-.18-.04-.32-.07-.67-.11-.98-.18-.74-.11-1.47-.28-2.21-.42-.25-.07-.49-.14-.74-.21"/>
  <path class="cls-7" d="m417.54,2807.28l-.6.18-9.58,2.95c-8.95,2.7-18.57,2.18-27.13-1.58l-8.84-3.83c-2.49-1.09-5.09-1.9-7.72-2.46-6.6-1.37-13.48-1.02-19.94,1.05l-34.36,11.02"/>
  <path class="cls-10" d="m309.38,2814.62l34.34-11.01c9.08-2.91,18.91-2.42,27.66,1.38l8.86,3.85c8.57,3.73,18.19,4.28,27.12,1.55l25.57-7.8c7.49-2.29,15.49-2.28,22.98.02l26.21,8.04c8.37,2.57,17.35,2.27,25.53-.85l19.19-7.33c8.91-3.4,18.75-3.44,27.69-.12l32.96,12.26"/>
  <path class="cls-7" d="m1229.89,2811.34s.03.01.04.01c.32.07.64.14.97.21.03,0,.07.01.1.02.36.07.72.14,1.09.21.09.02.17.03.25.04.3.05.6.1.9.14.37.05.75.1,1.12.14s.75.08,1.12.11c.29.03.59.05.89.07.11,0,.21.01.31.02.07,0,.14.01.21.01.28.01.57.02.85.03.37.01.75.02,1.12.02,4.75,0,9.5-.87,14-2.58l19.2-7.32c8.91-3.41,18.75-3.44,27.69-.12l32.96,12.26"/>
  <path class="cls-7" d="m1054.61,2814.62l34.34-11.01c9.08-2.91,18.91-2.42,27.65,1.38l8.86,3.85c8.57,3.73,18.19,4.28,27.12,1.55l9.59-2.93"/>
  <path class="cls-18" d="m1229.16,2811.14c-.6-.14-1.19-.32-1.79-.49l-26.22-8.04c-7.48-2.32-15.48-2.32-22.99-.04l-15.37,4.7c-.35-2.11-.7-4.21-1.02-6.32-.18-.98.11-2.18.53-3.09,1.05-2.42.77-3.97-1.12-5.86-.67-.7-1.23-1.72-1.44-2.63-.81-4.18-1.54-8.39-2.14-12.6-.18-1.02.07-2.25.53-3.23,1.02-2.28.74-3.93-1.05-5.76-.74-.74-1.33-1.75-1.51-2.77-.84-4.07-1.58-8.14-2.14-12.25-.14-1.19.32-2.49.6-3.72.14-.77.46-1.54.74-2.46-.77-.84-1.54-1.61-2.14-2.49-.49-.67-.98-1.51-1.12-2.32-1.4-7.86-2.77-15.72-4.07-23.62-.14-.91.25-1.97.49-2.95.21-.81.53-1.58.84-2.49-.84-.91-1.58-1.72-2.25-2.53-.39-.42-.81-.91-.91-1.44-.81-4.7-1.75-9.37-2.28-14.11-.53-4.7,1.58-8.74,4.32-12.32,2.95-3.79,6.14-7.41,9.41-10.92,1.19-1.26,1.86-2.39,1.26-4.07-.14-.42-.18-.95-.28-1.51-.11.04-.21,0-.28-.03-.42-.21-.84-.63-.98-1.05-.07-.18.56-.81.91-.88.21-.03.39-.07.6-.11-2.32-.14-3.76-1.58-4.21-4.25-.53-3.02-1.05-6.04-1.54-9.06-.53-2.95.95-5.16,3.86-5.69,7.86-1.4,15.69-2.74,23.59-4.07,3.02-.49,5.12,1.09,5.65,4.11.53,3.05,1.05,6.14,1.58,9.2.39,2.32-.35,4.11-2.11,5.02.49-.14.91-.11,1.09.84.25,1.26-.6,1.3-1.37,1.33.11.25.21.49.21.7-.04,2.42,1.3,3.58,3.47,4.56,5.44,2.46,10.63,5.41,15.09,9.44,2.91,2.6,4.77,5.83,5.44,9.69.67,3.62,1.33,7.23,1.86,10.88.14.95-.21,2-.46,2.98-.21.81-.56,1.54-.95,2.49.88.91,1.72,1.75,2.42,2.67.46.6.84,1.33.98,2.04,1.44,8.04,2.81,16.04,4.18,24.08.11.77-.14,1.65-.39,2.39-.32,1.02-.74,1.93-1.16,3.02.84.91,1.65,1.68,2.28,2.6.49.63.91,1.4,1.05,2.18.81,4.35,1.58,8.67,2.25,13.02.14.95-.14,2.07-.56,2.95-1.05,2.25-.74,3.97,1.02,5.76.7.67,1.3,1.65,1.47,2.6.88,4.25,1.61,8.56,2.25,12.88.14.91-.07,2.07-.49,2.91-1.12,2.35-.84,4,1.02,5.9.67.67,1.26,1.65,1.44,2.6.98,5.09,1.86,10.21,2.7,15.34.35,2.25.07,4.42-.77,6.28Z"/>
  <path class="cls-7" d="m1332.73,2814.62l-32.96-12.25c-8.95-3.33-18.78-3.3-27.69.11l-19.2,7.34c-4.49,1.72-9.27,2.56-14,2.56-.74,0-1.44-.04-2.18-.07-.25,0-.49-.04-.7-.04-.18,0-.35-.04-.49-.04-.77-.07-1.51-.14-2.25-.25-.07-.04-.11-.04-.18-.04-.32-.07-.67-.11-.98-.18-.74-.11-1.47-.28-2.21-.42-.25-.07-.49-.14-.74-.21"/>
  <path class="cls-7" d="m1162.78,2807.28l-.6.18-9.58,2.95c-8.95,2.7-18.57,2.18-27.13-1.58l-8.84-3.83c-2.49-1.09-5.09-1.9-7.72-2.46-6.6-1.37-13.48-1.02-19.94,1.05l-34.36,11.02"/>
  <path class="cls-10" d="m1054.61,2814.62l34.34-11.01c9.08-2.91,18.91-2.42,27.66,1.38l8.86,3.85c8.57,3.73,18.19,4.28,27.12,1.55l25.57-7.8c7.49-2.29,15.49-2.28,22.98.02l26.21,8.04c8.37,2.57,17.35,2.27,25.53-.85l19.19-7.33c8.91-3.4,18.75-3.44,27.69-.12l32.96,12.26"/>
  <path class="cls-7" d="m1963.67,2811.34s.03.01.04.01c.32.07.64.14.97.21.03,0,.07.01.1.02.36.07.72.14,1.09.21.09.02.17.03.25.04.3.05.6.1.9.14.37.05.75.1,1.12.14s.75.08,1.12.11c.29.03.59.05.89.07.11,0,.21.01.31.02.07,0,.14.01.21.01.28.01.57.02.85.03.37.01.75.02,1.12.02,4.75,0,9.5-.87,14-2.58l19.2-7.32c8.91-3.41,18.75-3.44,27.69-.12l32.96,12.26"/>
  <path class="cls-7" d="m1788.38,2814.62l34.34-11.01c9.08-2.91,18.91-2.42,27.65,1.38l8.86,3.85c8.57,3.73,18.19,4.28,27.12,1.55l9.59-2.93"/>
  <path class="cls-18" d="m1962.94,2811.14c-.6-.14-1.19-.32-1.79-.49l-26.22-8.04c-7.48-2.32-15.48-2.32-22.99-.04l-15.37,4.7c-.35-2.11-.7-4.21-1.02-6.32-.18-.98.11-2.18.53-3.09,1.05-2.42.77-3.97-1.12-5.86-.67-.7-1.23-1.72-1.44-2.63-.81-4.18-1.54-8.39-2.14-12.6-.18-1.02.07-2.25.53-3.23,1.02-2.28.74-3.93-1.05-5.76-.74-.74-1.33-1.75-1.51-2.77-.84-4.07-1.58-8.14-2.14-12.25-.14-1.19.32-2.49.6-3.72.14-.77.46-1.54.74-2.46-.77-.84-1.54-1.61-2.14-2.49-.49-.67-.98-1.51-1.12-2.32-1.4-7.86-2.77-15.72-4.07-23.62-.14-.91.25-1.97.49-2.95.21-.81.53-1.58.84-2.49-.84-.91-1.58-1.72-2.25-2.53-.39-.42-.81-.91-.91-1.44-.81-4.7-1.75-9.37-2.28-14.11-.53-4.7,1.58-8.74,4.32-12.32,2.95-3.79,6.14-7.41,9.41-10.92,1.19-1.26,1.86-2.39,1.26-4.07-.14-.42-.18-.95-.28-1.51-.11.04-.21,0-.28-.03-.42-.21-.84-.63-.98-1.05-.07-.18.56-.81.91-.88.21-.03.39-.07.6-.11-2.32-.14-3.76-1.58-4.21-4.25-.53-3.02-1.05-6.04-1.54-9.06-.53-2.95.95-5.16,3.86-5.69,7.86-1.4,15.69-2.74,23.59-4.07,3.02-.49,5.12,1.09,5.65,4.11.53,3.05,1.05,6.14,1.58,9.2.39,2.32-.35,4.11-2.11,5.02.49-.14.91-.11,1.09.84.25,1.26-.6,1.3-1.37,1.33.11.25.21.49.21.7-.04,2.42,1.3,3.58,3.47,4.56,5.44,2.46,10.63,5.41,15.09,9.44,2.91,2.6,4.77,5.83,5.44,9.69.67,3.62,1.33,7.23,1.86,10.88.14.95-.21,2-.46,2.98-.21.81-.56,1.54-.95,2.49.88.91,1.72,1.75,2.42,2.67.46.6.84,1.33.98,2.04,1.44,8.04,2.81,16.04,4.18,24.08.11.77-.14,1.65-.39,2.39-.32,1.02-.74,1.93-1.16,3.02.84.91,1.65,1.68,2.28,2.6.49.63.91,1.4,1.05,2.18.81,4.35,1.58,8.67,2.25,13.02.14.95-.14,2.07-.56,2.95-1.05,2.25-.74,3.97,1.02,5.76.7.67,1.3,1.65,1.47,2.6.88,4.25,1.61,8.56,2.25,12.88.14.91-.07,2.07-.49,2.91-1.12,2.35-.84,4,1.02,5.9.67.67,1.26,1.65,1.44,2.6.98,5.09,1.86,10.21,2.7,15.34.35,2.25.07,4.42-.77,6.28Z"/>
  <path class="cls-7" d="m2066.5,2814.62l-32.96-12.25c-8.95-3.33-18.78-3.3-27.69.11l-19.2,7.34c-4.49,1.72-9.27,2.56-14,2.56-.74,0-1.44-.04-2.18-.07-.25,0-.49-.04-.7-.04-.18,0-.35-.04-.49-.04-.77-.07-1.51-.14-2.25-.25-.07-.04-.11-.04-.18-.04-.32-.07-.67-.11-.98-.18-.74-.11-1.47-.28-2.21-.42-.25-.07-.49-.14-.74-.21"/>
  <path class="cls-7" d="m1896.55,2807.28l-.6.18-9.58,2.95c-8.95,2.7-18.57,2.18-27.13-1.58l-8.84-3.83c-2.49-1.09-5.09-1.9-7.72-2.46-6.6-1.37-13.48-1.02-19.94,1.05l-34.36,11.02"/>
  <path class="cls-10" d="m1788.38,2814.62l34.34-11.01c9.08-2.91,18.91-2.42,27.66,1.38l8.86,3.85c8.57,3.73,18.19,4.28,27.12,1.55l25.57-7.8c7.49-2.29,15.49-2.28,22.98.02l26.21,8.04c8.37,2.57,17.35,2.27,25.53-.85l19.19-7.33c8.91-3.4,18.75-3.44,27.69-.12l32.96,12.26"/>
  <path class="cls-10" d="m1788.38,2821.98l34.34-11.01c9.08-2.91,18.91-2.42,27.66,1.38l8.86,3.85c8.57,3.73,18.19,4.28,27.12,1.55l25.57-7.8c7.49-2.29,15.49-2.28,22.98.02l26.21,8.04c8.37,2.57,17.35,2.27,25.53-.85l19.19-7.33c8.91-3.4,18.75-3.44,27.69-.12l32.96,12.26"/>
  <path class="cls-10" d="m1788.38,2829.34l34.34-11.01c9.08-2.91,18.91-2.42,27.66,1.38l8.86,3.85c8.57,3.73,18.19,4.28,27.12,1.55l25.57-7.8c7.49-2.29,15.49-2.28,22.98.02l26.21,8.04c8.37,2.57,17.35,2.27,25.53-.85l19.19-7.33c8.91-3.4,18.75-3.44,27.69-.12l32.96,12.26"/>
  <path class="cls-10" d="m1788.38,2836.7l34.34-11.01c9.08-2.91,18.91-2.42,27.66,1.38l8.86,3.85c8.57,3.73,18.19,4.28,27.12,1.55l25.57-7.8c7.49-2.29,15.49-2.28,22.98.02l26.21,8.04c8.37,2.57,17.35,2.27,25.53-.85l19.19-7.33c8.91-3.4,18.75-3.44,27.69-.12l32.96,12.26"/>
  <path class="cls-10" d="m1788.38,2844.06l34.34-11.01c9.08-2.91,18.91-2.42,27.66,1.38l8.86,3.85c8.57,3.73,18.19,4.28,27.12,1.55l25.57-7.8c7.49-2.29,15.49-2.28,22.98.02l26.21,8.04c8.37,2.57,17.35,2.27,25.53-.85l19.19-7.33c8.91-3.4,18.75-3.44,27.69-.12l32.96,12.26"/>
  <polyline class="cls-9" points="841.65 109.66 841.65 882.98 116.99 882.98"/>
  <polyline class="cls-8" points="1566.3 109.66 1566.3 882.98 841.65 882.98 841.65 109.66"/>
  <polyline class="cls-8" points="2290.96 882.98 1566.3 882.98 1566.3 109.66"/>
  <polyline class="cls-8" points="116.99 882.98 841.65 882.98 841.65 1656.29 116.99 1656.29"/>
  <rect class="cls-8" x="841.65" y="882.98" width="724.65" height="773.32"/>
  <polyline class="cls-8" points="2290.96 1656.29 1566.3 1656.29 1566.3 882.98 2290.96 882.98"/>
  <polyline class="cls-8" points="116.99 1656.29 841.65 1656.29 841.65 2429.61 116.99 2429.61"/>
  <rect class="cls-8" x="841.65" y="1656.29" width="724.65" height="773.32"/>
  <polyline class="cls-8" points="2290.96 2429.61 1566.3 2429.61 1566.3 1656.29 2290.96 1656.29"/>
  <polyline class="cls-8" points="116.99 2429.61 841.65 2429.61 841.65 3202.92"/>
  <polyline class="cls-8" points="841.65 3202.92 841.65 2429.61 1566.3 2429.61 1566.3 3202.92"/>
  <polyline class="cls-8" points="1566.3 3202.92 1566.3 2429.61 2290.96 2429.61"/>
  <text class="cls-14" transform="translate(1047.84 856.22)"><tspan x="0" y="0">Nige</tspan><tspan class="cls-15" x="180.2" y="0">r</tspan><tspan x="210.06" y="0">ia</tspan></text>
  <text class="cls-14" transform="translate(1724.19 856.22)"><tspan x="0" y="0">Indonesia </tspan></text>
  <text class="cls-14" transform="translate(345.36 1621.35)"><tspan x="0" y="0">China</tspan></text>
  <text class="cls-14" transform="translate(1035.48 1623.37)"><tspan class="cls-16" x="0" y="0">P</tspan><tspan x="53.43" y="0">akistán </tspan></text>
  <text class="cls-14" transform="translate(1681.78 1623.35)"><tspan x="0" y="0">Bangladesh</tspan></text>
  <text class="cls-14" transform="translate(314.45 2388.42)"><tspan x="0" y="0">Rusia</tspan></text>
  <text class="cls-14" transform="translate(1094.64 2388.12)"><tspan x="0" y="0">B</tspan><tspan class="cls-5" x="57.3" y="0">r</tspan><tspan x="84.21" y="0">asil </tspan></text>
  <text class="cls-14" transform="translate(1758.07 2387.02)"><tspan class="cls-13" x="0" y="0">T</tspan><tspan class="cls-4" x="41.42" y="0">ailandia </tspan></text>
  <text class="cls-14" transform="translate(264.29 3768.96)"><tspan x="0" y="0">República </tspan><tspan x="-53.47" y="91.2">Democ</tspan><tspan class="cls-5" x="226.29" y="91.2">r</tspan><tspan x="253.19" y="91.2">ática </tspan><tspan x="6.99" y="182.4">del </tspan><tspan class="cls-2" x="144.78" y="182.4">C</tspan><tspan x="197.68" y="182.4">ongo</tspan></text>
  <text class="cls-14" transform="translate(1033.48 3860.16)"><tspan class="cls-15" x="0" y="0">E</tspan><tspan x="50.24" y="0">stados </tspan><tspan x="25.46" y="91.2">Unidos</tspan></text>
  <text class="cls-14" transform="translate(1766.41 3934.92)"><tspan class="cls-3" x="0" y="0">V</tspan><tspan class="cls-1" x="51.68" y="0">ietnam </tspan></text>
  <text class="cls-14" transform="translate(275.18 3163.02)"><tspan x="0" y="0">Filipinas </tspan></text>
  <text class="cls-14" transform="translate(1055.31 3163.02)"><tspan x="0" y="0"> </tspan><tspan class="cls-15" x="19.91" y="0">E</tspan><tspan x="70.15" y="0">gip</tspan><tspan class="cls-11" x="194.18" y="0">t</tspan><tspan x="223.59" y="0">o </tspan></text>
  <text class="cls-14" transform="translate(1774.04 3163.03)"><tspan class="cls-12" x="0" y="0">T</tspan><tspan x="42.56" y="0">u</tspan><tspan class="cls-19" x="93.63" y="0">r</tspan><tspan x="123.12" y="0">quía</tspan></text>
  <text class="cls-14" transform="translate(348.61 856.22)"><tspan x="0" y="0" xml:space="preserve">India    </tspan></text>
  <line class="cls-8" x1="116.99" y1="3202.92" x2="2290.96" y2="3202.92"/>
  <polyline class="cls-8" points="841.65 3976.24 841.65 3202.92 1566.3 3202.92 1566.3 3976.24"/>
</svg>