<?xml version="1.0" encoding="UTF-8"?>
<svg id="Capa_1" data-name="Capa 1" xmlns="http://www.w3.org/2000/svg" viewBox="0 0 2394.49 379.24">
  <defs>
    <style>
      .cls-1 {
        letter-spacing: -.03em;
      }

      .cls-2 {
        stroke: #80afc1;
        stroke-width: 1.64px;
      }

      .cls-2, .cls-3 {
        fill: none;
        stroke-miterlimit: 10;
      }

      .cls-4 {
        letter-spacing: 0em;
      }

      .cls-5 {
        letter-spacing: -.02em;
      }

      .cls-6 {
        fill: #1d1d1b;
        font-family: Montserrat-Regular, Montserrat;
        font-size: 36px;
      }

      .cls-7 {
        letter-spacing: 0em;
      }

      .cls-3 {
        stroke: #000;
        stroke-width: .74px;
      }

      .cls-8 {
        letter-spacing: 0em;
      }

      .cls-9 {
        letter-spacing: -.02em;
      }

      .cls-10 {
        fill: #1e3659;
        stroke-width: 0px;
      }
    </style>
  </defs>
  <g>
    <path class="cls-3" d="m334.09,260.68s.04.01.05.01c.38.09.76.17,1.14.25.04,0,.08.01.12.02.43.09.85.17,1.28.24.1.02.2.04.29.05.35.06.71.12,1.07.17.44.06.88.12,1.32.17s.88.1,1.32.13c.35.04.7.06,1.04.08.13,0,.24.01.37.02.08,0,.17.01.25.01.33.01.67.03,1,.04.44.01.88.02,1.32.02,5.61,0,11.2-1.02,16.51-3.05l22.64-8.64c10.5-4.02,22.12-4.06,32.66-.14l38.87,14.45"/>
    <path class="cls-3" d="m127.36,264.55l40.5-12.99c10.71-3.44,22.3-2.85,32.62,1.63l10.45,4.55c10.11,4.4,21.45,5.05,31.99,1.83l11.31-3.45"/>
    <path class="cls-10" d="m333.22,260.44c-.7-.17-1.41-.37-2.11-.58l-30.92-9.48c-8.82-2.73-18.26-2.73-27.11-.04l-18.13,5.55c-.41-2.48-.83-4.97-1.2-7.45-.21-1.16.12-2.57.62-3.64,1.24-2.86.91-4.68-1.32-6.91-.79-.83-1.45-2.03-1.7-3.1-.95-4.93-1.82-9.89-2.53-14.86-.21-1.2.08-2.65.62-3.81,1.2-2.69.87-4.64-1.24-6.79-.87-.87-1.57-2.07-1.78-3.27-.99-4.8-1.86-9.6-2.53-14.45-.17-1.41.37-2.94.7-4.39.17-.91.54-1.82.87-2.9-.91-.99-1.82-1.9-2.53-2.94-.58-.79-1.16-1.78-1.32-2.73-1.66-9.27-3.27-18.55-4.8-27.86-.17-1.08.29-2.32.58-3.48.25-.95.62-1.86.99-2.94-.99-1.08-1.86-2.03-2.65-2.98-.46-.5-.95-1.08-1.08-1.7-.95-5.55-2.07-11.05-2.69-16.64-.62-5.55,1.86-10.31,5.09-14.53,3.48-4.47,7.24-8.73,11.09-12.87,1.41-1.49,2.19-2.81,1.49-4.8-.17-.5-.21-1.12-.33-1.78-.12.04-.25,0-.33-.04-.5-.25-.99-.75-1.16-1.24-.08-.21.66-.95,1.08-1.03.25-.04.46-.08.7-.12-2.73-.17-4.43-1.86-4.97-5.01-.62-3.56-1.24-7.12-1.82-10.68-.62-3.48,1.12-6.09,4.55-6.71,9.27-1.66,18.5-3.23,27.82-4.8,3.56-.58,6.04,1.28,6.66,4.84.62,3.6,1.24,7.24,1.86,10.85.46,2.73-.41,4.84-2.48,5.92.58-.17,1.08-.12,1.28.99.29,1.49-.7,1.53-1.61,1.57.12.29.25.58.25.83-.04,2.86,1.53,4.22,4.1,5.38,6.42,2.9,12.54,6.37,17.8,11.14,3.44,3.06,5.63,6.87,6.42,11.43.79,4.26,1.57,8.53,2.19,12.83.17,1.12-.25,2.36-.54,3.52-.25.95-.66,1.82-1.12,2.94,1.03,1.08,2.03,2.07,2.86,3.15.54.7.99,1.57,1.16,2.4,1.7,9.48,3.31,18.92,4.93,28.4.12.91-.17,1.95-.46,2.81-.37,1.2-.87,2.28-1.37,3.56.99,1.08,1.95,1.99,2.69,3.06.58.75,1.08,1.66,1.24,2.57.95,5.13,1.86,10.22,2.65,15.36.17,1.12-.17,2.44-.66,3.48-1.24,2.65-.87,4.68,1.2,6.79.83.79,1.53,1.95,1.74,3.06,1.03,5.01,1.9,10.1,2.65,15.19.17,1.08-.08,2.44-.58,3.44-1.32,2.77-.99,4.72,1.2,6.95.79.79,1.49,1.95,1.7,3.06,1.16,6,2.19,12.05,3.19,18.09.41,2.65.08,5.22-.91,7.41Z"/>
    <path class="cls-3" d="m455.37,264.55l-38.87-14.45c-10.56-3.93-22.15-3.89-32.66.12l-22.64,8.65c-5.3,2.03-10.93,3.02-16.52,3.02-.87,0-1.7-.04-2.57-.08-.29,0-.58-.04-.83-.04-.21,0-.41-.04-.58-.04-.91-.08-1.78-.17-2.65-.29-.08-.04-.12-.04-.21-.04-.37-.08-.79-.12-1.16-.21-.87-.12-1.74-.33-2.61-.5l-.87-.25"/>
    <path class="cls-3" d="m254.93,255.9l-.7.21-11.3,3.48c-10.56,3.19-21.9,2.57-32-1.86l-10.43-4.51c-2.94-1.28-6-2.24-9.11-2.9-7.78-1.61-15.9-1.2-23.51,1.24l-40.53,13"/>
    <path class="cls-2" d="m127.36,264.55l40.5-12.99c10.71-3.43,22.31-2.85,32.62,1.63l10.44,4.54c10.11,4.4,21.45,5.05,31.99,1.83l30.16-9.2c8.84-2.7,18.27-2.69,27.1.02l30.91,9.49c9.87,3.03,20.46,2.67,30.11-1.01l22.64-8.64c10.51-4.01,22.12-4.06,32.66-.14l38.87,14.46"/>
    <path class="cls-2" d="m127.36,269.62l40.5-12.99c10.71-3.43,22.31-2.85,32.62,1.63l10.44,4.54c10.11,4.4,21.45,5.05,31.99,1.83l30.16-9.2c8.84-2.7,18.27-2.69,27.1.02l30.91,9.49c9.87,3.03,20.46,2.67,30.11-1.01l22.64-8.64c10.51-4.01,22.12-4.06,32.66-.14l38.87,14.46"/>
    <path class="cls-2" d="m127.36,274.81l40.5-12.99c10.71-3.43,22.31-2.85,32.62,1.63l10.44,4.54c10.11,4.4,21.45,5.05,31.99,1.83l30.16-9.2c8.84-2.7,18.27-2.69,27.1.02l30.91,9.49c9.87,3.03,20.46,2.67,30.11-1.01l22.64-8.64c10.51-4.01,22.12-4.06,32.66-.14l38.87,14.46"/>
    <path class="cls-2" d="m127.36,280.45l40.5-12.99c10.71-3.43,22.31-2.85,32.62,1.63l10.44,4.54c10.11,4.4,21.45,5.05,31.99,1.83l30.16-9.2c8.84-2.7,18.27-2.69,27.1.02l30.91,9.49c9.87,3.03,20.46,2.67,30.11-1.01l22.64-8.64c10.51-4.01,22.12-4.06,32.66-.14l38.87,14.46"/>
    <path class="cls-2" d="m127.36,285.99l40.5-12.99c10.71-3.43,22.31-2.85,32.62,1.63l10.44,4.54c10.11,4.4,21.45,5.05,31.99,1.83l30.16-9.2c8.84-2.7,18.27-2.69,27.1.02l30.91,9.49c9.87,3.03,20.46,2.67,30.11-1.01l22.64-8.64c10.51-4.01,22.12-4.06,32.66-.14l38.87,14.46"/>
  </g>
  <g>
    <path class="cls-3" d="m790.91,260.68s.04.01.05.01c.38.09.76.17,1.14.25.04,0,.08.01.12.02.43.09.85.17,1.28.24.1.02.2.04.29.05.35.06.71.12,1.07.17.44.06.88.12,1.32.17s.88.1,1.32.13c.35.04.7.06,1.04.08.13,0,.24.01.37.02.08,0,.17.01.25.01.33.01.67.03,1,.04.44.01.88.02,1.32.02,5.61,0,11.2-1.02,16.51-3.05l22.64-8.64c10.5-4.02,22.12-4.06,32.66-.14l38.87,14.45"/>
    <path class="cls-3" d="m584.18,264.55l40.5-12.99c10.71-3.44,22.3-2.85,32.62,1.63l10.45,4.55c10.11,4.4,21.45,5.05,31.99,1.83l11.31-3.45"/>
    <path class="cls-10" d="m790.05,260.44c-.7-.17-1.41-.37-2.11-.58l-30.92-9.48c-8.82-2.73-18.26-2.73-27.11-.04l-18.13,5.55c-.41-2.48-.83-4.97-1.2-7.45-.21-1.16.12-2.57.62-3.64,1.24-2.86.91-4.68-1.32-6.91-.79-.83-1.45-2.03-1.7-3.1-.95-4.93-1.82-9.89-2.53-14.86-.21-1.2.08-2.65.62-3.81,1.2-2.69.87-4.64-1.24-6.79-.87-.87-1.57-2.07-1.78-3.27-.99-4.8-1.86-9.6-2.53-14.45-.17-1.41.37-2.94.7-4.39.17-.91.54-1.82.87-2.9-.91-.99-1.82-1.9-2.53-2.94-.58-.79-1.16-1.78-1.32-2.73-1.66-9.27-3.27-18.55-4.8-27.86-.17-1.08.29-2.32.58-3.48.25-.95.62-1.86.99-2.94-.99-1.08-1.86-2.03-2.65-2.98-.46-.5-.95-1.08-1.08-1.7-.95-5.55-2.07-11.05-2.69-16.64-.62-5.55,1.86-10.31,5.09-14.53,3.48-4.47,7.24-8.73,11.09-12.87,1.41-1.49,2.19-2.81,1.49-4.8-.17-.5-.21-1.12-.33-1.78-.12.04-.25,0-.33-.04-.5-.25-.99-.75-1.16-1.24-.08-.21.66-.95,1.08-1.03.25-.04.46-.08.7-.12-2.73-.17-4.43-1.86-4.97-5.01-.62-3.56-1.24-7.12-1.82-10.68-.62-3.48,1.12-6.09,4.55-6.71,9.27-1.66,18.5-3.23,27.82-4.8,3.56-.58,6.04,1.28,6.66,4.84.62,3.6,1.24,7.24,1.86,10.85.46,2.73-.41,4.84-2.48,5.92.58-.17,1.08-.12,1.28.99.29,1.49-.7,1.53-1.61,1.57.12.29.25.58.25.83-.04,2.86,1.53,4.22,4.1,5.38,6.42,2.9,12.54,6.37,17.8,11.14,3.44,3.06,5.63,6.87,6.42,11.43.79,4.26,1.57,8.53,2.19,12.83.17,1.12-.25,2.36-.54,3.52-.25.95-.66,1.82-1.12,2.94,1.03,1.08,2.03,2.07,2.86,3.15.54.7.99,1.57,1.16,2.4,1.7,9.48,3.31,18.92,4.93,28.4.12.91-.17,1.95-.46,2.81-.37,1.2-.87,2.28-1.37,3.56.99,1.08,1.95,1.99,2.69,3.06.58.75,1.08,1.66,1.24,2.57.95,5.13,1.86,10.22,2.65,15.36.17,1.12-.17,2.44-.66,3.48-1.24,2.65-.87,4.68,1.2,6.79.83.79,1.53,1.95,1.74,3.06,1.03,5.01,1.9,10.1,2.65,15.19.17,1.08-.08,2.44-.58,3.44-1.32,2.77-.99,4.72,1.2,6.95.79.79,1.49,1.95,1.7,3.06,1.16,6,2.19,12.05,3.19,18.09.41,2.65.08,5.22-.91,7.41Z"/>
    <path class="cls-3" d="m912.19,264.55l-38.87-14.45c-10.56-3.93-22.15-3.89-32.66.12l-22.64,8.65c-5.3,2.03-10.93,3.02-16.52,3.02-.87,0-1.7-.04-2.57-.08-.29,0-.58-.04-.83-.04-.21,0-.41-.04-.58-.04-.91-.08-1.78-.17-2.65-.29-.08-.04-.12-.04-.21-.04-.37-.08-.79-.12-1.16-.21-.87-.12-1.74-.33-2.61-.5l-.87-.25"/>
    <path class="cls-3" d="m711.75,255.9l-.7.21-11.3,3.48c-10.56,3.19-21.9,2.57-32-1.86l-10.43-4.51c-2.94-1.28-6-2.24-9.11-2.9-7.78-1.61-15.9-1.2-23.51,1.24l-40.53,13"/>
    <path class="cls-2" d="m584.18,264.55l40.5-12.99c10.71-3.43,22.31-2.85,32.62,1.63l10.44,4.54c10.11,4.4,21.45,5.05,31.99,1.83l30.16-9.2c8.84-2.7,18.27-2.69,27.1.02l30.91,9.49c9.87,3.03,20.46,2.67,30.11-1.01l22.64-8.64c10.51-4.01,22.12-4.06,32.66-.14l38.87,14.46"/>
    <path class="cls-2" d="m584.18,269.62l40.5-12.99c10.71-3.43,22.31-2.85,32.62,1.63l10.44,4.54c10.11,4.4,21.45,5.05,31.99,1.83l30.16-9.2c8.84-2.7,18.27-2.69,27.1.02l30.91,9.49c9.87,3.03,20.46,2.67,30.11-1.01l22.64-8.64c10.51-4.01,22.12-4.06,32.66-.14l38.87,14.46"/>
    <path class="cls-2" d="m584.18,274.81l40.5-12.99c10.71-3.43,22.31-2.85,32.62,1.63l10.44,4.54c10.11,4.4,21.45,5.05,31.99,1.83l30.16-9.2c8.84-2.7,18.27-2.69,27.1.02l30.91,9.49c9.87,3.03,20.46,2.67,30.11-1.01l22.64-8.64c10.51-4.01,22.12-4.06,32.66-.14l38.87,14.46"/>
    <path class="cls-2" d="m584.18,280.45l40.5-12.99c10.71-3.43,22.31-2.85,32.62,1.63l10.44,4.54c10.11,4.4,21.45,5.05,31.99,1.83l30.16-9.2c8.84-2.7,18.27-2.69,27.1.02l30.91,9.49c9.87,3.03,20.46,2.67,30.11-1.01l22.64-8.64c10.51-4.01,22.12-4.06,32.66-.14l38.87,14.46"/>
  </g>
  <g>
    <path class="cls-3" d="m1234.2,260.68s.04.01.05.01c.38.09.76.17,1.14.25.04,0,.08.01.12.02.43.09.85.17,1.28.24.1.02.2.04.29.05.35.06.71.12,1.07.17.44.06.88.12,1.32.17s.88.1,1.32.13c.35.04.7.06,1.04.08.13,0,.24.01.37.02.08,0,.17.01.25.01.33.01.67.03,1,.04.44.01.88.02,1.32.02,5.61,0,11.2-1.02,16.51-3.05l22.64-8.64c10.5-4.02,22.12-4.06,32.66-.14l38.87,14.45"/>
    <path class="cls-3" d="m1027.47,264.55l40.5-12.99c10.71-3.44,22.3-2.85,32.62,1.63l10.45,4.55c10.11,4.4,21.45,5.05,31.99,1.83l11.31-3.45"/>
    <path class="cls-10" d="m1233.34,260.44c-.7-.17-1.41-.37-2.11-.58l-30.92-9.48c-8.82-2.73-18.26-2.73-27.11-.04l-18.13,5.55c-.41-2.48-.83-4.97-1.2-7.45-.21-1.16.12-2.57.62-3.64,1.24-2.86.91-4.68-1.32-6.91-.79-.83-1.45-2.03-1.7-3.1-.95-4.93-1.82-9.89-2.53-14.86-.21-1.2.08-2.65.62-3.81,1.2-2.69.87-4.64-1.24-6.79-.87-.87-1.57-2.07-1.78-3.27-.99-4.8-1.86-9.6-2.53-14.45-.17-1.41.37-2.94.7-4.39.17-.91.54-1.82.87-2.9-.91-.99-1.82-1.9-2.53-2.94-.58-.79-1.16-1.78-1.32-2.73-1.66-9.27-3.27-18.55-4.8-27.86-.17-1.08.29-2.32.58-3.48.25-.95.62-1.86.99-2.94-.99-1.08-1.86-2.03-2.65-2.98-.46-.5-.95-1.08-1.08-1.7-.95-5.55-2.07-11.05-2.69-16.64-.62-5.55,1.86-10.31,5.09-14.53,3.48-4.47,7.24-8.73,11.09-12.87,1.41-1.49,2.19-2.81,1.49-4.8-.17-.5-.21-1.12-.33-1.78-.12.04-.25,0-.33-.04-.5-.25-.99-.75-1.16-1.24-.08-.21.66-.95,1.08-1.03.25-.04.46-.08.7-.12-2.73-.17-4.43-1.86-4.97-5.01-.62-3.56-1.24-7.12-1.82-10.68-.62-3.48,1.12-6.09,4.55-6.71,9.27-1.66,18.5-3.23,27.82-4.8,3.56-.58,6.04,1.28,6.66,4.84.62,3.6,1.24,7.24,1.86,10.85.46,2.73-.41,4.84-2.48,5.92.58-.17,1.08-.12,1.28.99.29,1.49-.7,1.53-1.61,1.57.12.29.25.58.25.83-.04,2.86,1.53,4.22,4.1,5.38,6.42,2.9,12.54,6.37,17.8,11.14,3.44,3.06,5.63,6.87,6.42,11.43.79,4.26,1.57,8.53,2.19,12.83.17,1.12-.25,2.36-.54,3.52-.25.95-.66,1.82-1.12,2.94,1.03,1.08,2.03,2.07,2.86,3.15.54.7.99,1.57,1.16,2.4,1.7,9.48,3.31,18.92,4.93,28.4.12.91-.17,1.95-.46,2.81-.37,1.2-.87,2.28-1.37,3.56.99,1.08,1.95,1.99,2.69,3.06.58.75,1.08,1.66,1.24,2.57.95,5.13,1.86,10.22,2.65,15.36.17,1.12-.17,2.44-.66,3.48-1.24,2.65-.87,4.68,1.2,6.79.83.79,1.53,1.95,1.74,3.06,1.03,5.01,1.9,10.1,2.65,15.19.17,1.08-.08,2.44-.58,3.44-1.32,2.77-.99,4.72,1.2,6.95.79.79,1.49,1.95,1.7,3.06,1.16,6,2.19,12.05,3.19,18.09.41,2.65.08,5.22-.91,7.41Z"/>
    <path class="cls-3" d="m1355.49,264.55l-38.87-14.45c-10.56-3.93-22.15-3.89-32.66.12l-22.64,8.65c-5.3,2.03-10.93,3.02-16.52,3.02-.87,0-1.7-.04-2.57-.08-.29,0-.58-.04-.83-.04-.21,0-.41-.04-.58-.04-.91-.08-1.78-.17-2.65-.29-.08-.04-.12-.04-.21-.04-.37-.08-.79-.12-1.16-.21-.87-.12-1.74-.33-2.61-.5l-.87-.25"/>
    <path class="cls-3" d="m1155.05,255.9l-.7.21-11.3,3.48c-10.56,3.19-21.9,2.57-32-1.86l-10.43-4.51c-2.94-1.28-6-2.24-9.11-2.9-7.78-1.61-15.9-1.2-23.51,1.24l-40.53,13"/>
    <path class="cls-2" d="m1027.47,264.55l40.5-12.99c10.71-3.43,22.31-2.85,32.62,1.63l10.44,4.54c10.11,4.4,21.45,5.05,31.99,1.83l30.16-9.2c8.84-2.7,18.27-2.69,27.1.02l30.91,9.49c9.87,3.03,20.46,2.67,30.11-1.01l22.64-8.64c10.51-4.01,22.12-4.06,32.66-.14l38.87,14.46"/>
    <path class="cls-2" d="m1027.47,269.62l40.5-12.99c10.71-3.43,22.31-2.85,32.62,1.63l10.44,4.54c10.11,4.4,21.45,5.05,31.99,1.83l30.16-9.2c8.84-2.7,18.27-2.69,27.1.02l30.91,9.49c9.87,3.03,20.46,2.67,30.11-1.01l22.64-8.64c10.51-4.01,22.12-4.06,32.66-.14l38.87,14.46"/>
    <path class="cls-2" d="m1027.47,274.81l40.5-12.99c10.71-3.43,22.31-2.85,32.62,1.63l10.44,4.54c10.11,4.4,21.45,5.05,31.99,1.83l30.16-9.2c8.84-2.7,18.27-2.69,27.1.02l30.91,9.49c9.87,3.03,20.46,2.67,30.11-1.01l22.64-8.64c10.51-4.01,22.12-4.06,32.66-.14l38.87,14.46"/>
  </g>
  <g>
    <path class="cls-3" d="m1664.02,260.68s.04.01.05.01c.38.09.76.17,1.14.25.04,0,.08.01.12.02.43.09.85.17,1.28.24.1.02.2.04.29.05.35.06.71.12,1.07.17.44.06.88.12,1.32.17s.88.1,1.32.13c.35.04.7.06,1.04.08.13,0,.24.01.37.02.08,0,.17.01.25.01.33.01.67.03,1,.04.44.01.88.02,1.32.02,5.61,0,11.2-1.02,16.51-3.05l22.64-8.64c10.5-4.02,22.12-4.06,32.66-.14l38.87,14.45"/>
    <path class="cls-3" d="m1457.29,264.55l40.5-12.99c10.71-3.44,22.3-2.85,32.62,1.63l10.45,4.55c10.11,4.4,21.45,5.05,31.99,1.83l11.31-3.45"/>
    <path class="cls-10" d="m1663.16,260.44c-.7-.17-1.41-.37-2.11-.58l-30.92-9.48c-8.82-2.73-18.26-2.73-27.11-.04l-18.13,5.55c-.41-2.48-.83-4.97-1.2-7.45-.21-1.16.12-2.57.62-3.64,1.24-2.86.91-4.68-1.32-6.91-.79-.83-1.45-2.03-1.7-3.1-.95-4.93-1.82-9.89-2.53-14.86-.21-1.2.08-2.65.62-3.81,1.2-2.69.87-4.64-1.24-6.79-.87-.87-1.57-2.07-1.78-3.27-.99-4.8-1.86-9.6-2.53-14.45-.17-1.41.37-2.94.7-4.39.17-.91.54-1.82.87-2.9-.91-.99-1.82-1.9-2.53-2.94-.58-.79-1.16-1.78-1.32-2.73-1.66-9.27-3.27-18.55-4.8-27.86-.17-1.08.29-2.32.58-3.48.25-.95.62-1.86.99-2.94-.99-1.08-1.86-2.03-2.65-2.98-.46-.5-.95-1.08-1.08-1.7-.95-5.55-2.07-11.05-2.69-16.64-.62-5.55,1.86-10.31,5.09-14.53,3.48-4.47,7.24-8.73,11.09-12.87,1.41-1.49,2.19-2.81,1.49-4.8-.17-.5-.21-1.12-.33-1.78-.12.04-.25,0-.33-.04-.5-.25-.99-.75-1.16-1.24-.08-.21.66-.95,1.08-1.03.25-.04.46-.08.7-.12-2.73-.17-4.43-1.86-4.97-5.01-.62-3.56-1.24-7.12-1.82-10.68-.62-3.48,1.12-6.09,4.55-6.71,9.27-1.66,18.5-3.23,27.82-4.8,3.56-.58,6.04,1.28,6.66,4.84.62,3.6,1.24,7.24,1.86,10.85.46,2.73-.41,4.84-2.48,5.92.58-.17,1.08-.12,1.28.99.29,1.49-.7,1.53-1.61,1.57.12.29.25.58.25.83-.04,2.86,1.53,4.22,4.1,5.38,6.42,2.9,12.54,6.37,17.8,11.14,3.44,3.06,5.63,6.87,6.42,11.43.79,4.26,1.57,8.53,2.19,12.83.17,1.12-.25,2.36-.54,3.52-.25.95-.66,1.82-1.12,2.94,1.03,1.08,2.03,2.07,2.86,3.15.54.7.99,1.57,1.16,2.4,1.7,9.48,3.31,18.92,4.93,28.4.12.91-.17,1.95-.46,2.81-.37,1.2-.87,2.28-1.37,3.56.99,1.08,1.95,1.99,2.69,3.06.58.75,1.08,1.66,1.24,2.57.95,5.13,1.86,10.22,2.65,15.36.17,1.12-.17,2.44-.66,3.48-1.24,2.65-.87,4.68,1.2,6.79.83.79,1.53,1.95,1.74,3.06,1.03,5.01,1.9,10.1,2.65,15.19.17,1.08-.08,2.44-.58,3.44-1.32,2.77-.99,4.72,1.2,6.95.79.79,1.49,1.95,1.7,3.06,1.16,6,2.19,12.05,3.19,18.09.41,2.65.08,5.22-.91,7.41Z"/>
    <path class="cls-3" d="m1785.3,264.55l-38.87-14.45c-10.56-3.93-22.15-3.89-32.66.12l-22.64,8.65c-5.3,2.03-10.93,3.02-16.52,3.02-.87,0-1.7-.04-2.57-.08-.29,0-.58-.04-.83-.04-.21,0-.41-.04-.58-.04-.91-.08-1.78-.17-2.65-.29-.08-.04-.12-.04-.21-.04-.37-.08-.79-.12-1.16-.21-.87-.12-1.74-.33-2.61-.5l-.87-.25"/>
    <path class="cls-3" d="m1584.86,255.9l-.7.21-11.3,3.48c-10.56,3.19-21.9,2.57-32-1.86l-10.43-4.51c-2.94-1.28-6-2.24-9.11-2.9-7.78-1.61-15.9-1.2-23.51,1.24l-40.53,13"/>
    <path class="cls-2" d="m1457.29,264.55l40.5-12.99c10.71-3.43,22.31-2.85,32.62,1.63l10.44,4.54c10.11,4.4,21.45,5.05,31.99,1.83l30.16-9.2c8.84-2.7,18.27-2.69,27.1.02l30.91,9.49c9.87,3.03,20.46,2.67,30.11-1.01l22.64-8.64c10.51-4.01,22.12-4.06,32.66-.14l38.87,14.46"/>
    <path class="cls-2" d="m1457.29,269.62l40.5-12.99c10.71-3.43,22.31-2.85,32.62,1.63l10.44,4.54c10.11,4.4,21.45,5.05,31.99,1.83l30.16-9.2c8.84-2.7,18.27-2.69,27.1.02l30.91,9.49c9.87,3.03,20.46,2.67,30.11-1.01l22.64-8.64c10.51-4.01,22.12-4.06,32.66-.14l38.87,14.46"/>
  </g>
  <g>
    <path class="cls-3" d="m2132.77,260.68s.04.01.05.01c.38.09.76.17,1.14.25.04,0,.08.01.12.02.43.09.85.17,1.28.24.1.02.2.04.29.05.35.06.71.12,1.07.17.44.06.88.12,1.32.17s.88.1,1.32.13c.35.04.7.06,1.04.08.13,0,.24.01.37.02.08,0,.17.01.25.01.33.01.67.03,1,.04.44.01.88.02,1.32.02,5.61,0,11.2-1.02,16.51-3.05l22.64-8.64c10.5-4.02,22.12-4.06,32.66-.14l38.87,14.45"/>
    <path class="cls-3" d="m1926.04,264.55l40.5-12.99c10.71-3.44,22.3-2.85,32.62,1.63l10.45,4.55c10.11,4.4,21.45,5.05,31.99,1.83l11.31-3.45"/>
    <path class="cls-10" d="m2131.91,260.44c-.7-.17-1.41-.37-2.11-.58l-30.92-9.48c-8.82-2.73-18.26-2.73-27.11-.04l-18.13,5.55c-.41-2.48-.83-4.97-1.2-7.45-.21-1.16.12-2.57.62-3.64,1.24-2.86.91-4.68-1.32-6.91-.79-.83-1.45-2.03-1.7-3.1-.95-4.93-1.82-9.89-2.53-14.86-.21-1.2.08-2.65.62-3.81,1.2-2.69.87-4.64-1.24-6.79-.87-.87-1.57-2.07-1.78-3.27-.99-4.8-1.86-9.6-2.53-14.45-.17-1.41.37-2.94.7-4.39.17-.91.54-1.82.87-2.9-.91-.99-1.82-1.9-2.53-2.94-.58-.79-1.16-1.78-1.32-2.73-1.66-9.27-3.27-18.55-4.8-27.86-.17-1.08.29-2.32.58-3.48.25-.95.62-1.86.99-2.94-.99-1.08-1.86-2.03-2.65-2.98-.46-.5-.95-1.08-1.08-1.7-.95-5.55-2.07-11.05-2.69-16.64-.62-5.55,1.86-10.31,5.09-14.53,3.48-4.47,7.24-8.73,11.09-12.87,1.41-1.49,2.19-2.81,1.49-4.8-.17-.5-.21-1.12-.33-1.78-.12.04-.25,0-.33-.04-.5-.25-.99-.75-1.16-1.24-.08-.21.66-.95,1.08-1.03.25-.04.46-.08.7-.12-2.73-.17-4.43-1.86-4.97-5.01-.62-3.56-1.24-7.12-1.82-10.68-.62-3.48,1.12-6.09,4.55-6.71,9.27-1.66,18.5-3.23,27.82-4.8,3.56-.58,6.04,1.28,6.66,4.84.62,3.6,1.24,7.24,1.86,10.85.46,2.73-.41,4.84-2.48,5.92.58-.17,1.08-.12,1.28.99.29,1.49-.7,1.53-1.61,1.57.12.29.25.58.25.83-.04,2.86,1.53,4.22,4.1,5.38,6.42,2.9,12.54,6.37,17.8,11.14,3.44,3.06,5.63,6.87,6.42,11.43.79,4.26,1.57,8.53,2.19,12.83.17,1.12-.25,2.36-.54,3.52-.25.95-.66,1.82-1.12,2.94,1.03,1.08,2.03,2.07,2.86,3.15.54.7.99,1.57,1.16,2.4,1.7,9.48,3.31,18.92,4.93,28.4.12.91-.17,1.95-.46,2.81-.37,1.2-.87,2.28-1.37,3.56.99,1.08,1.95,1.99,2.69,3.06.58.75,1.08,1.66,1.24,2.57.95,5.13,1.86,10.22,2.65,15.36.17,1.12-.17,2.44-.66,3.48-1.24,2.65-.87,4.68,1.2,6.79.83.79,1.53,1.95,1.74,3.06,1.03,5.01,1.9,10.1,2.65,15.19.17,1.08-.08,2.44-.58,3.44-1.32,2.77-.99,4.72,1.2,6.95.79.79,1.49,1.95,1.7,3.06,1.16,6,2.19,12.05,3.19,18.09.41,2.65.08,5.22-.91,7.41Z"/>
    <path class="cls-3" d="m2254.05,264.55l-38.87-14.45c-10.56-3.93-22.15-3.89-32.66.12l-22.64,8.65c-5.3,2.03-10.93,3.02-16.52,3.02-.87,0-1.7-.04-2.57-.08-.29,0-.58-.04-.83-.04-.21,0-.41-.04-.58-.04-.91-.08-1.78-.17-2.65-.29-.08-.04-.12-.04-.21-.04-.37-.08-.79-.12-1.16-.21-.87-.12-1.74-.33-2.61-.5l-.87-.25"/>
    <path class="cls-3" d="m2053.62,255.9l-.7.21-11.3,3.48c-10.56,3.19-21.9,2.57-32-1.86l-10.43-4.51c-2.94-1.28-6-2.24-9.11-2.9-7.78-1.61-15.9-1.2-23.51,1.24l-40.53,13"/>
    <path class="cls-2" d="m1926.04,264.55l40.5-12.99c10.71-3.43,22.31-2.85,32.62,1.63l10.44,4.54c10.11,4.4,21.45,5.05,31.99,1.83l30.16-9.2c8.84-2.7,18.27-2.69,27.1.02l30.91,9.49c9.87,3.03,20.46,2.67,30.11-1.01l22.64-8.64c10.51-4.01,22.12-4.06,32.66-.14l38.87,14.46"/>
  </g>
  <text class="cls-6" transform="translate(2055.19 326.28)"><tspan x="0" y="0">0</tspan><tspan class="cls-1" x="23.83" y="0">-</tspan><tspan class="cls-8" x="37.22" y="0">2</tspan><tspan x="57.6" y="0">0 </tspan></text>
  <text class="cls-6" transform="translate(1586.02 319.18)"><tspan x="0" y="0">21-40</tspan></text>
  <text class="cls-6" transform="translate(1146.33 318.97)"><tspan class="cls-5" x="0" y="0">4</tspan><tspan x="22.9" y="0">1-60</tspan></text>
  <text class="cls-6" transform="translate(711.04 326.71)"><tspan x="0" y="0">61-80</tspan></text>
  <text class="cls-6" transform="translate(245.95 326.49)"><tspan x="0" y="0">81</tspan><tspan class="cls-9" x="35.96" y="0">-</tspan><tspan x="49.89" y="0">10</tspan><tspan class="cls-4" x="86.72" y="0">0</tspan><tspan class="cls-7" x="110.84" y="0">+</tspan></text>
</svg>