<?xml version="1.0" encoding="UTF-8"?>
<svg id="Capa_1" data-name="Capa 1" xmlns="http://www.w3.org/2000/svg" viewBox="0 0 2394.49 365.18">
  <defs>
    <style>
      .cls-1 {
        letter-spacing: -.02em;
      }

      .cls-2 {
        stroke-width: 1.64px;
      }

      .cls-2, .cls-3, .cls-4, .cls-5, .cls-6, .cls-7, .cls-8, .cls-9, .cls-10, .cls-11 {
        fill: none;
        stroke-miterlimit: 10;
      }

      .cls-2, .cls-3, .cls-4, .cls-8, .cls-9 {
        stroke: #80afc1;
      }

      .cls-3 {
        stroke-width: .66px;
      }

      .cls-4 {
        stroke-width: 1.28px;
      }

      .cls-5 {
        stroke-width: .46px;
      }

      .cls-5, .cls-6, .cls-7, .cls-10, .cls-11 {
        stroke: #000;
      }

      .cls-12 {
        fill: #1d1d1b;
        font-family: Montserrat-Regular, Montserrat;
        font-size: 36px;
      }

      .cls-6 {
        stroke-width: .36px;
      }

      .cls-7 {
        stroke-width: .74px;
      }

      .cls-13 {
        letter-spacing: 0em;
      }

      .cls-8 {
        stroke-width: .81px;
      }

      .cls-9 {
        stroke-width: 1.02px;
      }

      .cls-10 {
        stroke-width: .29px;
      }

      .cls-11 {
        stroke-width: .57px;
      }

      .cls-14 {
        letter-spacing: -.02em;
      }

      .cls-15 {
        letter-spacing: 0em;
      }

      .cls-16 {
        fill: #1e3659;
        stroke-width: 0px;
      }
    </style>
  </defs>
  <g>
    <path class="cls-7" d="m375.63,236.96s.04.01.05.01c.38.09.76.17,1.14.25.04,0,.08.01.12.02.43.09.85.17,1.28.24.1.02.2.04.29.05.35.06.71.12,1.07.17.44.06.88.12,1.32.17s.88.1,1.32.13c.35.04.7.06,1.04.08.13,0,.24.01.37.02.08,0,.17.01.25.01.33.01.67.03,1,.04.44.01.88.02,1.32.02,5.61,0,11.2-1.02,16.51-3.05l22.64-8.64c10.5-4.02,22.12-4.06,32.66-.14l38.87,14.45"/>
    <path class="cls-7" d="m168.9,240.83l40.5-12.99c10.71-3.44,22.3-2.85,32.62,1.63l10.45,4.55c10.11,4.4,21.45,5.05,31.99,1.83l11.31-3.45"/>
    <path class="cls-16" d="m374.77,236.72c-.7-.17-1.41-.37-2.11-.58l-30.92-9.48c-8.82-2.73-18.26-2.73-27.11-.04l-18.13,5.55c-.41-2.48-.83-4.97-1.2-7.45-.21-1.16.12-2.57.62-3.64,1.24-2.86.91-4.68-1.32-6.91-.79-.83-1.45-2.03-1.7-3.1-.95-4.93-1.82-9.89-2.53-14.86-.21-1.2.08-2.65.62-3.81,1.2-2.69.87-4.64-1.24-6.79-.87-.87-1.57-2.07-1.78-3.27-.99-4.8-1.86-9.6-2.53-14.45-.17-1.41.37-2.94.7-4.39.17-.91.54-1.82.87-2.9-.91-.99-1.82-1.9-2.53-2.94-.58-.79-1.16-1.78-1.32-2.73-1.66-9.27-3.27-18.55-4.8-27.86-.17-1.08.29-2.32.58-3.48.25-.95.62-1.86.99-2.94-.99-1.08-1.86-2.03-2.65-2.98-.46-.5-.95-1.08-1.08-1.7-.95-5.55-2.07-11.05-2.69-16.64-.62-5.55,1.86-10.31,5.09-14.53,3.48-4.47,7.24-8.73,11.09-12.87,1.41-1.49,2.19-2.81,1.49-4.8-.17-.5-.21-1.12-.33-1.78-.12.04-.25,0-.33-.04-.5-.25-.99-.75-1.16-1.24-.08-.21.66-.95,1.08-1.03.25-.04.46-.08.7-.12-2.73-.17-4.43-1.86-4.97-5.01-.62-3.56-1.24-7.12-1.82-10.68-.62-3.48,1.12-6.09,4.55-6.71,9.27-1.66,18.5-3.23,27.82-4.8,3.56-.58,6.04,1.28,6.66,4.84.62,3.6,1.24,7.24,1.86,10.85.46,2.73-.41,4.84-2.48,5.92.58-.17,1.08-.12,1.28.99.29,1.49-.7,1.53-1.61,1.57.12.29.25.58.25.83-.04,2.86,1.53,4.22,4.1,5.38,6.42,2.9,12.54,6.37,17.8,11.14,3.44,3.06,5.63,6.87,6.42,11.43.79,4.26,1.57,8.53,2.19,12.83.17,1.12-.25,2.36-.54,3.52-.25.95-.66,1.82-1.12,2.94,1.03,1.08,2.03,2.07,2.86,3.15.54.7.99,1.57,1.16,2.4,1.7,9.48,3.31,18.92,4.93,28.4.12.91-.17,1.95-.46,2.81-.37,1.2-.87,2.28-1.37,3.56.99,1.08,1.95,1.99,2.69,3.06.58.75,1.08,1.66,1.24,2.57.95,5.13,1.86,10.22,2.65,15.36.17,1.12-.17,2.44-.66,3.48-1.24,2.65-.87,4.68,1.2,6.79.83.79,1.53,1.95,1.74,3.06,1.03,5.01,1.9,10.1,2.65,15.19.17,1.08-.08,2.44-.58,3.44-1.32,2.77-.99,4.72,1.2,6.95.79.79,1.49,1.95,1.7,3.06,1.16,6,2.19,12.05,3.19,18.09.41,2.65.08,5.22-.91,7.41Z"/>
    <path class="cls-7" d="m496.92,240.83l-38.87-14.45c-10.56-3.93-22.15-3.89-32.66.12l-22.64,8.65c-5.3,2.03-10.93,3.02-16.52,3.02-.87,0-1.7-.04-2.57-.08-.29,0-.58-.04-.83-.04-.21,0-.41-.04-.58-.04-.91-.08-1.78-.17-2.65-.29-.08-.04-.12-.04-.21-.04-.37-.08-.79-.12-1.16-.21-.87-.12-1.74-.33-2.61-.5l-.87-.25"/>
    <path class="cls-7" d="m296.48,232.18l-.7.21-11.3,3.48c-10.56,3.19-21.9,2.57-32-1.86l-10.43-4.51c-2.94-1.28-6-2.24-9.11-2.9-7.78-1.61-15.9-1.2-23.51,1.24l-40.53,13"/>
    <path class="cls-2" d="m168.9,240.84l40.5-12.99c10.71-3.43,22.31-2.85,32.62,1.63l10.44,4.54c10.11,4.4,21.45,5.05,31.99,1.83l30.16-9.2c8.84-2.7,18.27-2.69,27.1.02l30.91,9.49c9.87,3.03,20.46,2.67,30.11-1.01l22.64-8.64c10.51-4.01,22.12-4.06,32.66-.14l38.87,14.46"/>
  </g>
  <g>
    <path class="cls-11" d="m841.85,234.87s.03.01.04.01c.3.07.59.13.89.2.03,0,.06.01.09.02.33.07.67.13,1,.19.08.02.16.03.23.04.28.05.55.09.83.13.34.05.69.09,1.03.13s.69.07,1.03.1c.27.03.55.05.82.06.1,0,.19.01.29.02.06,0,.13.01.2.01.26.01.52.02.78.03.34.01.69.02,1.03.02,4.38,0,8.74-.8,12.89-2.38l17.67-6.74c8.2-3.13,17.26-3.17,25.49-.11l30.34,11.28"/>
    <path class="cls-11" d="m680.49,237.89l31.61-10.14c8.36-2.68,17.41-2.23,25.46,1.27l8.15,3.55c7.89,3.43,16.74,3.94,24.97,1.43l8.82-2.69"/>
    <path class="cls-16" d="m841.17,234.68c-.55-.13-1.1-.29-1.65-.45l-24.14-7.4c-6.88-2.13-14.25-2.13-21.16-.03l-14.15,4.33c-.32-1.94-.65-3.88-.94-5.82-.16-.9.1-2,.48-2.84.97-2.23.71-3.65-1.03-5.4-.61-.65-1.13-1.58-1.32-2.42-.74-3.85-1.42-7.72-1.97-11.6-.16-.94.06-2.07.48-2.97.94-2.1.68-3.62-.97-5.3-.68-.68-1.23-1.62-1.39-2.55-.78-3.75-1.45-7.5-1.97-11.28-.13-1.1.29-2.29.55-3.42.13-.71.42-1.42.68-2.26-.71-.78-1.42-1.49-1.97-2.29-.45-.61-.9-1.39-1.03-2.13-1.29-7.24-2.55-14.48-3.75-21.75-.13-.84.23-1.81.45-2.71.19-.74.48-1.45.78-2.29-.78-.84-1.45-1.58-2.07-2.33-.36-.39-.74-.84-.84-1.32-.74-4.33-1.62-8.63-2.1-12.99-.48-4.33,1.45-8.05,3.97-11.34,2.71-3.49,5.65-6.82,8.66-10.05,1.1-1.16,1.71-2.2,1.16-3.75-.13-.39-.16-.87-.26-1.39-.1.03-.19,0-.26-.03-.39-.19-.78-.58-.9-.97-.06-.16.52-.74.84-.81.19-.03.36-.06.55-.1-2.13-.13-3.46-1.45-3.88-3.91-.48-2.78-.97-5.56-1.42-8.34-.48-2.71.87-4.75,3.55-5.23,7.24-1.29,14.44-2.52,21.71-3.75,2.78-.45,4.72,1,5.2,3.78.48,2.81.97,5.65,1.45,8.47.36,2.13-.32,3.78-1.94,4.62.45-.13.84-.1,1,.78.23,1.16-.55,1.2-1.26,1.23.1.23.19.45.19.65-.03,2.23,1.2,3.3,3.2,4.2,5.01,2.26,9.79,4.98,13.89,8.69,2.68,2.39,4.39,5.36,5.01,8.92.61,3.33,1.23,6.66,1.71,10.02.13.87-.19,1.84-.42,2.75-.19.74-.52,1.42-.87,2.29.81.84,1.58,1.62,2.23,2.46.42.55.78,1.23.9,1.87,1.32,7.4,2.58,14.77,3.85,22.17.1.71-.13,1.52-.36,2.2-.29.94-.68,1.78-1.07,2.78.78.84,1.52,1.55,2.1,2.39.45.58.84,1.29.97,2,.74,4.01,1.45,7.98,2.07,11.99.13.87-.13,1.91-.52,2.71-.97,2.07-.68,3.65.94,5.3.65.61,1.2,1.52,1.36,2.39.81,3.91,1.49,7.88,2.07,11.86.13.84-.06,1.91-.45,2.68-1.03,2.16-.78,3.68.94,5.43.61.61,1.16,1.52,1.32,2.39.9,4.68,1.71,9.4,2.49,14.12.32,2.07.06,4.07-.71,5.78Z"/>
    <path class="cls-11" d="m936.51,237.89l-30.34-11.28c-8.24-3.07-17.29-3.04-25.49.1l-17.67,6.75c-4.14,1.58-8.53,2.36-12.89,2.36-.68,0-1.32-.03-2-.06-.23,0-.45-.03-.65-.03-.16,0-.32-.03-.45-.03-.71-.06-1.39-.13-2.07-.23-.06-.03-.1-.03-.16-.03-.29-.06-.61-.1-.9-.16-.68-.1-1.36-.26-2.04-.39l-.68-.19"/>
    <path class="cls-11" d="m780.06,231.14l-.55.16-8.82,2.71c-8.24,2.49-17.09,2-24.98-1.45l-8.14-3.52c-2.29-1-4.69-1.74-7.11-2.26-6.07-1.26-12.41-.94-18.35.97l-31.63,10.15"/>
    <path class="cls-4" d="m680.49,237.89l31.61-10.14c8.36-2.68,17.41-2.23,25.46,1.27l8.15,3.55c7.89,3.43,16.74,3.94,24.97,1.43l23.54-7.18c6.9-2.1,14.26-2.1,21.16.02l24.12,7.4c7.7,2.36,15.97,2.09,23.5-.78l17.67-6.74c8.2-3.13,17.26-3.17,25.49-.11l30.34,11.28"/>
  </g>
  <g>
    <path class="cls-5" d="m1233.39,237.16s.02,0,.03,0c.24.05.47.11.71.16.02,0,.05,0,.07.01.26.05.53.11.79.15.06.01.12.02.18.03.22.04.44.07.66.11.27.04.55.07.82.11s.55.06.82.08c.21.02.43.04.65.05.08,0,.15,0,.23.01.05,0,.11,0,.16,0,.21,0,.42.02.62.02.27,0,.55.01.82.01,3.48,0,6.95-.63,10.25-1.89l14.06-5.36c6.52-2.49,13.73-2.52,20.28-.09l24.13,8.97"/>
    <path class="cls-5" d="m1105.05,239.55l25.14-8.06c6.65-2.13,13.85-1.77,20.25,1.01l6.48,2.82c6.27,2.73,13.32,3.13,19.86,1.14l7.02-2.14"/>
    <path class="cls-16" d="m1232.85,237.01c-.44-.1-.87-.23-1.31-.36l-19.2-5.88c-5.47-1.7-11.33-1.7-16.83-.03l-11.26,3.44c-.26-1.54-.51-3.08-.75-4.63-.13-.72.08-1.59.39-2.26.77-1.77.57-2.9-.82-4.29-.49-.51-.9-1.26-1.05-1.93-.59-3.06-1.13-6.14-1.57-9.23-.13-.75.05-1.64.39-2.36.75-1.67.54-2.88-.77-4.21-.54-.54-.98-1.28-1.11-2.03-.62-2.98-1.16-5.96-1.57-8.97-.1-.87.23-1.82.44-2.72.1-.57.33-1.13.54-1.8-.57-.62-1.13-1.18-1.57-1.82-.36-.49-.72-1.11-.82-1.7-1.03-5.76-2.03-11.51-2.98-17.29-.1-.67.18-1.44.36-2.16.15-.59.39-1.16.62-1.82-.62-.67-1.16-1.26-1.64-1.85-.28-.31-.59-.67-.67-1.05-.59-3.44-1.28-6.86-1.67-10.33-.39-3.44,1.16-6.4,3.16-9.02,2.16-2.78,4.5-5.42,6.89-7.99.87-.93,1.36-1.75.93-2.98-.1-.31-.13-.69-.21-1.11-.08.03-.15,0-.21-.03-.31-.15-.62-.46-.72-.77-.05-.13.41-.59.67-.64.15-.03.28-.05.44-.08-1.7-.1-2.75-1.16-3.08-3.11-.39-2.21-.77-4.42-1.13-6.63-.39-2.16.69-3.78,2.83-4.16,5.76-1.03,11.49-2,17.27-2.98,2.21-.36,3.75.8,4.14,3.01.39,2.24.77,4.5,1.16,6.73.28,1.7-.26,3.01-1.54,3.67.36-.1.67-.08.8.62.18.93-.44.95-1,.98.08.18.15.36.15.51-.03,1.77.95,2.62,2.54,3.34,3.98,1.8,7.79,3.96,11.05,6.91,2.13,1.9,3.49,4.27,3.98,7.09.49,2.65.98,5.29,1.36,7.97.1.69-.15,1.46-.33,2.18-.15.59-.41,1.13-.69,1.82.64.67,1.26,1.28,1.77,1.95.33.44.62.98.72,1.49,1.05,5.88,2.06,11.74,3.06,17.63.08.57-.1,1.21-.28,1.75-.23.75-.54,1.41-.85,2.21.62.67,1.21,1.23,1.67,1.9.36.46.67,1.03.77,1.59.59,3.19,1.16,6.35,1.64,9.53.1.69-.1,1.52-.41,2.16-.77,1.64-.54,2.9.75,4.21.51.49.95,1.21,1.08,1.9.64,3.11,1.18,6.27,1.64,9.43.1.67-.05,1.52-.36,2.13-.82,1.72-.62,2.93.75,4.32.49.49.93,1.21,1.05,1.9.72,3.73,1.36,7.48,1.98,11.23.26,1.64.05,3.24-.57,4.6Z"/>
    <path class="cls-5" d="m1308.68,239.56l-24.13-8.97c-6.55-2.44-13.75-2.42-20.28.08l-14.06,5.37c-3.29,1.26-6.78,1.88-10.25,1.88-.54,0-1.05-.03-1.59-.05-.18,0-.36-.03-.51-.03-.13,0-.26-.03-.36-.03-.57-.05-1.11-.1-1.64-.18-.05-.03-.08-.03-.13-.03-.23-.05-.49-.08-.72-.13-.54-.08-1.08-.21-1.62-.31l-.54-.15"/>
    <path class="cls-5" d="m1184.25,234.19l-.44.13-7.02,2.16c-6.55,1.98-13.59,1.59-19.86-1.16l-6.48-2.8c-1.82-.8-3.73-1.39-5.65-1.8-4.83-1-9.87-.75-14.6.77l-25.16,8.07"/>
    <path class="cls-9" d="m1105.05,239.56l25.14-8.06c6.65-2.13,13.85-1.77,20.25,1.01l6.48,2.82c6.27,2.73,13.32,3.13,19.86,1.14l18.72-5.71c5.48-1.67,11.34-1.67,16.83.01l19.19,5.89c6.13,1.88,12.7,1.66,18.69-.62l14.05-5.36c6.52-2.49,13.73-2.52,20.28-.09l24.13,8.97"/>
  </g>
  <g>
    <path class="cls-6" d="m1667.56,246.98s.02,0,.03,0c.19.04.38.08.56.12.02,0,.04,0,.06.01.21.04.42.08.63.12.05.01.1.02.15.03.17.03.35.06.53.08.22.03.44.06.66.08s.44.05.66.07c.17.02.35.03.52.04.06,0,.12,0,.18.01.04,0,.08,0,.12,0,.16,0,.33.01.5.02.22,0,.44.01.66.01,2.78,0,5.55-.51,8.18-1.51l11.21-4.28c5.2-1.99,10.95-2.01,16.17-.07l19.25,7.16"/>
    <path class="cls-6" d="m1565.18,248.9l20.06-6.43c5.3-1.7,11.05-1.41,16.15.81l5.17,2.25c5.01,2.18,10.62,2.5,15.84.91l5.6-1.71"/>
    <path class="cls-16" d="m1667.13,246.86c-.35-.08-.7-.18-1.05-.29l-15.31-4.69c-4.37-1.35-9.04-1.35-13.43-.02l-8.98,2.75c-.2-1.23-.41-2.46-.59-3.69-.1-.57.06-1.27.31-1.8.62-1.41.45-2.32-.66-3.42-.39-.41-.72-1-.84-1.54-.47-2.44-.9-4.9-1.25-7.36-.1-.59.04-1.31.31-1.89.59-1.33.43-2.3-.62-3.36-.43-.43-.78-1.03-.88-1.62-.49-2.38-.92-4.76-1.25-7.15-.08-.7.18-1.46.35-2.17.08-.45.27-.9.43-1.44-.45-.49-.9-.94-1.25-1.46-.29-.39-.57-.88-.66-1.35-.82-4.59-1.62-9.18-2.38-13.8-.08-.53.14-1.15.29-1.72.12-.47.31-.92.49-1.46-.49-.53-.92-1-1.31-1.48-.23-.25-.47-.53-.53-.84-.47-2.75-1.03-5.47-1.33-8.24-.31-2.75.92-5.1,2.52-7.2,1.72-2.21,3.59-4.33,5.49-6.38.7-.74,1.09-1.39.74-2.38-.08-.25-.1-.55-.16-.88-.06.02-.12,0-.16-.02-.25-.12-.49-.37-.57-.62-.04-.1.33-.47.53-.51.12-.02.23-.04.35-.06-1.35-.08-2.19-.92-2.46-2.48-.31-1.76-.62-3.53-.9-5.29-.31-1.72.55-3.01,2.26-3.32,4.59-.82,9.16-1.6,13.78-2.38,1.76-.29,2.99.64,3.3,2.4.31,1.78.62,3.59.92,5.37.23,1.35-.21,2.4-1.23,2.93.29-.08.53-.06.64.49.14.74-.35.76-.8.78.06.14.12.29.12.41-.02,1.41.76,2.09,2.03,2.67,3.18,1.43,6.21,3.16,8.82,5.51,1.7,1.52,2.79,3.4,3.18,5.66.39,2.11.78,4.22,1.09,6.36.08.55-.12,1.17-.27,1.74-.12.47-.33.9-.55,1.46.51.53,1,1.03,1.41,1.56.27.35.49.78.57,1.19.84,4.69,1.64,9.37,2.44,14.06.06.45-.08.96-.23,1.39-.18.59-.43,1.13-.68,1.76.49.53.96.98,1.33,1.52.29.37.53.82.62,1.27.47,2.54.92,5.06,1.31,7.61.08.55-.08,1.21-.33,1.72-.62,1.31-.43,2.32.59,3.36.41.39.76.96.86,1.52.51,2.48.94,5,1.31,7.52.08.53-.04,1.21-.29,1.7-.66,1.37-.49,2.34.59,3.44.39.39.74.96.84,1.52.57,2.97,1.09,5.97,1.58,8.96.2,1.31.04,2.58-.45,3.67Z"/>
    <path class="cls-6" d="m1727.62,248.9l-19.25-7.15c-5.23-1.95-10.97-1.93-16.18.06l-11.21,4.28c-2.62,1-5.41,1.5-8.18,1.5-.43,0-.84-.02-1.27-.04-.14,0-.29-.02-.41-.02-.1,0-.21-.02-.29-.02-.45-.04-.88-.08-1.31-.14-.04-.02-.06-.02-.1-.02-.18-.04-.39-.06-.57-.1-.43-.06-.86-.16-1.29-.25l-.43-.12"/>
    <path class="cls-6" d="m1628.36,244.61l-.35.1-5.6,1.72c-5.23,1.58-10.85,1.27-15.85-.92l-5.17-2.23c-1.46-.64-2.97-1.11-4.51-1.44-3.85-.8-7.87-.59-11.64.62l-20.07,6.44"/>
    <path class="cls-8" d="m1565.18,248.9l20.06-6.43c5.3-1.7,11.05-1.41,16.16.81l5.17,2.25c5.01,2.18,10.62,2.5,15.84.91l14.94-4.56c4.38-1.33,9.05-1.33,13.42.01l15.31,4.7c4.89,1.5,10.13,1.32,14.91-.5l11.21-4.28c5.2-1.99,10.95-2.01,16.18-.07l19.25,7.16"/>
  </g>
  <g>
    <path class="cls-10" d="m2127.07,238.46s.01,0,.02,0c.15.04.3.07.46.1.01,0,.03,0,.05,0,.17.04.34.07.51.1.04,0,.08.01.12.02.14.02.28.05.43.07.18.02.35.05.53.07s.35.04.53.05c.14.01.28.02.42.03.05,0,.1,0,.15,0,.03,0,.07,0,.1,0,.13,0,.27.01.4.01.18,0,.35,0,.53,0,2.25,0,4.49-.41,6.62-1.22l9.07-3.46c4.21-1.61,8.86-1.63,13.08-.06l15.57,5.79"/>
    <path class="cls-10" d="m2044.25,240.01l16.22-5.2c4.29-1.38,8.93-1.14,13.07.65l4.18,1.82c4.05,1.76,8.59,2.02,12.82.73l4.53-1.38"/>
    <path class="cls-16" d="m2126.72,238.36c-.28-.07-.56-.15-.85-.23l-12.39-3.8c-3.53-1.09-7.31-1.09-10.86-.02l-7.26,2.22c-.17-1-.33-1.99-.48-2.98-.08-.46.05-1.03.25-1.46.5-1.14.36-1.87-.53-2.77-.32-.33-.58-.81-.68-1.24-.38-1.97-.73-3.96-1.01-5.95-.08-.48.03-1.06.25-1.53.48-1.08.35-1.86-.5-2.72-.35-.35-.63-.83-.71-1.31-.4-1.92-.75-3.85-1.01-5.79-.07-.56.15-1.18.28-1.76.07-.36.22-.73.35-1.16-.36-.4-.73-.76-1.01-1.18-.23-.32-.46-.71-.53-1.09-.66-3.71-1.31-7.43-1.92-11.16-.07-.43.12-.93.23-1.39.1-.38.25-.75.4-1.18-.4-.43-.75-.81-1.06-1.19-.18-.2-.38-.43-.43-.68-.38-2.22-.83-4.43-1.08-6.67-.25-2.22.75-4.13,2.04-5.82,1.39-1.79,2.9-3.5,4.44-5.16.56-.6.88-1.13.6-1.92-.07-.2-.08-.45-.13-.71-.05.02-.1,0-.13-.02-.2-.1-.4-.3-.46-.5-.03-.08.27-.38.43-.41.1-.02.18-.03.28-.05-1.09-.07-1.77-.75-1.99-2.01-.25-1.43-.5-2.85-.73-4.28-.25-1.39.45-2.44,1.82-2.69,3.71-.66,7.41-1.29,11.14-1.92,1.43-.23,2.42.51,2.67,1.94.25,1.44.5,2.9.75,4.34.18,1.09-.17,1.94-1,2.37.23-.07.43-.05.51.4.12.6-.28.61-.65.63.05.12.1.23.1.33-.02,1.14.61,1.69,1.64,2.16,2.57,1.16,5.02,2.55,7.13,4.46,1.38,1.23,2.26,2.75,2.57,4.58.32,1.71.63,3.42.88,5.14.07.45-.1.95-.22,1.41-.1.38-.27.73-.45,1.18.41.43.81.83,1.14,1.26.22.28.4.63.46.96.68,3.8,1.33,7.58,1.97,11.38.05.36-.07.78-.18,1.13-.15.48-.35.91-.55,1.43.4.43.78.8,1.08,1.23.23.3.43.66.5,1.03.38,2.06.75,4.1,1.06,6.15.07.45-.07.98-.27,1.39-.5,1.06-.35,1.87.48,2.72.33.32.61.78.7,1.23.41,2.01.76,4.05,1.06,6.09.07.43-.03.98-.23,1.38-.53,1.11-.4,1.89.48,2.79.32.32.6.78.68,1.23.46,2.4.88,4.83,1.28,7.25.17,1.06.03,2.09-.36,2.97Z"/>
    <path class="cls-10" d="m2175.65,240.01l-15.57-5.79c-4.23-1.58-8.87-1.56-13.08.05l-9.07,3.47c-2.12.81-4.38,1.21-6.62,1.21-.35,0-.68-.02-1.03-.03-.12,0-.23-.02-.33-.02-.08,0-.17-.02-.23-.02-.36-.03-.71-.07-1.06-.12-.03-.02-.05-.02-.08-.02-.15-.03-.32-.05-.46-.08-.35-.05-.7-.13-1.04-.2l-.35-.1"/>
    <path class="cls-10" d="m2095.36,236.54l-.28.08-4.53,1.39c-4.23,1.28-8.77,1.03-12.82-.75l-4.18-1.81c-1.18-.51-2.4-.9-3.65-1.16-3.12-.65-6.37-.48-9.42.5l-16.23,5.21"/>
    <path class="cls-3" d="m2044.25,240.01l16.22-5.2c4.29-1.38,8.94-1.14,13.07.65l4.18,1.82c4.05,1.76,8.59,2.02,12.82.73l12.08-3.69c3.54-1.08,7.32-1.08,10.86,0l12.38,3.8c3.95,1.21,8.2,1.07,12.06-.4l9.07-3.46c4.21-1.61,8.86-1.63,13.08-.06l15.57,5.79"/>
  </g>
  <text class="cls-12" transform="translate(247.68 287.15)"><tspan x="0" y="0">1500</tspan><tspan class="cls-14" x="81.03" y="0">-</tspan><tspan x="94.97" y="0">1300 </tspan></text>
  <text class="cls-12" transform="translate(729.99 287.37)"><tspan x="0" y="0">1</tspan><tspan class="cls-13" x="13" y="0">2</tspan><tspan x="33.37" y="0">00</tspan><tspan class="cls-14" x="81.03" y="0">-</tspan><tspan x="94.97" y="0">1000 </tspan></text>
  <text class="cls-12" transform="translate(1124.61 287.58)"><tspan x="0" y="0">900</tspan><tspan class="cls-13" x="69.59" y="0">-</tspan><tspan class="cls-1" x="83.99" y="0">7</tspan><tspan x="104.47" y="0">00 </tspan></text>
  <text class="cls-12" transform="translate(1567.05 287.8)"><tspan x="0" y="0">600-400 </tspan></text>
  <text class="cls-12" transform="translate(2037.39 287.37)"><tspan x="0" y="0">300</tspan><tspan class="cls-14" x="67.97" y="0">-</tspan><tspan class="cls-15" x="81.9" y="0">100- </tspan></text>
</svg>