<?xml version="1.0" encoding="UTF-8"?>
<svg id="Capa_1" data-name="Capa 1" xmlns="http://www.w3.org/2000/svg" viewBox="0 0 2394.49 369.13">
  <defs>
    <style>
      .cls-1 {
        stroke-width: 1.64px;
      }

      .cls-1, .cls-2 {
        stroke: #80afc1;
      }

      .cls-1, .cls-2, .cls-3 {
        fill: none;
        stroke-miterlimit: 10;
      }

      .cls-4 {
        letter-spacing: -.01em;
      }

      .cls-2 {
        stroke-width: .43px;
      }

      .cls-5 {
        fill: #1d1d1b;
        font-family: Montserrat-Regular, Montserrat;
        font-size: 36px;
      }

      .cls-6 {
        letter-spacing: 0em;
      }

      .cls-3 {
        stroke: #000;
        stroke-width: .74px;
      }

      .cls-7 {
        letter-spacing: 0em;
      }

      .cls-8 {
        letter-spacing: -.02em;
      }

      .cls-9, .cls-10 {
        stroke-width: 0px;
      }

      .cls-10 {
        fill: #1e3659;
      }
    </style>
  </defs>
  <g>
    <path class="cls-10" d="m324.94,264.04c-.7-.17-1.41-.37-2.11-.58l-30.92-9.48c-8.82-2.73-18.26-2.73-27.11-.04l-18.13,5.55c-.41-2.48-.83-4.97-1.2-7.45-.21-1.16.12-2.57.62-3.64,1.24-2.86.91-4.68-1.32-6.91-.79-.83-1.45-2.03-1.7-3.1-.95-4.93-1.82-9.89-2.53-14.86-.21-1.2.08-2.65.62-3.81,1.2-2.69.87-4.64-1.24-6.79-.87-.87-1.57-2.07-1.78-3.27-.99-4.8-1.86-9.6-2.53-14.45-.17-1.41.37-2.94.7-4.39.17-.91.54-1.82.87-2.9-.91-.99-1.82-1.9-2.53-2.94-.58-.79-1.16-1.78-1.32-2.73-1.66-9.27-3.27-18.55-4.8-27.86-.17-1.08.29-2.32.58-3.48.25-.95.62-1.86.99-2.94-.99-1.08-1.86-2.03-2.65-2.98-.46-.5-.95-1.08-1.08-1.7-.95-5.55-2.07-11.05-2.69-16.64-.62-5.55,1.86-10.31,5.09-14.53,3.48-4.47,7.24-8.73,11.09-12.87,1.41-1.49,2.19-2.81,1.49-4.8-.17-.5-.21-1.12-.33-1.78-.12.04-.25,0-.33-.04-.5-.25-.99-.75-1.16-1.24-.08-.21.66-.95,1.08-1.03.25-.04.46-.08.7-.12-2.73-.17-4.43-1.86-4.97-5.01-.62-3.56-1.24-7.12-1.82-10.68-.62-3.48,1.12-6.09,4.55-6.71,9.27-1.66,18.5-3.23,27.82-4.8,3.56-.58,6.04,1.28,6.66,4.84.62,3.6,1.24,7.24,1.86,10.85.46,2.69-.41,4.76-2.4,5.92.54-.17.99-.04,1.2.99.29,1.49-.7,1.53-1.61,1.57.12.29.25.58.25.83-.04,2.86,1.53,4.22,4.1,5.38,6.42,2.9,12.54,6.37,17.8,11.14,3.44,3.06,5.63,6.87,6.42,11.43.79,4.26,1.57,8.53,2.19,12.83.17,1.12-.25,2.36-.54,3.52-.25.95-.66,1.82-1.12,2.94,1.03,1.08,2.03,2.07,2.86,3.15.54.7.99,1.57,1.16,2.4,1.7,9.48,3.31,18.92,4.93,28.4.12.91-.17,1.95-.46,2.81-.37,1.2-.87,2.28-1.37,3.56.99,1.08,1.95,1.99,2.69,3.06.58.75,1.08,1.66,1.24,2.57.95,5.13,1.86,10.22,2.65,15.36.17,1.12-.17,2.44-.66,3.48-1.24,2.65-.87,4.68,1.2,6.79.83.79,1.53,1.95,1.74,3.06,1.03,5.01,1.9,10.1,2.65,15.19.17,1.08-.08,2.44-.58,3.44-1.32,2.77-.99,4.72,1.2,6.95.79.79,1.49,1.95,1.7,3.06,1.16,6,2.19,12.05,3.19,18.09.41,2.65.08,5.22-.91,7.41Z"/>
    <path class="cls-3" d="m325.82,264.27s.04.01.05.01c.38.09.76.17,1.14.25.04,0,.08.01.12.02.43.09.85.17,1.28.24.1.02.2.04.29.05.35.06.71.12,1.07.17.44.06.88.12,1.32.17s.88.1,1.32.13c.35.04.7.06,1.04.08.13,0,.24.01.37.02.08,0,.17.01.25.01.33.01.67.03,1,.04.44.01.88.02,1.32.02,5.61,0,11.2-1.02,16.51-3.05l22.64-8.64c10.5-4.02,22.12-4.06,32.66-.14l38.87,14.45"/>
    <path class="cls-3" d="m119.09,268.14l40.5-12.99c10.71-3.44,22.3-2.85,32.62,1.63l10.45,4.55c10.11,4.4,21.45,5.05,31.99,1.83l11.31-3.45"/>
    <path class="cls-3" d="m447.1,268.14l-38.87-14.45c-10.56-3.93-22.15-3.89-32.66.12l-22.64,8.65c-5.3,2.03-10.93,3.02-16.52,3.02-.87,0-1.7-.04-2.57-.08-.29,0-.58-.04-.83-.04-.21,0-.41-.04-.58-.04-.91-.08-1.78-.17-2.65-.29-.08-.04-.12-.04-.21-.04-.37-.08-.79-.12-1.16-.21-.87-.12-1.74-.33-2.61-.5l-.87-.25"/>
    <path class="cls-3" d="m246.66,259.49l-.7.21-11.3,3.48c-10.56,3.19-21.9,2.57-32-1.86l-10.43-4.51c-2.94-1.28-6-2.24-9.11-2.9-7.78-1.61-15.9-1.2-23.51,1.24l-40.53,13"/>
    <path class="cls-1" d="m119.09,268.14l40.5-12.99c10.71-3.43,22.31-2.85,32.62,1.63l10.44,4.54c10.11,4.4,21.45,5.05,31.99,1.83l30.16-9.2c8.84-2.7,18.27-2.69,27.1.02l30.91,9.49c9.87,3.03,20.46,2.67,30.11-1.01l22.64-8.64c10.51-4.01,22.12-4.06,32.66-.14l38.87,14.46"/>
  </g>
  <g>
    <path class="cls-10" d="m777.84,262.53l-.83-.25-28.19-8.65c-8.82-2.69-18.26-2.73-27.11-.04l-22.15,6.79-.79.25c-.21-.87-.7-1.66-1.53-2.53-.91-.95-1.7-2.28-1.95-3.56-1.03-5.09-1.9-10.22-2.65-15.36-.21-1.24.08-2.69.58-3.81,1.16-2.57.91-3.93-.99-5.92-.87-.91-1.66-2.15-1.86-3.39-1.74-9.36-3.35-18.79-4.88-28.19-.21-1.28.12-2.77.66-4.02.99-2.32.75-3.89-1.03-5.75-.87-.95-1.66-2.28-1.95-3.52-.87-4.14-1.37-8.36-2.24-12.46-1.2-5.63.08-10.64,2.9-15.44,3.64-6.17,8.44-11.34,13.45-16.39,1.74-1.78,1.53-4.35-.37-5.96-.5-.41-.58-1.37-.91-2.07-.29-.7-.62-1.41-.99-2.07-.7-1.24-1.86-2.36-2.15-3.68-.87-3.97-1.49-8.03-2.15-12.09-.54-3.44,1.49-6.33,4.93-6.95,9.52-1.7,19.04-3.35,28.56-4.93,3.52-.62,6.37,1.45,7.04,5.01.66,3.48,1.16,7,1.86,10.47.54,2.53.5,4.84-1.49,6.83,1.03,1.45,1.61,2.73-.17,4.14-.75.58.62,4.14,1.61,4.72,5.26,2.94,10.68,5.67,15.73,8.9,2.73,1.78,5.01,4.31,7.24,6.71,1.99,2.19,2.98,4.97,3.52,7.91.79,4.55,1.66,9.07,2.28,13.58.17,1.32-.08,2.81-.62,4.02-1.12,2.53-.87,3.93.99,5.92.91.95,1.74,2.24,1.95,3.52,1.74,9.31,3.35,18.67,4.84,28.03.21,1.32-.12,2.9-.66,4.14-.95,2.19-.87,3.93.95,5.42,1.41,1.16,1.99,2.53,2.28,4.22.83,4.84,1.66,9.65,2.53,14.49.29,1.66.17,3.19-.79,4.72-1.12,1.82-.75,3.85.95,5.22,1.37,1.08,1.99,2.44,2.24,4.06l1.37,7.99Z"/>
    <path class="cls-1" d="m575.91,268.14l40.5-12.99c10.71-3.43,22.31-2.85,32.62,1.63l10.44,4.54c10.11,4.4,21.45,5.05,31.99,1.83l30.16-9.2c8.84-2.7,18.27-2.69,27.1.02l30.91,9.49c9.87,3.03,20.46,2.67,30.11-1.01l22.64-8.64c10.51-4.01,22.12-4.06,32.66-.14l38.87,14.46"/>
  </g>
  <g>
    <path class="cls-10" d="m1225.78,258.14c-.5,1.2-.7,2.32-.46,3.31l-1.7-.54-22.64-6.95c-8.82-2.69-18.26-2.69-27.07,0l-26.33,8.03-.75.21c-1.32-7.53-2.65-15.07-3.85-22.64-.21-1.28.12-2.77.66-3.97.99-2.36.75-3.89-1.03-5.8-.87-.95-1.7-2.28-1.95-3.52-.87-4.14-1.37-8.36-2.28-12.46-1.16-5.59.08-10.64,2.94-15.44,3.6-6.17,8.44-11.34,13.45-16.39,1.74-1.78,1.49-4.35-.37-5.92-.54-.46-.58-1.41-.91-2.07-.29-.7-.62-1.45-.99-2.11-.7-1.24-1.86-2.36-2.15-3.68-.91-3.97-1.53-8.03-2.15-12.09-.54-3.44,1.45-6.33,4.93-6.95,9.52-1.7,19-3.31,28.52-4.93,3.56-.62,6.42,1.45,7.08,5.01.66,3.48,1.16,7,1.86,10.47.5,2.53.46,4.84-1.49,6.83,1.03,1.45,1.61,2.77-.17,4.14-.75.58.62,4.18,1.61,4.72,5.26,2.94,10.68,5.67,15.73,8.94,2.73,1.74,5.01,4.26,7.2,6.66,2.03,2.19,3.02,5.01,3.56,7.95.79,4.51,1.66,9.02,2.28,13.58.17,1.28-.08,2.77-.62,3.97-1.12,2.53-.91,3.93.95,5.92.91.95,1.74,2.28,1.99,3.52,1.74,9.36,3.35,18.67,4.84,28.03.21,1.32-.17,2.9-.7,4.18Z"/>
    <path class="cls-1" d="m1027.47,268.14l40.5-12.99c10.71-3.43,22.31-2.85,32.62,1.63l10.44,4.54c10.11,4.4,21.45,5.05,31.99,1.83l30.16-9.2c8.84-2.7,18.27-2.69,27.1.02l30.91,9.49c9.87,3.03,20.46,2.67,30.11-1.01l22.64-8.64c10.51-4.01,22.12-4.06,32.66-.14l38.87,14.46"/>
  </g>
  <g>
    <path class="cls-9" d="m1566.79,262.33v.04l.79-.25-.79.21Z"/>
    <path class="cls-10" d="m1645.69,257.37c-.62,1.45-.83,2.57-.5,3.6l-2.15-.66-21.11-6.46c-8.82-2.73-18.26-2.73-27.07-.04l-27.28,8.32-.79.21c-.41-2.57-.83-5.13-1.37-7.7-1.16-5.59.08-10.6,2.9-15.44,3.64-6.17,8.49-11.34,13.45-16.35,1.78-1.78,1.53-4.35-.33-5.96-.54-.41-.62-1.37-.91-2.07-.33-.7-.62-1.41-1.03-2.07-.7-1.24-1.82-2.36-2.11-3.68-.91-4.02-1.53-8.07-2.15-12.09-.58-3.48,1.45-6.38,4.93-6.95,9.48-1.7,19-3.35,28.52-4.97,3.56-.58,6.42,1.49,7.08,5.01.66,3.52,1.16,7,1.86,10.51.5,2.53.46,4.84-1.53,6.79,1.08,1.49,1.66,2.77-.12,4.14-.79.58.62,4.18,1.57,4.72,5.3,2.94,10.68,5.71,15.77,8.94,2.73,1.78,4.97,4.31,7.2,6.71,2.03,2.19,3.02,4.97,3.52,7.91.79,4.51,1.66,9.02,2.32,13.58.17,1.28-.12,2.81-.66,4.02Z"/>
    <path class="cls-1" d="m1449.02,268.14l40.5-12.99c10.71-3.43,22.31-2.85,32.62,1.63l10.44,4.54c10.11,4.4,21.45,5.05,31.99,1.83l30.16-9.2c8.84-2.7,18.27-2.69,27.1.02l30.91,9.49c9.87,3.03,20.46,2.67,30.11-1.01l22.64-8.64c10.51-4.01,22.12-4.06,32.66-.14l38.87,14.46"/>
  </g>
  <g>
    <path class="cls-10" d="m2109.95,259.01l-.58-.17-.62-.21-16.64-5.09c-8.86-2.73-18.3-2.73-27.11-.04l-17.63,5.38-1.95.58c2.32-2.73,4.8-5.34,7.33-7.87,1.74-1.78,1.53-4.35-.37-5.96-.5-.41-.58-1.37-.87-2.07-.33-.7-.66-1.41-1.03-2.07-.7-1.24-1.86-2.36-2.15-3.68-.87-3.97-1.49-8.07-2.15-12.09-.54-3.48,1.49-6.38,4.97-6.95,9.48-1.7,19-3.35,28.52-4.97,3.56-.58,6.42,1.49,7.08,5.01.62,3.48,1.12,7.04,1.82,10.47.54,2.57.5,4.88-1.49,6.83,1.08,1.49,1.61,2.77-.12,4.14-.79.62.58,4.18,1.57,4.72,5.3,2.94,10.68,5.71,15.77,8.94,2.11,1.37,3.93,3.19,5.67,5.09Z"/>
    <path class="cls-1" d="m1917.78,268.14l40.5-12.99c10.71-3.43,22.31-2.85,32.62,1.63l10.44,4.54c10.11,4.4,21.45,5.05,31.99,1.83l30.16-9.2c8.84-2.7,18.27-2.69,27.1.02l30.91,9.49c9.87,3.03,20.46,2.67,30.11-1.01l22.64-8.64c10.51-4.01,22.12-4.06,32.66-.14l38.87,14.46"/>
  </g>
  <line class="cls-2" x1="1646.4" y1="59.14" x2="1646.3" y2="59.11"/>
  <text class="cls-5" transform="translate(711.04 310.89)"><tspan x="0" y="0">12</tspan><tspan class="cls-8" x="33.44" y="0">-</tspan><tspan x="47.38" y="0">10</tspan></text>
  <text class="cls-5" transform="translate(254.22 310.89)"><tspan x="0" y="0">15</tspan><tspan class="cls-4" x="33.37" y="0">-</tspan><tspan class="cls-6" x="47.3" y="0">13</tspan></text>
  <text class="cls-5" transform="translate(1145.22 311.29)"><tspan x="0" y="0">9</tspan><tspan class="cls-7" x="21.92" y="0">-</tspan><tspan x="36.32" y="0">7</tspan></text>
  <text class="cls-5" transform="translate(1584.15 311.29)"><tspan x="0" y="0">6-4</tspan></text>
  <text class="cls-5" transform="translate(2052.9 306.14)"><tspan x="0" y="0">3</tspan><tspan class="cls-8" x="20.3" y="0">-</tspan><tspan x="34.24" y="0">1</tspan></text>
</svg>