<?xml version="1.0" encoding="UTF-8"?>
<svg id="Capa_2" data-name="Capa 2" xmlns="http://www.w3.org/2000/svg" viewBox="0 0 207.75 217.36">
  <defs>
    <style>
      .cls-1 {
        fill: #3b538b;
      }

      .cls-2 {
        fill: #211915;
        font-family: MontserratRoman-ExtraLight, Montserrat;
        font-size: 12px;
        font-variation-settings: 'wght' 200;
      }
    </style>
  </defs>
  <path class="cls-1" d="M79.81,83.95c.04,.07,.1,.2,.13,.38,.02,.11,.05,.3-.04,.49-.07,.15-.18,.23-.3,.31-.22,.16-.32,.12-.48,.27-.04,.04-.18,.16-.23,.32-.08,.29,.16,.6,.28,.74,.11,.14,.58,.67,1.87,.98,1.01,.25,1.79,.19,1.97,.17,.49-.05,1-.17,1-.17,.38-.09,.48-.15,.92-.25,.19-.04,.48-.11,.85-.15,.22-.02,.53-.06,.91-.04,.19,0,.7,.03,1.22,.21,1.05,.37,1.79,1.24,2.17,1.69,.08,.1,.23,.28,.46,.48,.18,.16,.49,.43,.94,.59,.69,.25,1.33,.12,1.64,.06,.17-.03,.4-.1,.87-.24,.31-.09,.42-.13,.75-.23,.31-.09,.46-.13,.69-.18,.29-.07,.5-.11,.78-.14,.17-.01,.47-.03,.83,.03,.41,.07,.7,.2,.91,.3,.29,.14,.41,.24,.98,.62,.5,.34,.75,.51,.92,.61,.16,.09,.77,.44,1.51,.6,.76,.16,1.36,.06,2.06-.07,.97-.18,1.75-.49,2.39-.74,0,0,1.16-.46,2.04-.64,.17-.03,.33-.06,.33-.06,.3-.04,.53-.05,.58-.05,.46-.01,.82,.06,.91,.07,.2,.04,.58,.13,1,.33,.15,.07,.2,.11,.43,.22,.3,.14,.53,.23,.59,.25,.07,.02,.29,.1,.57,.18,.62,.17,1.17,.2,1.4,.21,.6,.03,1.09-.02,1.42-.08,.3-.05,.83-.14,1.46-.41,.76-.32,1.34-.77,1.53-.91,.09-.07,.27-.22,.56-.42,.31-.22,.47-.34,.7-.46,.36-.19,.66-.28,.73-.3,.43-.13,.78-.14,1.03-.15,.34-.01,.59,.02,.84,.04,.67,.07,.81,.16,1.64,.29,.27,.04,.56,.09,.96,.11,.59,.04,1.04,.02,1.17,0,0,0,.55-.04,1.48-.27,.02,0,.23-.06,.44-.21,.21-.15,.23-.25,.23-.28,.01-.12-.07-.22-.09-.24-.07-.08-.15-.12-.18-.13-.38-.15-.74-.34-1.1-.5-.52-.24-.85-.54-1-.68-.27-.26-.4-.45-.46-.56-.16-.28-.21-.52-.23-.59,0-.03-.02-.12-.03-.23-.02-.23,.01-.41,.03-.52,.04-.22,.09-.39,.14-.5,.05-.13,.09-.22,.12-.29,.03-.07,.09-.19,.19-.38,.12-.21,.23-.38,.34-.54,.22-.31,.43-.57,.65-.82,.33-.37,.36-.37,.73-.77,.28-.31,.57-.62,.89-1.06,.07-.1,.34-.47,.64-1.01,.15-.27,.43-.8,.7-1.52,.3-.81,.45-1.53,.54-2.07,.16-1.01,.14-1.83,.11-2.28-.05-.8-.18-1.46-.28-1.89-.1-.41-.34-1.29-.86-2.32-.12-.23-.54-1.05-1.3-1.99-.18-.22-.85-1.05-2-1.98-1.37-1.12-2.59-1.72-3.43-2.13-1.72-.84-3.12-1.24-4.26-1.55-2.08-.58-3.72-.8-5.02-.96-1.85-.24-3.28-.3-4.35-.34-1.91-.07-3.35-.03-4.37,0-2.13,.06-3.78,.21-4.45,.27-1.5,.14-3.51,.33-6.02,.83-1.94,.39-4.19,.85-6.98,1.97-1.39,.56-3.18,1.29-5.21,2.76-1.78,1.29-2.71,2.4-2.99,2.74-.47,.57-1.24,1.54-1.84,3.01-.56,1.37-.69,2.49-.72,2.81-.12,1.13,0,2.02,.05,2.41,.2,1.32,.63,2.28,.84,2.69,.2,.41,.51,1.02,1.06,1.66,.01,.01,.23,.26,.68,.74,.29,.32,.56,.61,.88,1.01,0,0,.26,.32,.53,.82Z"/>
  <path class="cls-1" d="M83.93,87.31c.55,.74,1.53,2.43,1.84,4.14,.11,.59,.29,1.66,0,3-.08,.38-.27,1.09-.71,1.9-.22,.4-.67,1.13-1.43,1.83-.44,.41-.85,.67-1.1,.84-.43,.28-.78,.46-1.22,.67-.93,.45-1.51,.7-2.17,1-1.14,.52-1.72,.78-2.42,1.17-.79,.44-1.27,.71-1.86,1.21-.5,.43-1.13,.97-1.61,1.89-.4,.77-.53,1.46-.62,1.97-.04,.23-.14,.86-.12,1.68,0,.1,.02,.5,.09,1.03,.03,.23,.11,.7,.29,1.36,.11,.39,.26,.87,.63,1.82,.37,.92,.46,1.05,.95,2.24,.44,1.06,.67,1.6,.71,1.97,.03,.28,.14,1.24-.34,2.26-.22,.47-.5,.81-.74,1.08-.24,.29-.54,.56-1.12,1.1-.67,.62-.7,.61-.91,.85-.52,.6-.72,1.07-.77,1.2-.16,.42-.2,.74-.2,.82-.03,.32,0,.58,.03,.74,.02,.1,.07,.35,.19,.65,.11,.27,.24,.46,.33,.82,.02,.08,.04,.15,.03,.24-.02,.2-.16,.42-.33,.47-.26,.08-.54-.23-.72-.43-.1-.11-.44-.51-.6-1.21-.13-.57-.05-1.03,0-1.33,.03-.2,.16-.88,.64-1.63,.28-.43,.58-.72,1.18-1.29,.84-.79,.97-.77,1.36-1.26,.2-.26,.56-.73,.75-1.43,.17-.61,.12-1.1,.08-1.57-.07-.77-.26-1.32-.49-1.99-.2-.57-.39-.99-.66-1.58-.36-.79-.54-1.11-.73-1.49-.16-.34-.69-1.5-.88-2.98-.08-.65-.24-1.98,.26-3.56,.17-.53,.53-1.47,1.29-2.43,.11-.14,.6-.75,1.4-1.38,.91-.71,1.76-1.06,2.25-1.27,.35-.15,.32-.11,1.44-.5,1.22-.42,1.83-.63,2.45-.88,.98-.41,1.64-.68,2.39-1.26,.38-.29,.83-.64,1.25-1.25,.38-.55,.54-1.04,.65-1.36,.41-1.24,.32-2.31,.27-2.89-.08-.88-.29-1.52-.36-1.76-.06-.18-.26-.74-.63-1.38-.07-.12-.2-.33-.38-.6-.19-.27-.64-.78-.79-.96l1.12-.32Z"/>
  <path class="cls-1" d="M92.04,89.76c-.02,.06,.07,.22,.24,.53,.11,.19,.17,.28,.25,.43,.12,.21,.2,.36,.29,.55,.21,.41,.36,.77,.46,.99,.21,.51,.37,.96,.48,1.32,.19,.6,.31,1.12,.39,1.51,.1,.47,.21,1.11,.27,1.89,.05,.62,.04,1.04,.04,1.75,0,0,0,.65-.1,1.26-.02,.12-.04,.24-.07,.38,0,0-.05,.21-.14,.43-.29,.75-.89,1.53-.89,1.53-.25,.32-.62,.76-1.25,1.37-.77,.73-1.4,1.22-1.96,1.64-.95,.71-1.75,1.23-2.19,1.51-.98,.61-1.29,.73-2.34,1.42-.55,.36-.9,.59-1.28,.88-1.47,1.13-2.31,2.39-2.7,2.99-.95,1.45-1.38,2.72-1.53,3.2-.34,1.08-.43,1.92-.45,2.14-.05,.47-.12,1.22,0,2.18,.19,1.38,.68,2.37,.92,2.85,.38,.76,.82,1.36,1.06,1.7,.28,.38,.53,.7,.74,.96,.12,.14,.3,.37,1.06,1.24,.76,.88,.74,.85,.95,1.1,.38,.47,.66,.81,.98,1.31,.24,.38,.48,.75,.68,1.29,.11,.29,.3,.8,.35,1.5,0,0,.07,.99-.27,2-.17,.5-.34,.86-.34,.86-.08,.17-.15,.29-.27,.55-.09,.2-.15,.37-.21,.57-.07,.22-.09,.37-.09,.54,0,.13,0,.21,.08,.29,.1,.12,.28,.14,.4,.12,.07-.01,.12-.04,.15-.06,.28-.15,.46-.34,.46-.34,.29-.31,.48-.61,.52-.68,.05-.09,.22-.37,.38-.8,.06-.16,.22-.61,.3-1.24,.04-.27,.11-.94,0-1.8-.17-1.25-.64-2.15-.89-2.61-.08-.15-.14-.25-.21-.36-.35-.6-.83-1.29-1.88-2.5-.68-.78-1.39-1.53-1.97-2.29-.09-.12-.24-.31-.4-.57-.33-.5-.53-.92-.61-1.07-.39-.81-.55-1.51-.61-1.76-.06-.29-.24-1.17-.18-2.33,.06-1.03,.28-1.78,.45-2.32,.2-.67,.62-1.81,1.44-3.06,.21-.32,.93-1.37,2.16-2.47,.56-.49,1.06-.83,2.07-1.51,1.28-.87,1.52-.93,2.97-1.88,1.17-.76,1.77-1.16,2.49-1.77,.74-.63,1.35-1.15,1.95-2.03,.27-.39,.78-1.16,1.08-2.27,.21-.79,.23-1.41,.26-2.31,0-.21,.02-.97-.07-1.99-.12-1.27-.35-2.22-.42-2.49-.23-.93-.23-.55-1.03-2.87-.28-.81-.42-1.27-.87-1.47-.44-.2-1.03-.1-1.11,.11Z"/>
  <path class="cls-1" d="M99.04,89.89s.02,.09,.04,.16c.13,.54,.2,.94,.23,1.07,.11,.54,.17,.7,.33,1.36,.05,.23,.23,.98,.34,1.72,.07,.48,.19,1.27,.15,2.24-.07,1.64-.56,2.85-.72,3.23-.42,.98-.92,1.66-1.22,2.05-.38,.5-.69,.83-1.32,1.48-.74,.76-.89,.85-1.82,1.77-.44,.44-.99,.98-1.65,1.71-.61,.67-1.09,1.2-1.61,1.92-.55,.75-1.15,1.58-1.64,2.81-.56,1.41-.68,2.59-.73,3.18-.02,.27-.11,1.28,.04,2.6,.17,1.51,.55,2.62,.7,3.02,.26,.7,.51,1.19,.82,1.8,.1,.19,.34,.66,1.41,2.41,.81,1.33,.86,1.38,1.21,1.99,.46,.81,.75,1.33,1.06,2.09,.23,.56,.49,1.22,.66,2.15,.12,.67,.14,1.24,.14,1.65,0,.89-.14,1.55-.28,2.18-.12,.57-.24,1.13-.52,1.83-.23,.58-.59,1.47-1.38,2.36-.49,.56-1,.94-1.41,1.2-.02,.01-.04,.03-.07,.06-.08,.07-.16,.15-.2,.25,0,.02-.08,.2,.02,.34,.1,.16,.31,.17,.37,.17,.08,0,.14-.01,.21-.03,.29-.09,.5-.21,.52-.22,.39-.23,.64-.46,.64-.46,.64-.56,1.1-1.2,1.17-1.29,.09-.12,.43-.6,.78-1.3,.09-.17,.45-.91,.76-1.96,.26-.91,.36-1.65,.4-1.99,.04-.35,.1-.87,.07-1.56-.05-1.3-.37-2.28-.55-2.84-.12-.37-.24-.68-.39-1.03-.5-1.17-1-2.07-1.95-3.75-.07-.12-.22-.39-.43-.76-.28-.51-.51-.94-.59-1.1-.13-.25-.64-1.25-1.02-2.25-.27-.7-.68-1.81-.84-3.3-.18-1.74,.1-3.11,.24-3.68,.4-1.66,1.08-2.78,1.63-3.67,1.09-1.78,2.41-3.13,3.2-3.94,.15-.16,.48-.49,1.06-1.09,1.03-1.06,1.55-1.59,1.83-1.93,.33-.4,.93-1.13,1.42-2.16,.74-1.55,.84-2.93,.88-3.57,.1-1.65-.22-2.89-.5-4-.27-1.04-.59-1.89-.85-2.5"/>
  <path class="cls-1" d="M105.06,90.05c-.04,.42-.07,.93-.05,1.52,.01,.48,.06,1.12,.2,1.88,.04,.19,.16,.81,.41,1.58,.24,.73,.49,1.27,.57,1.43,.1,.22,.13,.26,.35,.71,0,0,.27,.56,.5,1.05,.27,.58,.79,1.96,1.2,3.71,.09,.4,.4,1.75,.55,3.56,.15,1.86,.07,3.33,0,4.11-.09,1.17-.25,2.04-.3,2.33-.11,.59-.31,1.53-.66,2.66-.33,1.05-.42,1.07-.99,2.69-.21,.6-.49,1.39-.79,2.41-.2,.67-.49,1.68-.75,3.01-.17,.87-.37,1.9-.46,3.29,0,0-.12,1.93,.12,3.42,.13,.8,.36,1.47,.38,1.52,.08,.22,.14,.37,.18,.48,.3,.72,.58,1.45,.88,2.18,.39,.95,.58,1.71,.89,2.91,.15,.6,.41,1.6,.61,2.94,.19,1.22,.26,2.23,.28,3.04,.01,.47,.03,1.39-.16,2.33-.11,.53-.25,.9-.3,1.03-.17,.45-.35,.74-.41,.84,0,0-.26,.43-.62,.78-.02,.02-.12,.12-.28,.22-.11,.07-.19,.11-.3,.12-.06,0-.16,.02-.24-.04-.09-.06-.11-.16-.13-.23-.03-.11-.01-.2,0-.33,.01-.1,.03-.18,.05-.23,.79-1.91,.98-3.53,1.02-4.57,.07-1.73-.23-3.08-.54-4.49-.34-1.55-.85-3.07-1.15-3.97-.3-.92-.33-.91-.56-1.63-.36-1.12-.82-2.54-1.02-3.99-.3-2.18,.06-3.93,.33-5.25,.31-1.51,.81-3.01,1.12-3.93,.18-.53,.55-1.62,.66-1.92,.16-.45,.42-1.23,.77-2.25,.26-.75,.37-1.09,.51-1.57,.16-.53,.28-.99,.35-1.26,.53-2.13,.54-4.23,.54-4.74,0-.2,0-1.01-.11-2.09-.19-1.91-.56-3.32-.78-4.14-.44-1.66-.94-2.91-1.05-3.18-.5-1.24-.77-1.87-.77-1.87-.2-.45-.29-.64-.44-1.03-.11-.3-.3-.82-.45-1.5-.08-.38-.13-.76-.23-1.5-.07-.55-.12-1-.15-1.3l1.2-.71Z"/>
  <path class="cls-1" d="M114.84,90.93c-.33,1.23-.61,2.21-.82,2.89-.29,.97-.4,1.27-.56,1.94-.18,.77-.35,1.52-.37,2.53-.03,1.09,.13,1.9,.16,2.08,.05,.25,.22,1.05,.67,2.01,.33,.71,.68,1.23,.86,1.49,.06,.08,.29,.42,.64,.85,.28,.34,.5,.59,.59,.68,.7,.76,1.7,1.88,2.2,2.46,.47,.55,1.02,1.19,1.68,2.09,.46,.63,.83,1.13,1.24,1.86,.32,.56,.71,1.27,1.03,2.28,.07,.21,.37,1.21,.46,2.59,.02,.26,.08,1.41-.17,2.92-.26,1.57-.74,2.72-.96,3.22-.37,.82-.72,1.37-1.28,2.27-.43,.68-.42,.6-1.79,2.57-.47,.68-.96,1.38-1.51,2.33-.32,.54-.51,.9-.69,1.32-.29,.69-.44,1.28-.53,1.66-.19,.89-.21,1.6-.21,1.84,0,.43,.03,.73,.06,1.08,.06,.64,.14,1.42,.42,2.38,.18,.6,.41,1.37,.95,2.19,.2,.3,.36,.55,.64,.83,.36,.36,.66,.66,.9,.83,0,0,.13,.09,.29,.29,.02,.03,.06,.08,.08,.16,.03,.09,.01,.17,0,.19,0,.04-.02,.11-.09,.17-.07,.07-.15,.09-.2,.1-.07,.01-.12,0-.15,0-.26-.04-.49-.17-.49-.17-.35-.2-.55-.38-.55-.38-.57-.5-.92-.97-.92-.97-.82-1.1-1.32-2.42-1.36-2.53-.4-1.09-.53-1.97-.6-2.5-.12-.82-.11-1.45-.11-1.61,0-.04,0-.27,.02-.51,.02-.34,.1-1.26,.52-2.47,.3-.87,.63-1.47,1.02-2.16,.2-.36,.43-.76,1.42-2.22,1.29-1.92,1.38-1.97,1.9-2.82,.52-.84,.91-1.49,1.32-2.43,.27-.62,.62-1.44,.85-2.58,.28-1.43,.22-2.57,.18-3.01-.11-1.29-.42-2.23-.6-2.75-.32-.92-.68-1.61-.9-2.03-.34-.64-.65-1.13-.86-1.45-.39-.6-.7-1.03-.96-1.37-.17-.22-.54-.72-1.18-1.49-.93-1.12-1.05-1.18-1.9-2.21-.6-.72-.9-1.09-1.28-1.66-.29-.44-.63-.96-.96-1.72-.16-.37-.43-1-.59-1.88-.18-.96-.13-1.7-.1-2.18,.06-.88,.22-1.55,.34-2.07,.18-.73,.38-1.32,.45-1.51,.09-.24,.2-.53,.41-1.09,.2-.53,.31-.8,.43-1.22,.07-.26,.13-.44,.16-.69,.06-.43,.04-.79,0-1.04l.77,.62Z"/>
  <path class="cls-1" d="M117.69,88.15c-.13,.65-.3,1.58-.48,2.72-.26,1.65-.39,2.48-.43,3.31-.07,1.41-.15,3.09,.65,4.88,.84,1.88,2.25,2.95,3.18,3.66,.61,.46,1.37,.89,2.9,1.73,1.93,1.06,2.25,1.1,3.58,1.92,1.18,.72,1.91,1.17,2.76,2,.28,.27,1.23,1.23,2.07,2.77,.52,.96,1.32,2.42,1.38,4.49,.02,.58,0,1.76-.47,3.13-.38,1.09-1,1.95-2.23,3.68-.83,1.15-1.32,1.72-1.98,2.93-.32,.59-.58,1.15-.78,1.85-.28,1.01-.29,1.79-.29,1.96,0,.93,.19,1.62,.26,1.83,.1,.32,.22,.72,.5,1.18,.38,.63,.86,1.03,1.17,1.25,.04,.03,.15,.11,.31,.1,.23,0,.37-.18,.39-.21,.01-.04,.02-.1,.03-.17,.02-.21-.05-.38-.08-.46-.19-.47-.39-.83-.39-.83-.25-.44-.28-.46-.42-.75-.16-.32-.25-.56-.28-.61-.05-.13-.18-.47-.26-.85-.03-.13-.17-.8-.07-1.64,.11-.95,.46-1.62,.84-2.33,.2-.38,.35-.6,1.55-2.28,1.2-1.67,1.19-1.64,1.37-1.93,.56-.88,1.06-1.65,1.45-2.77,.48-1.37,.52-2.49,.53-2.71,.05-1.56-.33-2.73-.58-3.48-.08-.22-.42-1.23-1.15-2.42-.74-1.21-1.53-2.07-2.08-2.6-.42-.4-1.32-1.26-2.53-1.89-.08-.04-.28-.14-.68-.34-1.04-.53-1.49-.74-1.87-.94-.97-.49-1.71-.93-2.1-1.17-1.58-.95-2.45-1.66-2.74-1.9-.16-.13-.31-.26-.51-.44-.47-.43-1.12-1.02-1.58-1.83-.34-.6-.45-1.1-.58-1.73-.24-1.12-.22-1.99-.19-2.81,.02-.69,.07-1.92,.49-3.47,.21-.8,.56-1.84,1.16-2.97l-1.89,.14"/>
  <path class="cls-1" d="M122.51,87.88c-.12,1.11-.08,2.05,0,2.76,.05,.47,.12,1.09,.35,1.87,.14,.48,.43,1.44,1.17,2.47,.99,1.4,2.18,2.11,2.71,2.42,.63,.37,1.21,.6,1.53,.73,.21,.08,.81,.32,1.79,.58,1.3,.34,2.32,.48,3.16,.58,1.13,.14,2.04,.2,2.75,.24,.72,.04,1.43,.07,1.67,.07,.94,.03,1.11,.02,1.86,.05,.88,.04,1.32,.06,1.8,.14,.59,.09,1.21,.2,1.93,.56,.24,.12,.58,.3,.94,.62,.65,.58,.92,1.23,1.07,1.59,.4,.97,.4,1.81,.4,2.71,0,.86-.11,1.89-.13,2.07-.05,.44-.07,.49-.09,.79-.04,.58-.08,1.22,.11,1.94,.2,.77,.58,1.3,.76,1.54,.19,.26,.53,.59,1.2,1.24,.88,.85,.81,.74,.94,.9,.75,.93,.84,2.03,.87,2.37,.08,1.06-.25,1.77-.31,1.9-.03,.07-.23,.46-.62,.79-.1,.08-.27,.2-.5,.25-.11,.02-.26,.05-.38-.03-.15-.1-.17-.29-.17-.34-.02-.17,.05-.29,.09-.37,.18-.36,.27-.55,.4-.74,.34-.51,.35-1.09,.36-1.24,.02-.68-.28-1.19-.42-1.41-.22-.35-.48-.58-1-1.04-.47-.41-.53-.39-.91-.74-.3-.27-.63-.58-.91-1.03-.37-.59-.47-1.14-.55-1.61-.12-.69-.09-1.23-.05-1.96,.01-.25,.02-.24,.13-1.31,.11-1.07,.16-1.61,.17-1.87,0-.76,0-1.27-.24-1.9-.28-.71-.73-1.15-.92-1.33-.53-.51-1.06-.74-1.33-.86-.21-.09-.37-.14-.53-.19-.47-.15-.94-.25-1.64-.32-.18-.02-.63-.07-1.6-.1-.92-.03-1.24-.02-2.23-.04-.27,0-1.07-.02-1.73-.06-.41-.02-1.78-.11-3.19-.4-1-.21-2.63-.56-4.45-1.64-.62-.37-1.94-1.16-3.07-2.59-.43-.54-.72-1.04-.83-1.23-.12-.22-.6-1.06-.97-2.29-.1-.33-.33-1.16-.43-2.2-.06-.58-.07-1.21-.08-1.66,0-.38-.01-.7,0-.93l1.14,.25Z"/>
  <text class="cls-2" transform="translate(67.28 181.01)"><tspan x="0" y="0">Invertebrados</tspan></text>
</svg>