<?xml version="1.0" encoding="UTF-8"?>
<svg id="Capa_2" data-name="Capa 2" xmlns="http://www.w3.org/2000/svg" viewBox="0 0 208.14 217.36">
  <defs>
    <style>
      .cls-1 {
        fill: #fff;
      }

      .cls-2 {
        fill: #9f9f9f;
      }

      .cls-3 {
        fill: #24215b;
      }

      .cls-4 {
        fill: #283b54;
      }

      .cls-5 {
        fill: none;
        stroke: #4e7ab0;
        stroke-miterlimit: 10;
      }

      .cls-6 {
        fill: #211915;
        font-family: MontserratRoman-ExtraLight, Montserrat;
        font-size: 12px;
        font-variation-settings: 'wght' 200;
      }
    </style>
  </defs>
  <polygon class="cls-3" points="155.97 100.43 155.9 101.15 155.75 102.65 155.75 102.66 153.8 104.44 149.98 107.73 147.43 109.57 144.41 111.04 142.87 111.84 136.69 113.36 130.33 114.71 122.01 115.27 116.75 115.27 111.2 115 101.22 113.19 96.24 111.88 90.49 109.85 85.75 107.9 78.07 103.9 75.52 101.97 73.53 100.12 70.89 96.81 68.73 93.58 67.19 90.54 66.39 87.74 63.31 77.38 62.39 76.32 66.62 72.09 68.74 70.48 70.77 68.93 71.24 68.58 76.25 65.59 82.87 62.62 88.64 61.05 90.65 60.61 90.75 60.59 91.12 60.54 98.27 59.65 105.65 59.65 115.52 61.22 117.35 61.72 119.54 62.33 122 63 132.84 67.88 138.84 71.89 141.67 74.44 142.76 75.42 142.78 75.45 146.41 79.39 149.85 84.13 150.31 85.03 151.21 86.79 151.51 87.36 152.95 90.34 154.82 95.55 155.97 100.43"/>
  <polygon class="cls-5" points="112.37 74.65 109 92.03 95.91 97.73 87.52 86.19 96.48 75.06 112.37 74.65"/>
  <polygon class="cls-5" points="129.96 93.95 121.62 101.4 111.84 91.92 114.5 75.93 126.32 83.58 129.96 93.95"/>
  <path class="cls-4" d="M178.15,140.54c.05,.62-.37,1.09-.58,1.32-.37,.42-.78,.62-.9,.68-2.57,1.2-3.86,1.81-4.41,1.96-2.88,.8-5.68,1.03-7.13,1.12-4.28,.28-7.59,.1-8.72,.03-2.35-.15-6-.5-10.4-1.47-2.24-.49-5.91-1.31-10.45-3.19-2-.82-4.63-1.92-7.78-3.95-.5-.32-5.17-3.37-8.02-7.24-1.42-1.93-1.95-3.45-2.2-4.5-.14-.62-.21-1.15-.25-1.49-4.12-.11-7.73-.42-10.68-.78-5.89-.71-10.34-1.7-11.97-2.08-3.11-.72-5.72-1.48-7.7-2.11-.06,.1-.18,.27-.36,.46-.37,.39-.76,.6-1.93,1.27-.37,.21-.55,.31-.62,.52-.1,.29,.05,.62,.18,.88,.11,.21,.21,.36,.45,.67,.28,.36,.41,.54,.71,.89,.51,.62,.77,.94,.9,1.15,.3,.49,.57,.93,.57,1.54,0,.52-.21,.98-.26,1.1-.13,.3-.22,.36-.37,.72-.14,.37-.24,.62-.18,.9,.07,.29,.29,.47,.54,.66,.37,.3,.71,.42,1.4,.65,1.16,.41,1.21,.43,1.37,.48,.85,.32,1.18,.49,1.5,.72,.15,.12,.34,.25,.54,.46,.55,.59,.73,1.26,.85,1.73,.19,.75,.04,.79,.28,1.77,.17,.72,.31,1,.45,1.2,.29,.43,.66,.68,.83,.78,.29,.18,.54,.25,.77,.31,.94,.29,.9,.42,1.94,.78,1.01,.35,.99,.21,1.82,.53,.75,.29,1.15,.46,1.5,.87,.42,.51,.51,1.09,.57,1.49,.12,.79-.11,.9-.04,1.97,.03,.55,.05,.98,.29,1.5,.06,.12,.29,.62,.79,1.08,.4,.37,.77,.54,1.34,.81,.54,.24,.96,.37,1.62,.58,.75,.23,.81,.21,1.34,.37,.79,.25,1.37,.43,2.03,.84,.35,.22,1.16,.73,1.71,1.68,.54,.91,.74,1.43,.74,1.43,.11,.25,.21,.54,.47,.81,.18,.18,.42,.35,.54,.44,.37,.25,.44,.24,.53,.38,.15,.23,.15,.56,.03,.8-.11,.21-.29,.31-.4,.37-.51,.27-.92,.48-1.5,.54-5.31,.54-9.25-.31-9.25-.31-6.55-1.41-11.07-3-12.54-3.53-2.06-.74-3.68-1.41-4.59-1.79-1.54-.65-4.02-1.7-7.11-3.37-1.51-.81-3.98-2.16-6.97-4.28-2.18-1.55-3.62-2.78-4.15-3.27-1.62-1.42-2.67-2.54-2.96-2.86-.51-.55-1.3-1.41-2.22-2.64-.47-.62-1.13-1.51-1.86-2.78-.45-.78-1.02-1.8-1.52-3.24-.33-.93-.69-1.99-.8-3.45-.04-.64-.12-1.79,.23-3.21,.17-.68,.4-1.29,.78-2.04,1.36-2.74,3.28-4.76,3.84-5.34,.34-.34,1.99-2,4.6-3.62,.88-.55,1.67-.96,2.26-1.26-.8-.8-1.42-1.55-1.88-2.15-.56-.74-1.18-1.54-1.75-2.75-.19-.4-.33-.75-.43-1.01-.76-.11-1.82-.28-3.08-.52-5.74-1.1-9.92-2.7-12.83-3.83-2.36-.92-6.27-2.55-10.79-5.05,0,0-4.02-2.21-8.08-5.45-.77-.62-1.83-1.52-2.91-2.87-.54-.7-.95-1.3-1.2-1.71-1.79-.25-3.18-.76-4.1-1.18-.54-.24-1.92-.9-3.37-2.16-1.52-1.32-1.84-2.19-1.94-2.78-.04-.21-.16-1.01,.24-1.31,.06-.04,.14-.09,.8-.17,.72-.08,.81-.05,1.02-.12,.51-.14,.79-.57,.98-.84,.6-.87,1.34-1.65,1.9-2.54,.63-1.02,1.18-1.67,2.26-2.99,.95-1.14,2.25-2.71,4.35-4.16,.76-.53,1.98-1.36,3.8-1.98,1.97-.68,3.61-.76,4.23-.78,1.06-.02,2.95-.04,5.1,.89,1.62,.71,2.63,1.62,3.38,2.31,1.28,1.17,2.01,2.27,3.42,4.42,1.16,1.76,1.04,1.81,2.5,4.03,1.3,2,2,2.88,2.86,3.74,.87,.87,1.47,1.29,2.24,1.83,.86,.6,2.29,1.58,2.8,1.18,.21-.18,.06-.44,.36-.89,.25-.37,.46-.33,1.06-.77,.5-.37,.99-.72,1.37-1.33,.15-.25,.29-.54,.62-.66,.18-.07,.36-.07,.54-.06,.32,0,.57,.06,.74,.12,.04-.05,.12-.13,.21-.23,2.04-2.22,6.45-6.65,13.04-10.31,1.95-1.08,9.27-4.97,19.71-6.19,6.78-.79,12.01-.13,15.03,.27,8.44,1.12,14.55,3.6,16.71,4.53,2.94,1.26,8.14,3.53,13.63,8.15,.67,.56,1.29,1.11,1.86,1.64l-.32,.16-2.83-2.55-6-4.01-10.85-4.88-2.45-.67v-.04l-2.15-.69-.04,.12-1.83-.5-9.86-1.57h-7.38l-7.15,.89-.02-.05-.36,.1-.1,.03-2.01,.44-5.78,1.57-6.61,2.97-5.01,2.98-.47,.36v-.16l-2.03,1.5v.21l-2.12,1.62-4.23,4.23,.92,1.05,3.08,10.36,.8,2.8,1.54,3.03,2.16,3.23,2.64,3.31,1.99,1.85,2.55,1.93,7.68,4,4.74,1.95,5.75,2.03,4.98,1.31,9.98,1.81,5.55,.27h5.27l8.32-.55c-2.22,.31-4.62,.55-7.19,.71l-4.42,.15-3.72,.12-6.38-.59-5.47-.98-5.79-1.49-8.84-2.91-6.86-3.22-2.6-1.46-2.8-1.95-2.81-2.53-2.89-3.42-1.24-1.77-1.02-1.73-1.16-1.9-.91-2.64-1.19-4.24-1.52-4.67-.71-2.78-.61-.61-.82-.19h-.81l-.91,1.21-1.3,.96-.69,.45,.44,.54,.81,.85,.4,1.61,.51,2.78,.67,3.29,.21,3.13,.62,3.86,1.37,4.28,1.98,4.25,1.88,2.82,1.4,1.46,4.71,3.47,5.07,3.05,4.23,1.93,5.76,2.4,5.44,1.36,3.51,.91,7.52,1.22,8.11,.86,5.93,.37,5.45-.19,5.85-.59,6.52-1.04,4.89-1.25,4.78-1.63,4.12-1.96,4.35-2.53,3.24-2.38,2.36-2.11,.93-1.18,.63-.77-1.74-1.91-.77-.78-1.79-1.65-.74-.82-1.46,1.02c.7-.6,1.25-1.09,1.56-1.36,.58,.74,1.12,1.29,1.47,1.63,.76,.74,2.32,2.26,3.07,2.9,.07,.07,.28,.25,.44,.54,.12,.21,.17,.39,.2,.54-.53,.68-1.27,1.56-2.25,2.53-1.35,1.33-2.51,2.18-3.67,3.02-.38,.28-1.91,1.37-4.08,2.6-.42,.23-1.89,1.05-3.91,1.97-.47,.21-1.94,.87-3.9,1.59-.54,.2-1.89,.68-3.68,1.2-.94,.28-1.75,.49-2.38,.64,.57,.63,1.45,1.42,2.68,2.04,.94,.46,1.73,.65,2.06,.72,.78,.17,1.37,.18,2.03,.2,1.12,.02,1.92-.08,3.37-.26,1.65-.21,2.75-.38,2.75-.38,.74-.12,1.19-.21,1.91-.24,.87-.04,1.34-.04,1.9,.16,.71,.26,1.14,.71,1.57,1.16,.3,.32,.31,.39,1.11,1.47,.61,.82,.92,1.23,1.18,1.52,.71,.77,1.43,1.21,1.7,1.38,1.11,.66,2.12,.87,2.81,1.01,.79,.16,1.51,.21,1.87,.23,.7,.05,.94,.02,1.7,.09,.81,.07,1.21,.12,1.54,.24,.15,.05,1.18,.47,1.7,1.49,.15,.3,.22,.63,.37,1.29,.17,.71,.1,.73,.22,1.21,.13,.5,.31,1.19,.87,1.78,.39,.41,.8,.61,1.11,.76,.35,.17,.7,.26,1.37,.42,.98,.24,1.24,.24,2.01,.48,.43,.13,.68,.24,.77,.29,.52,.22,.88,.38,1.23,.73,.21,.21,.55,.55,.6,1.06Z"/>
  <polygon class="cls-4" points="86.13 85.28 70.77 80.04 70.77 68.93 71.24 68.58 76.25 65.59 82.87 62.62 88.64 61.05 90.65 60.61 89.2 60.99 91.66 68.06 95.23 73.98 86.13 85.28"/>
  <polygon class="cls-4" points="94.41 98.64 96.24 111.88 90.49 109.85 85.75 107.9 78.07 103.9 75.52 101.97 73.53 100.12 70.89 96.81 68.73 93.58 67.19 90.54 66.39 87.74 63.31 77.38 62.39 76.32 66.62 72.09 68.74 70.48 68.74 79.43 64.5 81.14 65.25 83.83 65.39 84.33 70.36 82.03 84.97 86.87 73.76 100.17 74.73 101.15 86.13 87.68 94.41 98.64"/>
  <polygon class="cls-4" points="93.54 67.62 91.12 60.54 98.27 59.65 105.65 59.65 115.52 61.22 117.35 61.72 113 72.71 96.87 73.38 93.54 67.62"/>
  <polygon class="cls-4" points="115.08 73.46 119.54 62.7 119.54 62.33 122 63 132.84 67.88 138.84 71.89 141.67 74.44 127.4 81.64 115.08 73.46"/>
  <path class="cls-4" d="M161.35,108.03l-.63,.77-.93,1.18-2.36,2.11-3.24,2.38-4.35,2.53-4.12,1.96-4.78,1.63-4.89,1.25-6.52,1.04-5.85,.59-5.45,.19-5.93-.37-8.11-.86-7.52-1.22-3.51-.91-5.44-1.36-5.76-2.4-4.23-1.93-5.07-3.05-4.71-3.47-1.4-1.46-1.88-2.82-1.98-4.25-1.37-4.28-.62-3.86-.21-3.13-.67-3.29-.51-2.78-.4-1.61-.81-.85-.44-.54,.69-.45,1.3-.96,.91-1.21h.81l.82,.19,.61,.61,.71,2.78,1.52,4.67,1.19,4.24,.91,2.64,1.16,1.9,1.02,1.73,1.24,1.77,2.89,3.42,2.81,2.53,2.8,1.95,2.6,1.46,6.86,3.22,8.84,2.91,5.79,1.49,5.47,.98,6.38,.59,3.72-.12,4.42-.15c2.57-.15,4.97-.39,7.19-.71l-8.32,.55h-5.27l-5.55-.27-9.98-1.81-4.98-1.31,2.34,.46-1.81-13.01,12.94-5.64,10.76,10.4-5.91,10.93h2.33l5.62-10.78,8.93-8.19,9.52,16.06,1.49-.65-9.24-15.61,13.34,1.41,8.73,5.74,.47-.31h0s.42-.29,.42-.29l-.28-1.22-.05-.25-8.07-4.97,3.44-9.14,.04-.09-.91-1.74-.03,.07-4.01,10.6-14-1.47-3.94-11.18,14.61-7.22-.21-.29-.02-.03-.77-1.14c2.24,2.08,3.74,3.86,4.4,4.68,1.23,1.5,3.01,3.87,4.73,7.02,.67,1.21,1.58,3,2.46,5.24,.83,2.09,1.36,3.85,1.67,5.01,.4,1.48,.61,2.56,.66,2.84,.26,1.36,.41,2.53,.5,3.46-.31,.27-.87,.76-1.56,1.36l1.46-1.02,.74,.82,1.79,1.65,.77,.78,1.74,1.91Z"/>
  <path class="cls-4" d="M62.06,76.54c.18,.07,.44,.2,.68,.44,.45,.45,.54,1.02,.57,1.18,.62,3.37,2.11,6.54,2.84,9.9,.74,3.42,2.3,5.64,4.85,9.27,4.64,6.61,11.43,9.52,17.79,12.16,12.97,5.38,24.65,6.08,29.94,6.09,1.17,0,2.02-.04,2.51-.05,.65-.03,1.29-.06,1.91-.1"/>
  <path class="cls-4" d="M130.33,114.71c5.19-.71,9.4-1.79,12.53-2.87,2.75-.96,4.65-1.92,5.61-2.68,2.72-2.14,5.94-4.9,6.34-5.24l.04-.04"/>
  <path class="cls-3" d="M67.68,108.1c.56,.48,1.51,1.12,2.5,1.89,1.09,.84,2.85,2.21,4.89,3.44,.82,.49,1.57,.89,5.39,2.59,1.67,.74,3.87,1.71,6.49,2.83"/>
  <path class="cls-1" d="M155.9,101.15l-.05-.25-8.07-4.97,3.44-9.14,.04-.09-.91-1.74-.03,.07-4.01,10.6-14-1.47-3.94-11.18,14.61-7.22-.21-.29-.02-.03-.77-1.14-.32,.16-14.27,7.2-12.32-8.19,4.46-10.76v-.41l-2.15-.69-.04,.12-4.35,10.99-16.13,.67-3.33-5.76-2.42-7.08-.02-.05-.36,.1-.1,.03-1.45,.37,2.45,7.07,3.57,5.92-9.1,11.3-15.36-5.24v-11.26l-2.03,1.5v9.16l-4.25,1.7,.76,2.7,.13,.5,4.97-2.3,14.61,4.84-11.21,13.31,.97,.97,11.4-13.47,8.27,10.96,1.83,13.24,2.34,.46-1.81-13.01,12.94-5.64,10.76,10.4-5.91,10.93h2.33l5.62-10.78,8.93-8.19,9.52,16.06,1.49-.65-9.24-15.61,13.34,1.41,8.73,5.74,.47-.31h0s.42-.29,.42-.29l-.28-1.22Zm-46.9-9.11l-13.09,5.69-8.38-11.54,8.95-11.13,15.9-.4-3.37,17.38Zm12.62,9.36l-9.78-9.48,2.66-15.99,11.82,7.65,3.64,10.37-8.34,7.44Z"/>
  <polygon class="cls-5" points="112.37 74.65 109 92.03 95.91 97.73 87.52 86.19 96.48 75.06 112.37 74.65"/>
  <polygon class="cls-5" points="129.96 93.95 121.62 101.4 111.84 91.92 114.5 75.93 126.32 83.58 129.96 93.95"/>
  <polygon class="cls-4" points="112.37 74.65 109 92.03 95.91 97.73 87.52 86.19 96.48 75.06 112.37 74.65"/>
  <polygon class="cls-4" points="129.96 93.95 121.62 101.4 111.84 91.92 114.5 75.93 126.32 83.58 129.96 93.95"/>
  <polygon class="cls-1" points="161.35 108.03 160.72 108.8 159.79 109.97 157.43 112.08 154.19 114.46 149.85 117 145.72 118.96 140.95 120.6 136.06 121.85 129.53 122.88 123.68 123.47 118.23 123.66 112.3 123.29 104.19 122.44 96.67 121.21 93.17 120.3 87.73 118.95 81.97 116.54 77.74 114.62 72.67 111.56 67.96 108.09 66.56 106.63 64.67 103.81 62.69 99.56 61.32 95.28 60.69 91.43 60.49 88.29 59.82 85 59.31 82.22 58.91 80.62 58.1 79.77 57.66 79.23 58.35 78.79 59.65 77.82 60.56 76.61 61.37 76.61 62.19 76.8 62.8 77.4 63.51 80.18 65.03 84.85 66.22 89.09 67.13 91.73 68.29 93.63 69.31 95.36 70.55 97.13 73.44 100.55 76.25 103.08 79.05 105.04 81.65 106.5 88.52 109.72 97.35 112.63 103.15 114.13 108.62 115.11 115 115.7 118.72 115.57 123.14 115.42 125.53 115.34 132.32 114.64 139.36 113.06 144.37 111.49 147.36 110.19 150.09 108.25 153.31 105.52 154.82 103.92 154.85 103.89 156.32 102.87 157.06 103.69 158.84 105.34 159.61 106.12 161.35 108.03"/>
  <polygon class="cls-2" points="161.35 108.03 160.72 108.8 159.79 109.97 157.43 112.08 154.19 114.46 149.85 117 145.72 118.96 140.95 120.6 136.06 121.85 129.53 122.88 123.68 123.47 118.23 123.66 112.3 123.29 104.19 122.44 96.67 121.21 93.17 120.3 87.73 118.95 81.97 116.54 77.74 114.62 72.67 111.56 67.96 108.09 66.56 106.63 64.67 103.81 62.69 99.56 61.32 95.28 60.69 91.43 60.49 88.29 59.82 85 59.31 82.22 58.91 80.62 58.1 79.77 57.66 79.23 58.35 78.79 59.65 77.82 60.56 76.61 61.37 76.61 62.19 76.8 62.8 77.4 63.51 80.18 65.03 84.85 66.22 89.09 67.13 91.73 68.29 93.63 69.31 95.36 70.55 97.13 73.44 100.55 76.25 103.08 79.05 105.04 81.65 106.5 88.52 109.72 97.35 112.63 103.15 114.13 108.62 115.11 115 115.7 118.72 115.57 123.14 115.42 125.53 115.34 132.32 114.64 139.36 113.06 144.37 111.49 147.36 110.19 150.09 108.25 153.31 105.52 154.82 103.92 154.85 103.89 156.32 102.87 157.06 103.69 158.84 105.34 159.61 106.12 161.35 108.03"/>
  <text class="cls-6" transform="translate(92.6 190.38)"><tspan x="0" y="0">Tortugas</tspan></text>
</svg>