<?xml version="1.0" encoding="UTF-8"?>
<svg id="Capa_2" data-name="Capa 2" xmlns="http://www.w3.org/2000/svg" viewBox="0 0 344.2 217.36">
  <defs>
    <style>
      .cls-1 {
        fill: #fff;
      }

      .cls-2 {
        fill: #3b538b;
      }

      .cls-3 {
        stroke: #3b538b;
      }

      .cls-3, .cls-4 {
        fill: none;
        stroke-miterlimit: 10;
      }

      .cls-4 {
        stroke: #4e7ab0;
      }

      .cls-5 {
        fill: #211915;
        font-family: MontserratRoman-ExtraLight, Montserrat;
        font-size: 12px;
        font-variation-settings: 'wght' 200;
      }
    </style>
  </defs>
  <polygon class="cls-2" points="139.75 32.58 135.97 33.03 128.22 35.76 118.47 40.77 109.21 46.98 104.39 51.55 102.36 53.99 100.47 56.68 99.35 59.02 101.34 60.86 105.79 63.8 112.67 65.85 118.8 66.59 124.7 66.92 128.93 66.56 134.77 65.77 137.64 64.16 139.38 62.69 140.04 60.34 141.73 54.81 142.65 50.55 143.83 42.88 143.69 36.68 143.22 33.92 142.08 33.03 139.75 32.58"/>
  <polygon class="cls-3" points="181.57 138.94 179.35 139.37 177.19 139.62 176.66 140.22 178.23 141.43 181.73 143.3 183.59 144.89 184.49 146.47 185.37 148.02 185.87 148.44 189.9 147.55 201.21 144.23 209.1 141.55 218.27 137.8 223.31 135.46 228.97 132.14 234.47 129.11 240.09 125.13 244.61 121.32 243.01 121.55 238.03 123.75 228.17 128.06 217.13 131.74 207.97 134.39 200.32 135.96 186.98 138.48 181.57 138.94"/>
  <polygon class="cls-1" points="178.4 156.16 174.02 157.8 166.52 159.48 160.2 160.57 150.08 161.37 146.09 161.47 142.2 161.35 137.42 161.12 131.83 160.63 125.53 159.57 122.61 158.82 114.89 156.77 109.48 154.76 105 152.49 102.82 150.44 100.65 146.32 100.25 143.17 100.65 142.75 104.82 145.82 112.05 149.38 120.58 152.39 126.09 154.19 132.55 155.81 137.08 156.63 140.64 157.46 143.57 157.71 146.98 157.94 150.53 158.27 153.32 158.25 158.95 158.19 160.28 158.13 164.05 157.96 166.04 157.64 170.86 156.87 174.6 156.22 178.09 155.58 178.4 156.16"/>
  <polygon class="cls-3" points="46.55 114.35 45.71 115.28 44.77 116 43.03 116.74 41.76 117.43 40.05 117.82 36.53 118.29 33.86 118.17 31.68 117.81 26.36 116.03 18.51 112.06 13.52 109.1 7.62 104.45 7.08 104.8 7.48 106.25 8.2 107.7 9.93 110.64 11.38 112.58 15.63 117.11 21.25 121.64 33.45 128.9 50.59 136.42 73.48 143.92 81.33 145.9 89.14 147.69 96.07 148.81 99.62 149.58 101.6 149.87 100.32 147.64 99.91 145.59 99.62 141.45 99.91 138.49 100.18 136.27 97.71 135.91 96.25 135.44 84.17 132.02 68.29 126.05 53.45 118.66 46.55 114.35"/>
  <path class="cls-3" d="M340.35,111.49c-.31,.77-.8,1.37-1.82,2.23-1.95,1.65-3.67,2.43-3.67,2.43-6.24,2.87-12.58,3.92-12.58,3.92-1.63,.26-6.51,1.01-12.91,.69-2.34-.11-6.13-.42-10.66-1.42-1.2-.26-4.33-.99-8.22-2.38-3.26-1.17-4.03-1.72-10.48-4.21-1.95-.76-3.51-1.34-5.69-1.79-2.92-.61-4.98-.59-5.53-.58-.41,.01-2.2,.07-4.59,.6-.82,.18-2.8,.67-6.03,2.12-1.18,.53-4.29,1.99-8.55,4.87-1.18,.8-1.62,1.14-2.92,2.15h-.01c-.72,.57-1.71,1.31-3.23,2.46-3.78,2.84-5.67,4.26-7.61,5.58-4.12,2.81-7.45,4.55-10.6,6.19-1,.52-5.58,2.91-11.97,5.53-1.14,.48-5.07,2.07-10.36,3.84-1.8,.6-6.12,2-11.81,3.48-2.25,.58-4.18,1.03-5.66,1.37-.36-.89-.97-2.15-2.02-3.42-1.36-1.66-2.84-2.62-5.29-3.96-3.85-2.13-6.91-3.49-7.21-3.62-4.51-1.98-5.46-2.2-11.12-4.58-1.95-.82-3.81-1.62-7.5-3.23-3.73-1.61-5.14-2.25-7.84-3.36-2.25-.92-3.7-1.52-5.78-2.27-2.34-.85-4.39-1.59-7.12-2.27-2.12-.53-4.44-1.12-7.57-1.33-2.6-.17-5.15-.33-8.39,.54-3.44,.93-5.92,2.58-7.3,3.66-.59,.46-2.33,1.86-4.03,4.17-.74,1-2.49,3.54-3.54,7.25-.82,2.89-.83,5.16-.83,5.7v.34c.02,.88,.11,1.61,.16,2.11,.17,1.48,.28,2.4,.74,3.48,.35,.85,1.29,2.15,1.71,2.65-.29-.05-.75-.11-1.31-.22-28.52-4.77-48.76-12.45-58.93-16.73,0,0-9.83-4.12-20.37-10.94,0,0-7.06-4.56-11.97-11.43-1.03-1.45-1.85-3.27-2.11-3.85-.33-.75-.71-1.71-.85-2.97-.02-.2-.02-.36-.03-.48-.2-.16-.46-.37-.78-.65-1.26-1.09-2.07-2.05-2.32-2.34-.58-.68-1.05-1.27-1.48-2-.11-.2-.23-.42-.34-.65-.52-1.09-1.17-2.43-.85-4.09,.26-1.37,1.01-2.27,1.39-2.71,.93-1.11,1.99-1.64,2.63-1.94,4.1-1.91,8.97-2.68,9.4-2.74,.29-.05,2.7-.31,7.51-.84,3.19-.35,3.28-.36,3.73-.43,2.11-.32,4.9-.75,7.94-2.04,2.04-.87,3.34-1.78,5.67-3.4,2.41-1.68,3.09-2.42,5.97-4.69,1.45-1.14,4.05-3.19,6.73-4.92,3.83-2.46,7.04-3.77,9.75-4.86,6.75-2.72,12.36-3.76,16.09-4.44,3.75-.68,6.93-1.01,8.43-1.17,.72-.08,3.77-.39,7.84-.57,1.82-.08,3.39-.11,4.59-.14,.26-.66,.65-1.56,1.21-2.58,.24-.42,1.04-1.83,2.85-3.95,.35-.41,1.66-1.93,3.9-3.94,2.08-1.88,3.78-3.14,5.03-4.04,.61-.45,3.23-2.34,6.92-4.52,2.59-1.51,4.75-2.59,6.06-3.22,2.57-1.25,4.44-1.98,4.93-2.17,1.39-.54,2.47-.91,2.88-1.04,4.65-1.56,6.77-1.64,8.27-1.42,.45,.08,1.26,.22,1.91,.84,.7,.67,.88,1.55,.95,1.98,.78,4.67,.16,9.58,.16,9.58-.52,4.09-1.21,7.25-1.79,9.58-.36,1.47-.71,2.7-.96,3.54-.59,1.6-1.18,3.21-1.76,4.8,2.3,.39,5.29,.91,8.83,1.6,.19,.03,.4,.07,.59,.11l.11,.02c1.29,.25,2.63,.51,4.04,.8,6.97,1.43,12.05,2.66,20.99,4.86,7.63,1.87,13.43,3.37,18.55,4.7,7.32,1.89,13.67,3.6,16.93,4.46,5.16,1.39,9.5,2.57,16.15,4.27,4.53,1.17,6.64,1.68,8.56,2.13,7.23,1.69,10.92,2.29,13.91,2.66,4.31,.55,6.8,.59,9.48,.17,3.28-.52,5.05-1.43,5.58-1.72,2.72-1.46,4.34-3.47,5.02-4.31,1.08-1.37,1.85-2.76,2.57-4.08,.61-1.11,.78-1.55,1.35-2.68,1.22-2.42,2.32-4.18,3.22-5.58,1.71-2.73,3.23-4.77,3.99-5.76,3.24-4.27,6.06-7.06,6.78-7.76,.11-.12,2.24-2.17,5.38-4.47,.88-.66,2.84-2.05,5.32-2.39,.78-.1,1.52-.09,2.23,.28,.95,.49,1.36,1.33,1.59,1.8,.39,.8,.44,1.51,.51,2.51,.07,1.08-.01,1.89-.02,2.05,0,0-.25,2.68-.34,7.55-.01,.57-.03,2.88,.29,5.74,.17,1.54,.5,4.25,1.54,7.49,.48,1.49,1.8,5.24,4.7,9.38,2.72,3.86,5.49,6.17,7.66,7.95,3.65,3,6.89,4.76,9.25,6.05,1.59,.86,3.85,2.1,6.77,3.26,.85,.34,2.63,1.02,5.47,2.19,.74,.31,1.35,.55,1.74,.72,.22,.07,2,.71,2.47,2.41,.29,1.05-.08,1.98-.25,2.39Z"/>
  <path class="cls-2" d="M185.39,152.23c-.23,.49-.53,.78-.89,1.13-.29,.28-.63,.55-1.37,1.01-.07,.05-.14,.08-.2,.12t-.02,.01c-1.05,.29-2.83,.68-4.8,1.08l-3.49,.63-3.75,.66-4.81,.77c-1.66,.19-3.61,.37-5.76,.49l-1.33,.06-5.63,.06c-2.22-.03-4.33-.15-6.34-.31-8.37-.66-15.15-2.28-21.21-4.29,0,0-8.22-2.23-15.95-5.76-2.17-1-3.27-1.49-4.65-2.4-1.03-.68-2.02-1.44-3.82-2.48-.63-.36-1.06-.6-1.44-.79v-.34c0-.53,.01-2.81,.83-5.7,1.05-3.7,2.81-6.25,3.54-7.25,1.7-2.31,3.44-3.7,4.03-4.17,1.38-1.08,3.86-2.73,7.3-3.66,3.24-.87,5.79-.71,8.39-.54,3.13,.2,5.45,.79,7.57,1.33,2.73,.68,4.78,1.42,7.12,2.27,2.07,.75,3.52,1.35,5.78,2.27,2.7,1.11,4.11,1.76,7.84,3.36,3.69,1.61,5.55,2.41,7.5,3.23,5.66,2.38,6.61,2.59,11.12,4.58,.31,.14,3.36,1.49,7.21,3.62,2.45,1.35,3.93,2.3,5.29,3.96,1.04,1.27,1.65,2.53,2.02,3.42,.17,.72,.2,1.33,.2,1.76,.01,.76,.01,1.29-.27,1.89Z"/>
  <path class="cls-3" d="M180.72,155.03s-1.12,1.11-2.1,1.51c-1.95,.77-7.62,2.77-17.96,4.27-2.48,.36-9.72,1.31-19.17,.95-8.82-.34-15.29-1.66-17.11-2.05-2.64-.57-4.61-1.14-8.55-2.29,0,0-5.57-1.62-10.18-4.19-.77-.43-1.64-1.02-2.45-1.93-.32-.35-.55-.67-.68-.86-.42-.5-1.36-1.8-1.71-2.65-.45-1.08-.57-1.99-.74-3.48-.05-.5-.14-1.22-.16-2.11,.37,.19,.8,.43,1.44,.79,1.8,1.04,2.79,1.8,3.82,2.48,1.38,.91,2.48,1.4,4.65,2.4,7.72,3.53,15.95,5.76,15.95,5.76,6.06,2.02,12.84,3.64,21.21,4.29,2.02,.16,4.12,.27,6.34,.31l5.63-.06,1.33-.06c2.15-.11,4.1-.29,5.76-.49l4.81-.77,3.75-.66,3.49-.63"/>
  <path class="cls-3" d="M100.32,136.08c-.35-.08-.84-.19-1.42-.33-2.69-.63-4.85-1.2-6.15-1.55-.88-.24-3.63-.99-6.77-1.97-7.99-2.49-14.43-5.18-15.44-5.6-1.7-.71-6.51-2.77-12.27-5.78-4.42-2.31-7.3-4.09-9.86-5.86-.71-.49-1.3-.91-1.7-1.21-.54,.55-1.35,1.29-2.45,2-2.6,1.67-5.08,2.02-6.23,2.17-2.39,.31-4.24,.01-5.43-.19-1.79-.3-3.08-.75-4.32-1.2-.5-.18-1.96-.71-5.52-2.52-1.99-1.01-4.04-2.05-6.72-3.67-2.38-1.44-4.17-2.68-5.2-3.39-.99-.69-3.29-2.69-3.9-3.14"/>
  <path class="cls-3" d="M98.83,59.25c1.29,1.2,3.01,2.57,5.2,3.81,3.45,1.95,6.39,2.63,8.95,3.19,1.91,.42,7.86,1.61,15.68,.68,2.47-.29,4.99-.04,7.62-1.52,1.43-.8,2.43-1.76,3.06-2.46"/>
  <path class="cls-3" d="M176.07,139.62c2.25-.24,4.98-.57,8.07-1,4.97-.7,8.8-1.4,10.44-1.71,7.06-1.31,12.41-2.65,14.08-3.08,3.64-.93,9.14-2.34,16.14-4.8,6.86-2.42,12.23-4.81,17.45-7.15,2.57-1.16,2.93-1.02,4.45-1.73"/>
  <path class="cls-3" d="M166.04,157.65c2.51-.29,4.44-.62,5.58-.84,1.86-.35,4.28-.79,6.47-1.22l3.14-.67c.41-.08,.99-.21,1.68-.42,.98-.3,1.48-.45,1.89-.82,.64-.56,.82-1.32,.9-1.63,.08-.33,.08-.5,.13-1.63,.03-.71,.06-1.08,.07-1.51,0-.34,0-.63,0-.83"/>
  <path class="cls-3" d="M153.32,158.25c.24,0,.48,.01,.71,.01,2.23,.03,4.33-.02,6.24-.12"/>
  <path class="cls-4" d="M99.91,142.21c-.09-.05-.17-.09-.25-.14-.01-.01-.03-.01-.05-.02"/>
  <polygon class="cls-2" points="98.74 59.64 96.85 59.64 93.79 59.76 89.9 59.96 84.5 60.5 77.75 61.45 72.8 62.52 67.27 63.87 60.81 66.27 55.88 68.68 50.6 71.6 46.24 74.96 40.16 79.88 34.65 83.33 30.74 84.9 24.14 86.03 16.57 86.85 13 87.34 8.15 88.69 4.44 90.14 2.3 91.93 1.28 95.1 2.35 98.84 5.36 101.91 8.26 104.63 13.54 108.61 18.24 111.3 24.5 114.7 32.6 117.57 39.11 117.49 42.67 116.46 45.42 114.59 46.73 113.67 47.51 114.21 51.55 116.8 55.98 119.21 63.3 122.94 70.07 126.19 76.58 128.59 84.33 131.37 96.9 135.13 100.54 135.82 101.95 132.28 103.44 129.64 106.12 126.27 109.4 123.62 113.17 121.61 115.35 120.83 119.7 120.14 124.27 120.26 133.08 121.93 142.2 125.09 158.51 132.08 175.69 139.37 176.6 139.37 181.4 138.65 187.92 137.81 194.54 136.61 203.29 134.76 215.56 131.62 225.26 128.59 236.12 124.16 243.59 121.05 247.68 119.09 252.31 115.93 256.82 113.44 263.21 110.92 267.69 110.11 273.37 110.52 279.81 112.24 287.53 115.4 296.87 118.77 304.67 120.1 315.79 120.48 321.58 119.86 329.28 118.01 334.82 115.75 336.86 114.55 339.3 112.75 340.35 110.51 340.35 108.87 339.79 108.12 338.62 107.09 336.22 106.1 332.03 104.48 327.59 102.73 321.32 99.31 314.52 94.65 307.32 87.47 304.58 82.64 302.17 76.78 300.56 69.05 300.51 59.64 300.75 54.73 300.46 52.34 299.37 50.57 298.05 49.91 297.14 49.91 295.7 50.3 293.19 51.16 290.9 52.82 287.79 55.4 284.34 58.75 281.44 62.18 278.22 66.32 275.44 70.5 273.15 74.38 271.09 78.21 268.45 82.56 265.65 85.33 264.66 86.27 263.42 87 261.91 87.45 260.8 87.94 259.13 88.21 257.42 88.89 253.01 89.08 243.34 87.82 234.05 85.88 228.23 84.48 215.18 80.96 203.48 77.93 183.8 72.93 148.52 64.34 140.1 63.1 139.34 63.17 137.05 65.21 133.11 66.94 126.94 67.29 111.84 66 105.45 64.17 102.63 62.55 98.74 59.64"/>
  <text class="cls-5" transform="translate(122.64 199.2)"><tspan x="0" y="0">Mamíferos</tspan></text>
  <ellipse class="cls-2" cx="123.32" cy="65.76" rx="11.2" ry="3.37"/>
</svg>