<?xml version="1.0" encoding="UTF-8"?>
<svg id="Capa_2" data-name="Capa 2" xmlns="http://www.w3.org/2000/svg" viewBox="0 0 210.82 217.36">
  <defs>
    <style>
      .cls-1 {
        fill: #80a7b7;
      }

      .cls-2 {
        fill: #9f9f9f;
      }

      .cls-3 {
        fill: #3b538b;
      }

      .cls-4 {
        fill: #211915;
        font-family: MontserratRoman-ExtraLight, Montserrat;
        font-size: 12px;
        font-variation-settings: 'wght' 200;
      }
    </style>
  </defs>
  <path class="cls-3" d="M124.36,140.63c-.77-.41-1.57-.42-2.09-.38l-1.55,.84-2.08,2.08-1.11,2.06-1.75,1.93-.27,.9c.14-.07,.29-.15,.44-.24,.13-.07,.18-.13,.29-.17,.06-.02,.13-.03,.36-.04,.18,0,.27-.01,.4,0,.53,.01,1.07,.13,1.11,.14,.51,.11,.88,.25,.97,.29,.67,.26,1.15,.45,1.51,.88,.58,.69,.36,1.42,.89,1.63,.22,.08,.44,.03,.65-.02,.43-.1,.72-.36,.91-.53,.27-.25,.27-.35,.61-.75,0,0,.29-.34,.66-.66,.65-.57,1.31-.85,1.66-.99,.59-.24,1.14-.47,1.88-.46,.72,0,.98,.23,1.1,.1,.25-.3-1.01-1.4-2.31-3.45-1.14-1.78-1.24-2.58-2.27-3.14Z"/>
  <path class="cls-3" d="M93.58,145.79s.15,.17,.42,.43c.25,.24,.28,.25,.43,.39,.13,.13,.39,.38,.63,.75,.17,.26,.26,.39,.31,.6,.11,.38,0,.56,.13,.73,.14,.18,.37,.14,.67,.19,.92,.16,1.09,.44,1.14,.57,.02,.03,.03,.06,.03,.08,.02,0,.04-.02,.07-.03,.16-.06,.79-.29,1.69-.39,.62-.07,1.47-.16,2.51,.12,.09,.02,1.37,.35,1.68,.75,.13,.16,.32,.27,.47,.4,.03,.03,.09,.07,.14,.06,.11-.03,.12-.29,.12-.36,.05-.73,.63-1.6,.75-4.66,.06-1.56,.08-2.35-.29-2.9-.52-.77-1.36-1.04-1.66-1.13-1.38-.44-2.65,.09-3.62,.49-.75,.31-.63,.38-2.65,1.62-1.61,.99-3.13,1.85-2.99,2.28Z"/>
  <path class="cls-2" d="M99.79,111.59c-.31,.59,.43,1.18,1.65,3.46,.42,.78,1.26,2.38,1.79,4.31,.13,.47,.35,1.36,.55,3.65,.26,2.98,.22,5.27,.22,5.79-.04,2.22-.04,5.44,.11,9.79-4.19,2.39-8.38,4.78-12.57,7.18-.03,.01-.26,.13-.3,.37,0,.03-.04,.23,.09,.35,.06,.05,.12,.07,.16,.07,.37,.07,.65,.01,.65,.01,1.13-.26,1.28-.19,1.76-.44,.43-.22,.71-.47,.85-.6,1.54-1.37,3.67-2.49,4.58-2.98,.39-.2,.97-.5,1.72-.81,.07-.02,.16-.03,.2,.02,.06,.06,0,.21-.03,.26-.15,.33-3.8,4.35-5.75,6.48-.01,.11-.04,.27-.09,.46-.08,.28-.14,.36-.15,.56,0,.14-.02,.33,.1,.47,.15,.18,.42,.17,.55,.17,.24,0,.42-.1,.62-.19,.16-.08,.19-.12,.42-.24,.17-.09,.32-.16,.41-.2,.22-.25,.54-.62,.94-1.08,2.28-2.59,1.91-2.05,3.3-3.64,.26-.3,.74-.84,1.47-1.47,.28-.23,.51-.42,.67-.53,.06-.02,.15-.05,.24-.01,.14,.06,.19,.25,.22,.39,.18,.98,.13,1.87,.13,1.87-.04,.7,0,.41-.05,1.15-.01,.23-.06,.96-.17,2.17-.05,.55-.13,1.25-.23,2.07,.05,.06,.12,.14,.22,.23,.18,.17,.27,.26,.39,.26,.17,0,.29-.16,.34-.22,.12-.15,.14-.31,.18-.52,.13-.81,.1-.46,.12-.73,.07-.9,.21-1.79,.25-2.7,.03-.86,.21-2.34,.87-5.08,.21-.04,.38-.08,.5-.12,.47-.14,.58-.26,.62-.31,.04-.06,.11-.14,.12-.25,0-.16-.12-.28-.16-.32-.33-.33-.85-1.05-1.06-1.43-.29-.52-.36-1.03-.41-1.34-.05-.39-.04-.69-.04-.79,.06-1.76,0-3.52,.08-5.28,.17-3.68,.26-5.52,.2-6.84,0,0-.08-2.01,.32-2.92,.02-.05,.14-.31,.22-.67,.05-.23,.11-.52,.06-.86-.02-.12-.07-.36-.31-.77-.32-.54-.58-.7-.89-1.1-.13-.17-.32-.43-.67-1.27-.8-1.9-1.43-4.28-1.43-4.28-.31-1.17-.34-1.45-.67-1.73-.84-.71-2.53-.55-2.91,.18Z"/>
  <path class="cls-2" d="M117.47,111.97c-.2,.26,.7,.98,1.78,2.97,.64,1.17,.41,1.2,.93,1.97,0,0,.24,.4,.37,1,.04,.18,.08,.43,0,.69-.02,.06-.04,.11-.09,.21-.1,.21-.17,.32-.24,.46-.06,.11-.18,.34-.29,.63-.07,.19-.11,.32-.13,.51-.04,.37,.04,.65,.07,.75,.03,.1,.1,.22,.22,.45,.19,.36,.25,.41,.33,.61,.07,.17,.1,.3,.14,.55,.07,.39,.08,.65,.12,1.21,.03,.49,0,.07,.06,.77,.07,1.06,.12,1.84,.12,1.84,.09,1.61,.16,3.05,.16,3.17,.02,.46,.07,1.62,.13,3.12,.12,3.25,.07,3.01,.1,3.17,.05,.24,.19,.9,.02,1.64-.07,.33-.2,.65-.21,.69-.09,.23-.2,.43-.47,.89-.26,.43-.47,.75-.61,.95-.45,.68-.68,1.01-.83,1.23-.44,.62-.78,1.03-1.14,1.47-.18,.22-1.61,1.97-2.84,3.65-.45,.61-.8,1.11-1,1.41-.02,.04-.06,.1-.08,.18-.02,.08-.04,.18,0,.25,0,.01,.04,.05,.16,.07,.17,.03,.31-.03,.35-.04,.21-.09,.53-.21,.92-.38,.32-.42,.65-.83,.98-1.25,1.32-1.67,2.65-3.26,3.99-4.79,.01-.02,.04-.04,.06-.07,.07-.08,.19-.2,.38-.38,0,0,.09-.09,.33-.27,.05-.04,.1-.08,.17-.07,.05,0,.09,.04,.14,.12,.1,.17,.11,.35,.11,.42,.02,.43,.06,.07,.06,.61,.03,2.61-.03,3.32-.03,3.32-.1,1.25-.2,2.71-.31,4.53,.02,.07,.05,.17,.09,.29,.06,.17,.12,.34,.25,.51,.11,.14,.21,.27,.37,.3,.28,.05,.57-.24,.68-.48,.04-.08,.06-.15,.08-.27,.04-.14,.05-.25,.07-.49,.04-.43,.04-.4,.04-.43,.15-1.87,.16-3.39,.16-3.39,0-.93,.09-2.34,.44-4.44,.01-.05,.02-.09,.03-.12,.03-.11,.05-.14,.07-.16,.02-.03,.04-.05,.07-.06,.05-.02,.11,0,.14,.02,.29,.15,.66,.57,.66,.57,.23,.26,.06,.05,.25,.27,.62,.72,.95,1.14,.95,1.14,.71,.92,1.13,1.48,1.13,1.48,.41,.54,.94,1.27,1.56,2.14,.05,0,.13,.03,.22,.06,.08,.03,.14,.06,.31,.16,.16,.09,.23,.13,.37,.21,0,0,.16,.09,.31,.09,.01,0,.03,0,.06-.01,.05-.02,.07-.07,.08-.1,.03-.07,.02-.14,0-.18-.08-.34-.17-.56-.17-.56-.04-.11-.07-.16-.1-.22-.3-.64-.57-1.12-.57-1.12-.37-.66-.56-.99-.8-1.4-.3-.49-.8-1.33-1.5-2.32-.16-.23-.28-.4-.7-.99-.34-.49-.52-.74-.71-1.03-.32-.48-.48-.72-.59-.93-.27-.52-.38-.97-.45-1.24-.13-.51-.16-.88-.2-1.42-.05-.7-.02-.9-.05-1.9,0-.28-.03-.61-.07-1.28-.02-.33-.06-1.13-.16-2.48-.06-.94-.12-1.65-.16-2.23-.02-.22-.09-1.18-.19-2.52-.07-.88-.16-1.97-.27-3.24,.11-.05,.27-.12,.45-.25,.24-.17,.56-.39,.69-.8,.03-.1,.08-.3,.04-.55-.03-.17-.09-.32-.53-.9-.32-.42-.34-.42-.47-.61-.22-.34-.34-.63-.42-.85-.07-.18-.26-.7-.36-1.58-.04-.35-.08-.91-.04-1.66,.09-1.63,.45-1.93,.19-2.3-.35-.49-1.07-.1-2.64-.35-1.62-.26-2.4-.93-2.59-.69Z"/>
  <path class="cls-3" d="M88.35,75.05c.05,.78-1.35,1.32-2.42,2.05-.95,.64-2.1,1.75-3.03,3.79h1.77c-.52,.43-1.28,1.07-2.17,1.87-1.6,1.45-2.9,2.64-4.25,4.39-1.57,2.04-1.95,3.22-2.05,3.55-.16,.54-.44,1.48-.34,2.67,.11,1.29,.61,2.34,1.46,3.63,1.4,2.11,2.84,3.54,3.98,4.62,3.36,3.21,5.03,4.82,7.38,6.42,1.37,.94,2.82,1.92,4.96,2.86,.74,.33,2.9,1.24,6.9,2,3.88,.73,6.82,.82,10.42,.9,3.53,.08,6.39,.15,10.23-.36,3.01-.39,5.18-.64,7.89-1.67,3.04-1.15,5.28-2.69,6.71-3.81,2.33,1.81,4.16,3.31,5.39,4.34,0,0,2.36,1.98,6.27,4.09,.62,.33,1.63,.86,2.03,.5,.1-.09,.38-.42-.25-2.02-1.13-2.86-3.16-4.61-3.1-4.67,.06-.06,2.08,1.8,3.39,2.95,2.14,1.89,1.69,1.29,5.87,4.68,0,0,.46,.38,4.81,3.04,.43,.26,1.29,.78,1.8,.45,.25-.17,.34-.49,.37-.73-.56-1.01-1.25-2.1-2.1-3.24-1.27-1.7-2.57-3.05-3.74-4.11,2.01,1.32,3.79,2.46,5.26,3.39,4.73,2.98,2.28,1.27,5.29,3.1,.69,.42,1.46,.69,2.17,1.05,.77,.39,1.34,.7,1.71,.46,.21-.13,.28-.4,.31-.61l-.97-1.52c-.45-.56-1.13-1.39-1.98-2.39-3.23-3.78-5.81-6.3-8.53-8.97-7-6.88-6.55-6.58-9.14-9.06-15.24-14.6-23.66-15.17-26.33-22.61-.41-1.13-1.5-4.69-4.65-6.9-1.63-1.14-3.57-1.75-4.16-1.93-2.09-.64-3.93-.77-5.19-.76,.36-.61,.8-1.45,1.17-2.5,.23-.63,.7-1.99,.79-3.71,.16-2.99-.92-5.28-1.32-6.05-1.21-2.34-2.87-3.58-4.15-4.55-2.72-2.05-5.35-2.77-6.33-3-1.13-.27-3.58-.82-6.68-.2-1.15,.23-3.6,.75-5.98,2.67-3.29,2.65-4.23,6.21-4.63,7.83-.52,2.1-.53,3.92-.44,5.13,.33,.13,.81,.32,1.37,.61,1.57,.8,2.69,1.74,3.33,2.35,.92,.87,.71,.9,1.49,1.57,.76,.64,1.31,.91,1.66,1.62,.23,.47,.26,.92,.26,1.21-1.64,.49-3.27,.99-4.91,1.48,.35,.71,.67,1.27,.9,1.65,.5,.85,.87,1.41,.87,1.41,.55,.86,.62,.88,.63,1.04Z"/>
  <path class="cls-1" d="M118.74,68.42c-1.43-.26-3.01-.23-3.01-.23-.04,0-.46,0-.89,.04-2.2,.17-4.22,.96-4.47,1.06-2.53,1.01-4.21,2.47-5.24,3.39-1.78,1.59-2.86,3.08-3.82,4.43-1.24,1.74-2.1,3.31-2.67,4.47,.33-.19,.79-.45,1.35-.75,.3-.17,1.04-.57,1.69-.9,.69-.35,1.68-.81,2.96-1.31-.38,.37-.89,.91-1.44,1.61-.63,.81-1.57,2.04-2.18,3.8-.27,.77-.8,2.36-.58,4.4,.26,2.46,1.46,4.15,2.19,5.15,.79,1.08,1.61,1.85,2.22,2.36-.13-.76-.17-1.4-.17-1.87,0-.57,0-1.1,.15-1.78,.13-.6,.33-1.07,.49-1.38,.03,.31,.09,.79,.19,1.36,.18,1.02,.47,2.65,1.35,4.52,.37,.78,.69,1.45,1.34,2.22,.33,.39,.97,1.14,2.02,1.71,.6,.32,1.08,.45,2.03,.68,2.25,.56,3.38,.84,3.81,.93,2.2,.48,1.37,.32,4.24,.95,1.9,.42,3.35,.72,4.62,1,.57,.12,2.12,.45,4.37,.92,1.91,.4,4.4,.91,7.35,1.5-.42-.52-.83-1.03-1.25-1.55,.86,.26,1.93,.51,3.19,.67,.49,.06,.89,.08,1.68,.13,0,0,1.2,.07,3.32-.23,.18-.02,.54-.08,.65-.32,.06-.14,.01-.29-.02-.38-.26-.68-.94-1.3-1.34-1.7-.17-.17,.32,.31-.86-.95-.54-.57-1.3-1.37-2.27-2.35,.37,.12,.86,.28,1.44,.43,.52,.14,1.56,.4,2.9,.6,1.64,.25,2.94,.29,3.46,.3,0,0,1.98,.04,4.13-.49,.26-.06,.82-.21,1.25-.69,.12-.13,.41-.47,.42-.94,.01-.37-.15-.65-.24-.8-.6-1.01-.9-1.52-1.49-2.03-2.31-2-9.35-10.82-24.38-22.82,0,0-.74-.59-2-1.51-3.05-2.21-4.61-3.32-6.47-3.65Z"/>
  <path class="cls-1" d="M82.82,61.94c.43-.09,1,.02,2.82,1.46,2.77,2.19,2.58,2.82,4.03,3.65,.21,.12,.73,.4,1.05,1,.28,.52,.29,1.06,.26,1.43-1.68,.54-3.4,1.05-5.18,1.54-8.6,2.36-16.74,3.63-24.16,4.21,.37-.36,.89-.86,1.51-1.44,.54-.51,2.15-2,3.95-3.5,1.44-1.2,3.07-2.55,5.24-3.96,3.62-2.34,5.61-3.14,6.68-3.49,.76-.24,1.39-.4,1.39-.4,.38-.07,.51-.07,.92-.14,.81-.14,1.22-.31,1.48-.36Z"/>
  <text class="cls-4" transform="translate(93.57 190.77)"><tspan x="0" y="0">Aves</tspan></text>
</svg>