<?xml version="1.0" encoding="UTF-8"?>
<svg id="Capa_2" data-name="Capa 2" xmlns="http://www.w3.org/2000/svg" viewBox="0 0 222.46 217.36">
  <defs>
    <style>
      .cls-1 {
        fill: none;
      }

      .cls-2 {
        fill: #80a7b7;
      }

      .cls-3 {
        fill: #9f9f9f;
      }

      .cls-4 {
        fill: #3b528b;
      }

      .cls-5 {
        fill: #211915;
        font-family: MontserratRoman-ExtraLight, Montserrat;
        font-size: 12px;
        font-variation-settings: 'wght' 200;
      }
    </style>
  </defs>
  <path class="cls-4" d="M146.81,116.97c-.24-18.13-.31-30.75,0-33.85,.05-.44,.24-2.08-.5-3.71-.12-.26-.85-1.82-2.43-2.63-1.13-.58-2.15-.54-2.63-.49H71.75c-.34,.09-.8,.23-1.31,.46-.72,.32-1.11,.49-1.51,.89-.5,.52-.72,1.1-.98,1.78-.24,.62-.36,1.17-.43,1.56,0,12.93,0,25.87,0,38.8,.07,.52,.3,1.78,1.23,2.92,1.23,1.51,2.81,1.74,3.21,1.79,23.49,0,46.99-.01,70.49-.02,.37-.14,3.54-1.43,4.31-4.77,.25-1.08,.17-2.05,.04-2.75Zm-25.29-2.47c-4.3,5.46-9.74,6.68-11.22,6.96-4.78,.89-8.57-.49-10.13-1.17-1.39-.61-5.47-2.59-8.6-7.47-.83-1.3-3.03-4.8-3.44-9.95-.3-3.63,.43-6.36,.95-8.31,.58-2.18,1.66-6.06,4.79-9.51,.31-.35,1.35-1.46,2.91-2.57,5.16-3.66,10.55-3.41,11.42-3.36,1.56,.1,6.6,.62,11.24,4.95,5.69,5.32,6.57,12.49,6.72,13.85,.12,1.17,.88,9.57-4.64,16.58Zm21.19-29.33c-.02,.26-.07,.67-.32,1.01-.23,.32-.53,.46-.58,.48-.16,.07-.29,.1-.39,.11-3.12,.1-5.43,.09-6.21,.01-.23-.02-.62-.08-.95-.4-.33-.32-.44-.76-.45-.81-.05-.19-.05-.35-.05-.41-.01-1.22-.14-1.81,0-3.37,.06-.64,.11-.89,.28-1.15,.3-.45,.77-.59,.8-.61,.15-.04,.27-.05,.37-.05,2.11,0,4.21,.02,6.32,.02,.11,.03,.54,.14,.87,.59,.29,.41,.31,.86,.31,1,.01,.24,.11,2.26,0,3.57Z"/>
  <path class="cls-1" d="M69.11,76.26s-.08,.02-.13,.03h-.11"/>
  <path class="cls-3" d="M128.75,97.88c-.16-1.36-1.14-8.53-7.48-13.85-5.16-4.32-10.78-4.85-12.52-4.95-.97-.05-6.97-.31-12.72,3.36-1.75,1.12-2.9,2.23-3.25,2.57-3.49,3.45-4.69,7.32-5.34,9.51-.58,1.95-1.39,4.68-1.06,8.31,.46,5.15,2.91,8.66,3.84,9.95,3.49,4.87,8.04,6.86,9.59,7.47,1.73,.68,5.95,2.06,11.28,1.17,1.65-.28,7.71-1.5,12.5-6.96,6.15-7.01,5.31-15.41,5.17-16.58Zm-7.75,9.06c-2.89,5.91-8.6,7.61-9.42,7.84-5.4,1.51-9.79-.58-10.75-1.06-4.2-2.12-6.09-5.58-6.64-6.68-.55-1.1-2-4.35-1.43-8.62,.46-3.49,2.04-5.91,2.82-6.95,.77-1.04,2.83-3.53,6.48-4.98,1.25-.49,3.79-1.31,6.86-.99,5.58,.57,11.33,4.72,13.08,10.95,1.46,5.21-.52,9.54-.99,10.49Z"/>
  <path class="cls-1" d="M121.83,106.97c-2.89,5.91-8.6,7.61-9.42,7.84-5.4,1.51-9.79-.58-10.75-1.06-4.2-2.12-6.09-5.58-6.64-6.68-.55-1.1-2-4.35-1.43-8.62,.46-3.49,2.04-5.91,2.82-6.95,.77-1.04,2.83-3.53,6.48-4.98,1.25-.49,3.79-1.31,6.86-.99,5.58,.57,11.33,4.72,13.08,10.95,1.46,5.21-.52,9.54-.99,10.49Z"/>
  <path class="cls-1" d="M121.83,106.97c-2.89,5.91-8.6,7.61-9.42,7.84-5.4,1.51-9.79-.58-10.75-1.06-4.2-2.12-6.09-5.58-6.64-6.68-.55-1.1-2-4.35-1.43-8.62,.46-3.49,2.04-5.91,2.82-6.95,.77-1.04,2.83-3.53,6.48-4.98,1.25-.49,3.79-1.31,6.86-.99,5.58,.57,11.33,4.72,13.08,10.95,1.46,5.21-.52,9.54-.99,10.49Z"/>
  <path class="cls-2" d="M110.71,90.3c-.39,.11-1.36,.45-2.15,1.4-.16,.19-1.13,1.41-.96,3.15,.15,1.48,1.09,2.89,2.57,3.53,1.63,.71,3.53,.31,4.75-.9,1.54-1.53,1.23-3.61,1.2-3.77-.05-.31-.31-1.65-1.54-2.63-1.66-1.32-3.63-.84-3.87-.78Z"/>
  <path class="cls-3" d="M142.98,85.17c-.02,.26-.08,.67-.36,1.01-.26,.32-.59,.46-.64,.48-.17,.07-.32,.1-.43,.11-3.48,.1-6.05,.09-6.92,.01-.26-.02-.7-.08-1.06-.4-.37-.32-.49-.76-.5-.81-.05-.19-.05-.35-.05-.41-.01-1.22-.16-1.81,0-3.37,.07-.64,.13-.89,.31-1.15,.34-.45,.86-.59,.89-.61,.16-.04,.31-.05,.41-.05,2.35,0,4.69,.02,7.04,.02,.13,.03,.61,.14,.97,.59,.32,.41,.35,.86,.35,1,.01,.24,.13,2.26,0,3.57Z"/>
  <path class="cls-2" d="M74.3,76.29v-1.26c0-.74,.6-1.34,1.34-1.34h8.86c.74,0,1.34,.6,1.34,1.34v1.26"/>
  <text class="cls-5" transform="translate(70.86 184.65)"><tspan x="0" y="0">Electrónicos</tspan></text>
</svg>