<?xml version="1.0" encoding="UTF-8"?>
<svg id="Capa_2" data-name="Capa 2" xmlns="http://www.w3.org/2000/svg" viewBox="0 0 217.42 217.36">
  <defs>
    <style>
      .cls-1 {
        fill: #80a7b7;
      }

      .cls-2 {
        fill: #283b54;
      }

      .cls-3 {
        fill: #211915;
        font-family: MontserratRoman-ExtraLight, Montserrat;
        font-size: 12px;
        font-variation-settings: 'wght' 200;
      }
    </style>
  </defs>
  <path class="cls-1" d="M153.4,77.55c-1.07,.43-2.92,1.02-5.27,.97-.74-.01-2.8-.11-5.18-1.15-2.39-1.04-2.52-1.9-5.6-4.1-1.97-1.4-4-2.85-6.95-3.72-1.53-.45-3.87-.92-6.66-.66-2.2,.21-3.83,.79-6.04,1.68-4.86,1.97-8.48,3.84-9.68,4.46-7.87,4.05-11.91,6.1-16.99,7.61-1.46,.43-3.65,1.11-6.5,1.51-2.44,.34-4.24,.34-5.5,.35-2.75,.03-6.77,.16-12.06,.62-4,1.56-7.16,2.2-9.36,2.49-.98,.13-2.37,.27-3.97,1.12-1.05,.55-3.17,1.67-3.88,4.12-.1,.33-.86,3.13,1.05,5.38,1.68,1.98,4.13,1.99,4.47,1.98,.23,.01,.9,.08,1.46,.59,.92,.84,.7,2.11,.68,2.2-.11,.55-.38,.93-.54,1.12-.46,.28-1.09,.72-1.71,1.41-.29,.33-.97,1.09-1.36,2.19-.66,1.83-.15,3.49,.21,4.71,.3,.98,.65,2.1,1.66,3.14,.47,.48,1.09,1.13,2.09,1.41,.8,.23,1.24,.05,2.32,.42,.57,.2,.91,.31,1.24,.63,.63,.61,.89,1.63,.62,2.44-.12,.36-.32,.57-.77,1.03-1.86,1.9-2.07,1.97-2.4,2.45-.8,1.17-.76,2.5-.75,2.94,.07,2.22,1.52,3.64,1.81,3.92,2.2,2.08,5.18,1.51,5.48,1.45,.86-.14,2.17-.37,3.74-.75,1.62-.39,2.25-.64,5-1.46,3.87-1.15,3.73-1,4.89-1.44,1.6-.61,1.93-.93,4.94-2.55,2.82-1.52,5-2.56,7.21-3.61,2.88-1.38,4.32-2.07,5.4-2.46,3.05-1.1,5.47-1.35,8.67-1.65,9.18-.86,13.78-1.29,16.41-1.38,2.95-.1,5.88-.13,9.89-1.01,3.3-.72,4.79-1.45,5.48-1.82,.62-.33,3.57-1.97,6.02-5.41,1.53-2.15,2.42-4.38,3.01-5.89,.61-1.54,1.07-3.04,2.32-5.06,.9-1.46,1.5-2.06,1.93-2.42,.84-.71,1.67-1.08,3.35-1.8,1.16-.5,3-1.2,3.39-1.34,.11-.04,.2-.07,.26-.1-.86-3.15-1.71-6.3-2.57-9.46l-1.32-5.12Z"/>
  <rect class="cls-2" x="152.6" y="76.7" width="2.14" height="17.72" rx=".85" ry=".85" transform="translate(-17.06 43.28) rotate(-15.2)"/>
  <rect class="cls-2" x="155.15" y="73.79" width="11.58" height="18.93" rx="4.51" ry="4.51" transform="translate(-15.11 40.38) rotate(-13.67)"/>
  <text class="cls-3" transform="translate(66.86 184.65)"><tspan x="0" y="0">Envases</tspan></text>
</svg>