<?xml version="1.0" encoding="UTF-8"?>
<svg id="Capa_2" data-name="Capa 2" xmlns="http://www.w3.org/2000/svg" viewBox="0 0 222.46 217.36">
  <defs>
    <style>
      .cls-1 {
        fill: none;
      }

      .cls-2 {
        fill: #fff;
      }

      .cls-3 {
        fill: #80a7b7;
      }

      .cls-4 {
        fill: #283b54;
      }

      .cls-5 {
        fill: #211915;
        font-family: MontserratRoman-ExtraLight, Montserrat;
        font-size: 12px;
        font-variation-settings: 'wght' 200;
      }
    </style>
  </defs>
  <path class="cls-3" d="M161.11,85.9c-2.74-9.74-7.66-15.97-12.64-22.28-5.18-6.56-10.09-12.78-18.29-17.62-20.23-11.96-42.77-5.11-46.23-3.99-2.95,.95-14.84,5.02-25.6,16.28-10.28,10.77-13.81,22.13-14.63,24.95-1,3.42-4.38,16.19-.33,31.92,1.32,5.2,6.38,22.04,22.94,34.25,3.68,2.71,14.82,10.71,31.26,11.64,14.47,.82,25.15-4.3,30.58-6.97,4.3-2.12,13.49-6.8,21.63-16.96,3.63-4.57,9.08-12.74,11.63-24.28,.97-4.38,3.12-14.65-.33-26.94Zm-18.77,23.33c-3.83,17.25-17.43,25.36-20.08,26.88-2.57,1.46-16.56,9.04-32.99,3.58-11.22-3.72-17.61-11.54-20.22-15.29-1.32-1.92-7.62-11.29-7.31-24.74,.23-10.23,4.16-17.47,5.2-19.28,5.65-9.94,13.96-14.43,16.89-15.95,2.38-1.25,8.55-4.39,16.89-4.79,12.43-.59,26.53,5.06,35.11,17.15,10.25,14.45,7.04,30.18,6.52,32.45Z"/>
  <path class="cls-1" d="M91.43,99.05c-6.28,.03-12.57,.04-18.84,.06-.04-.03-.16-.13-.29-.26-2.91-3.44,5.57-16.08,5.57-16.08,.09-.11,.19-.19,.28-.24,.82-.5,2.01,.28,2.08,.34l11.69,11.73,.68,.69c-.34,.37-1.12,1.31-1.22,2.67-.04,.42,0,.78,.05,1.08Z"/>
  <path class="cls-1" d="M92.76,106.69c-4.12,4.74-8.25,9.48-12.36,14.23-.05,.01-.2,.04-.39,.04-4.51-.06-8.44-14.78-8.44-14.78-.03-.14-.03-.26,0-.38,.16-.93,1.53-1.31,1.64-1.34,5.5-.37,11.01-.72,16.52-1.07l.97-.06c.05,.5,.24,1.72,1.2,2.7,.29,.29,.59,.5,.86,.67Z"/>
  <path class="cls-1" d="M100.14,129.67s-.13,.16-.28,.29c-3.39,2.96-16.14-5.35-16.14-5.35-.13-.09-.2-.19-.25-.28-.52-.81,.25-2.01,.3-2.09,3.86-3.95,7.72-7.91,11.58-11.85l.68-.69c.38,.34,1.32,1.12,2.69,1.21,.42,.03,.78-.03,1.08-.09,.11,6.29,.21,12.57,.34,18.85Z"/>
  <path class="cls-1" d="M100.25,90.13c-.5,.03-1.73,.15-2.75,1.06-.3,.28-.54,.57-.71,.83-4.54-4.35-9.08-8.7-13.61-13.05-.01-.04-.03-.19-.01-.39,.28-4.49,15.17-7.69,15.17-7.69,.14-.01,.26-.01,.37,.01,.93,.21,1.24,1.59,1.26,1.7,.09,5.51,.18,11.04,.26,16.56v.97Z"/>
  <path class="cls-1" d="M120.2,79.26c-3.96,3.85-7.92,7.69-11.88,11.54l-.71,.68c-.37-.35-1.29-1.16-2.66-1.29-.4-.04-.78,0-1.08,.05,.06-6.28,.13-12.57,.18-18.85,.04-.03,.14-.15,.29-.28,3.47-2.86,16,5.79,16,5.79,.1,.09,.18,.19,.24,.28,.48,.82-.32,1.99-.38,2.08Z"/>
  <path class="cls-1" d="M121.01,123.52c-.44,4.48-15.44,7.16-15.44,7.16-.15,.01-.26,0-.37-.04-.92-.23-1.19-1.63-1.21-1.73,.11-5.52,.21-11.05,.32-16.57l.03-.96c.5-.01,1.73-.1,2.79-.97,.32-.26,.55-.55,.73-.79,4.39,4.49,8.76,9,13.15,13.51,0,.04,.01,.19,0,.39Z"/>
  <path class="cls-1" d="M132.25,97.52c.01,.14-.01,.26-.03,.37-.24,.92-1.64,1.2-1.74,1.21-5.52-.08-11.04-.16-16.56-.24l-.97-.03c-.01-.5-.1-1.73-.98-2.77-.26-.33-.54-.57-.79-.74,4.48-4.4,8.97-8.79,13.44-13.19,.05,0,.2-.03,.4,0,4.49,.42,7.23,15.4,7.23,15.4Z"/>
  <path class="cls-1" d="M126.03,119.68c-.1,.11-.2,.19-.29,.24-.83,.47-1.99-.35-2.07-.42-3.77-4.04-7.53-8.07-11.3-12.12l-.66-.72c.35-.35,1.17-1.26,1.32-2.62,.05-.42,.03-.78-.03-1.08,6.28,.19,12.56,.38,18.85,.57,.03,.03,.14,.13,.26,.28,2.8,3.53-6.1,15.88-6.1,15.88Z"/>
  <path class="cls-1" d="M91.43,99.05c-6.28,.03-12.57,.04-18.84,.06-.04-.03-.16-.13-.29-.26-2.91-3.44,5.57-16.08,5.57-16.08,.09-.11,.19-.19,.28-.24,.82-.5,2.01,.28,2.08,.34l11.69,11.73,.68,.69c-.34,.37-1.12,1.31-1.22,2.67-.04,.42,0,.78,.05,1.08Z"/>
  <path class="cls-1" d="M92.76,106.69c-4.12,4.74-8.25,9.48-12.36,14.23-.05,.01-.2,.04-.39,.04-4.51-.06-8.44-14.78-8.44-14.78-.03-.14-.03-.26,0-.38,.16-.93,1.53-1.31,1.64-1.34,5.5-.37,11.01-.72,16.52-1.07l.97-.06c.05,.5,.24,1.72,1.2,2.7,.29,.29,.59,.5,.86,.67Z"/>
  <path class="cls-1" d="M100.14,129.67s-.13,.16-.28,.29c-3.39,2.96-16.14-5.35-16.14-5.35-.13-.09-.2-.19-.25-.28-.52-.81,.25-2.01,.3-2.09,3.86-3.95,7.72-7.91,11.58-11.85l.68-.69c.38,.34,1.32,1.12,2.69,1.21,.42,.03,.78-.03,1.08-.09,.11,6.29,.21,12.57,.34,18.85Z"/>
  <path class="cls-1" d="M100.25,90.13c-.5,.03-1.73,.15-2.75,1.06-.3,.28-.54,.57-.71,.83-4.54-4.35-9.08-8.7-13.61-13.05-.01-.04-.03-.19-.01-.39,.28-4.49,15.17-7.69,15.17-7.69,.14-.01,.26-.01,.37,.01,.93,.21,1.24,1.59,1.26,1.7,.09,5.51,.18,11.04,.26,16.56v.97Z"/>
  <path class="cls-1" d="M120.2,79.26c-3.96,3.85-7.92,7.69-11.88,11.54l-.71,.68c-.37-.35-1.29-1.16-2.66-1.29-.4-.04-.78,0-1.08,.05,.06-6.28,.13-12.57,.18-18.85,.04-.03,.14-.15,.29-.28,3.47-2.86,16,5.79,16,5.79,.1,.09,.18,.19,.24,.28,.48,.82-.32,1.99-.38,2.08Z"/>
  <path class="cls-1" d="M121.01,123.52c-.44,4.48-15.44,7.16-15.44,7.16-.15,.01-.26,0-.37-.04-.92-.23-1.19-1.63-1.21-1.73,.11-5.52,.21-11.05,.32-16.57l.03-.96c.5-.01,1.73-.1,2.79-.97,.32-.26,.55-.55,.73-.79,4.39,4.49,8.76,9,13.15,13.51,0,.04,.01,.19,0,.39Z"/>
  <path class="cls-1" d="M132.25,97.52c.01,.14-.01,.26-.03,.37-.24,.92-1.64,1.2-1.74,1.21-5.52-.08-11.04-.16-16.56-.24l-.97-.03c-.01-.5-.1-1.73-.98-2.77-.26-.33-.54-.57-.79-.74,4.48-4.4,8.97-8.79,13.44-13.19,.05,0,.2-.03,.4,0,4.49,.42,7.23,15.4,7.23,15.4Z"/>
  <path class="cls-1" d="M126.03,119.68c-.1,.11-.2,.19-.29,.24-.83,.47-1.99-.35-2.07-.42-3.77-4.04-7.53-8.07-11.3-12.12l-.66-.72c.35-.35,1.17-1.26,1.32-2.62,.05-.42,.03-.78-.03-1.08,6.28,.19,12.56,.38,18.85,.57,.03,.03,.14,.13,.26,.28,2.8,3.53-6.1,15.88-6.1,15.88Z"/>
  <path class="cls-4" d="M135.83,76.78c-8.58-12.09-22.68-17.74-35.11-17.15-8.34,.4-14.5,3.54-16.89,4.79-2.93,1.53-11.24,6.02-16.89,15.95-1.03,1.82-4.97,9.06-5.2,19.28-.3,13.46,5.99,22.83,7.31,24.74,2.61,3.75,8.99,11.56,20.22,15.29,16.43,5.46,30.42-2.12,32.99-3.58,2.65-1.51,16.24-9.62,20.08-26.88,.52-2.27,3.73-18-6.52-32.45Zm-57.95,5.99c.09-.11,.19-.19,.28-.24,.82-.5,2.01,.28,2.08,.34l11.69,11.73,.68,.69c-.34,.37-1.12,1.31-1.22,2.67-.04,.42,0,.78,.05,1.08-6.28,.03-12.57,.04-18.84,.06-.04-.03-.16-.13-.29-.26-2.91-3.44,5.57-16.08,5.57-16.08Zm15.88,17.32c.71,0,1.29,.58,1.29,1.29s-.58,1.29-1.29,1.29-1.29-.58-1.29-1.29,.58-1.29,1.29-1.29Zm-13.75,20.87c-4.51-.06-8.44-14.78-8.44-14.78-.03-.14-.03-.26,0-.38,.16-.93,1.53-1.31,1.64-1.34,5.5-.37,11.01-.72,16.52-1.07l.97-.06c.05,.5,.24,1.72,1.2,2.7,.29,.29,.59,.5,.86,.67-4.12,4.74-8.25,9.48-12.36,14.23-.05,.01-.2,.04-.39,.04Zm19.85,9c-3.39,2.96-16.14-5.35-16.14-5.35-.13-.09-.2-.19-.25-.28-.52-.81,.25-2.01,.3-2.09,3.86-3.95,7.72-7.91,11.58-11.85l.68-.69c.38,.34,1.32,1.12,2.69,1.21,.42,.03,.78-.03,1.08-.09,.11,6.29,.21,12.57,.34,18.85-.04,.04-.13,.16-.28,.29Zm-3.39-24.3c.71,0,1.29,.57,1.29,1.27s-.58,1.29-1.29,1.29-1.29-.57-1.29-1.29,.58-1.27,1.29-1.27Zm-1.29-9.93c0-.71,.58-1.27,1.29-1.27s1.29,.57,1.29,1.27-.58,1.29-1.29,1.29-1.29-.57-1.29-1.29Zm2.32-4.54c-.3,.28-.54,.57-.71,.83-4.54-4.35-9.08-8.7-13.61-13.05-.01-.04-.03-.19-.01-.39,.28-4.49,15.17-7.69,15.17-7.69,.14-.01,.26-.01,.37,.01,.93,.21,1.24,1.59,1.26,1.7,.09,5.51,.18,11.04,.26,16.56v.97c-.49,.03-1.72,.15-2.74,1.06Zm27.52-9.07c4.49,.42,7.23,15.4,7.23,15.4,.01,.14-.01,.26-.03,.37-.24,.92-1.64,1.2-1.74,1.21-5.52-.08-11.04-.16-16.56-.24l-.97-.03c-.01-.5-.1-1.73-.98-2.77-.26-.33-.54-.57-.79-.74,4.48-4.4,8.97-8.79,13.44-13.19,.05,0,.2-.03,.4,0Zm-17.04,14.39c-.71,0-1.29-.57-1.29-1.29s.58-1.27,1.29-1.27,1.29,.57,1.29,1.27-.58,1.29-1.29,1.29Zm1.29,10.61c0,.71-.58,1.27-1.29,1.27s-1.29-.57-1.29-1.27,.58-1.29,1.29-1.29,1.29,.57,1.29,1.29Zm1.27-7.04c.72,0,1.29,.58,1.29,1.29s-.57,1.29-1.29,1.29-1.27-.58-1.27-1.29,.57-1.29,1.27-1.29Zm-8.31-7.97c.71,0,1.27,.58,1.27,1.29s-.57,1.29-1.27,1.29-1.29-.58-1.29-1.29,.57-1.29,1.29-1.29Zm.04,18.16c-.71,0-1.29-.58-1.29-1.29s.58-1.29,1.29-1.29,1.29,.58,1.29,1.29-.58,1.29-1.29,1.29Zm1.78-38.88s.14-.15,.29-.28c3.47-2.86,16,5.79,16,5.79,.1,.09,.18,.19,.24,.28,.48,.82-.32,1.99-.38,2.08-3.96,3.85-7.92,7.69-11.88,11.54l-.71,.68c-.37-.35-1.29-1.16-2.66-1.29-.4-.04-.78,0-1.08,.05,.06-6.28,.13-12.57,.18-18.85Zm16.96,52.12c-.44,4.48-15.44,7.16-15.44,7.16-.15,.01-.26,0-.37-.04-.92-.23-1.19-1.63-1.21-1.73,.11-5.52,.21-11.05,.32-16.57l.03-.96c.5-.01,1.73-.1,2.79-.97,.32-.26,.55-.55,.73-.79,4.39,4.49,8.76,9,13.15,13.51,0,.04,.01,.19,0,.39Zm5.02-3.83c-.1,.11-.2,.19-.29,.24-.83,.47-1.99-.35-2.07-.42-3.77-4.04-7.53-8.07-11.3-12.12l-.66-.72c.35-.35,1.17-1.26,1.32-2.62,.05-.42,.03-.78-.03-1.08,6.28,.19,12.56,.38,18.85,.57,.03,.03,.14,.13,.26,.28,2.8,3.53-6.1,15.88-6.1,15.88Z"/>
  <path class="cls-1" d="M91.43,99.05c-6.28,.03-12.57,.04-18.84,.06-.04-.03-.16-.13-.29-.26-2.91-3.44,5.57-16.08,5.57-16.08,.09-.11,.19-.19,.28-.24,.82-.5,2.01,.28,2.08,.34l11.69,11.73,.68,.69c-.34,.37-1.12,1.31-1.22,2.67-.04,.42,0,.78,.05,1.08Z"/>
  <path class="cls-1" d="M92.76,106.69c-4.12,4.74-8.25,9.48-12.36,14.23-.05,.01-.2,.04-.39,.04-4.51-.06-8.44-14.78-8.44-14.78-.03-.14-.03-.26,0-.38,.16-.93,1.53-1.31,1.64-1.34,5.5-.37,11.01-.72,16.52-1.07l.97-.06c.05,.5,.24,1.72,1.2,2.7,.29,.29,.59,.5,.86,.67Z"/>
  <path class="cls-1" d="M100.14,129.67s-.13,.16-.28,.29c-3.39,2.96-16.14-5.35-16.14-5.35-.13-.09-.2-.19-.25-.28-.52-.81,.25-2.01,.3-2.09,3.86-3.95,7.72-7.91,11.58-11.85l.68-.69c.38,.34,1.32,1.12,2.69,1.21,.42,.03,.78-.03,1.08-.09,.11,6.29,.21,12.57,.34,18.85Z"/>
  <path class="cls-1" d="M100.25,90.13c-.5,.03-1.73,.15-2.75,1.06-.3,.28-.54,.57-.71,.83-4.54-4.35-9.08-8.7-13.61-13.05-.01-.04-.03-.19-.01-.39,.28-4.49,15.17-7.69,15.17-7.69,.14-.01,.26-.01,.37,.01,.93,.21,1.24,1.59,1.26,1.7,.09,5.51,.18,11.04,.26,16.56v.97Z"/>
  <path class="cls-1" d="M120.2,79.26c-3.96,3.85-7.92,7.69-11.88,11.54l-.71,.68c-.37-.35-1.29-1.16-2.66-1.29-.4-.04-.78,0-1.08,.05,.06-6.28,.13-12.57,.18-18.85,.04-.03,.14-.15,.29-.28,3.47-2.86,16,5.79,16,5.79,.1,.09,.18,.19,.24,.28,.48,.82-.32,1.99-.38,2.08Z"/>
  <path class="cls-1" d="M121.01,123.52c-.44,4.48-15.44,7.16-15.44,7.16-.15,.01-.26,0-.37-.04-.92-.23-1.19-1.63-1.21-1.73,.11-5.52,.21-11.05,.32-16.57l.03-.96c.5-.01,1.73-.1,2.79-.97,.32-.26,.55-.55,.73-.79,4.39,4.49,8.76,9,13.15,13.51,0,.04,.01,.19,0,.39Z"/>
  <path class="cls-1" d="M132.25,97.52c.01,.14-.01,.26-.03,.37-.24,.92-1.64,1.2-1.74,1.21-5.52-.08-11.04-.16-16.56-.24l-.97-.03c-.01-.5-.1-1.73-.98-2.77-.26-.33-.54-.57-.79-.74,4.48-4.4,8.97-8.79,13.44-13.19,.05,0,.2-.03,.4,0,4.49,.42,7.23,15.4,7.23,15.4Z"/>
  <path class="cls-1" d="M126.03,119.68c-.1,.11-.2,.19-.29,.24-.83,.47-1.99-.35-2.07-.42-3.77-4.04-7.53-8.07-11.3-12.12l-.66-.72c.35-.35,1.17-1.26,1.32-2.62,.05-.42,.03-.78-.03-1.08,6.28,.19,12.56,.38,18.85,.57,.03,.03,.14,.13,.26,.28,2.8,3.53-6.1,15.88-6.1,15.88Z"/>
  <path class="cls-1" d="M91.43,99.05c-6.28,.03-12.57,.04-18.84,.06-.04-.03-.16-.13-.29-.26-2.91-3.44,5.57-16.08,5.57-16.08,.09-.11,.19-.19,.28-.24,.82-.5,2.01,.28,2.08,.34l11.69,11.73,.68,.69c-.34,.37-1.12,1.31-1.22,2.67-.04,.42,0,.78,.05,1.08Z"/>
  <path class="cls-1" d="M100.25,90.13c-.5,.03-1.73,.15-2.75,1.06-.3,.28-.54,.57-.71,.83-4.54-4.35-9.08-8.7-13.61-13.05-.01-.04-.03-.19-.01-.39,.28-4.49,15.17-7.69,15.17-7.69,.14-.01,.26-.01,.37,.01,.93,.21,1.24,1.59,1.26,1.7,.09,5.51,.18,11.04,.26,16.56v.97Z"/>
  <path class="cls-1" d="M120.2,79.26c-3.96,3.85-7.92,7.69-11.88,11.54l-.71,.68c-.37-.35-1.29-1.16-2.66-1.29-.4-.04-.78,0-1.08,.05,.06-6.28,.13-12.57,.18-18.85,.04-.03,.14-.15,.29-.28,3.47-2.86,16,5.79,16,5.79,.1,.09,.18,.19,.24,.28,.48,.82-.32,1.99-.38,2.08Z"/>
  <path class="cls-1" d="M132.25,97.52c.01,.14-.01,.26-.03,.37-.24,.92-1.64,1.2-1.74,1.21-5.52-.08-11.04-.16-16.56-.24l-.97-.03c-.01-.5-.1-1.73-.98-2.77-.26-.33-.54-.57-.79-.74,4.48-4.4,8.97-8.79,13.44-13.19,.05,0,.2-.03,.4,0,4.49,.42,7.23,15.4,7.23,15.4Z"/>
  <path class="cls-1" d="M126.03,119.68c-.1,.11-.2,.19-.29,.24-.83,.47-1.99-.35-2.07-.42-3.77-4.04-7.53-8.07-11.3-12.12l-.66-.72c.35-.35,1.17-1.26,1.32-2.62,.05-.42,.03-.78-.03-1.08,6.28,.19,12.56,.38,18.85,.57,.03,.03,.14,.13,.26,.28,2.8,3.53-6.1,15.88-6.1,15.88Z"/>
  <path class="cls-1" d="M121.01,123.52c-.44,4.48-15.44,7.16-15.44,7.16-.15,.01-.26,0-.37-.04-.92-.23-1.19-1.63-1.21-1.73,.11-5.52,.21-11.05,.32-16.57l.03-.96c.5-.01,1.73-.1,2.79-.97,.32-.26,.55-.55,.73-.79,4.39,4.49,8.76,9,13.15,13.51,0,.04,.01,.19,0,.39Z"/>
  <path class="cls-1" d="M100.14,129.67s-.13,.16-.28,.29c-3.39,2.96-16.14-5.35-16.14-5.35-.13-.09-.2-.19-.25-.28-.52-.81,.25-2.01,.3-2.09,3.86-3.95,7.72-7.91,11.58-11.85l.68-.69c.38,.34,1.32,1.12,2.69,1.21,.42,.03,.78-.03,1.08-.09,.11,6.29,.21,12.57,.34,18.85Z"/>
  <path class="cls-1" d="M92.76,106.69c-4.12,4.74-8.25,9.48-12.36,14.23-.05,.01-.2,.04-.39,.04-4.51-.06-8.44-14.78-8.44-14.78-.03-.14-.03-.26,0-.38,.16-.93,1.53-1.31,1.64-1.34,5.5-.37,11.01-.72,16.52-1.07l.97-.06c.05,.5,.24,1.72,1.2,2.7,.29,.29,.59,.5,.86,.67Z"/>
  <path class="cls-2" d="M97.75,95.73c0,.72-.58,1.29-1.29,1.29s-1.29-.57-1.29-1.29,.58-1.27,1.29-1.27,1.29,.57,1.29,1.27Z"/>
  <path class="cls-2" d="M103.5,93.4c0,.71-.57,1.29-1.27,1.29s-1.29-.58-1.29-1.29,.57-1.29,1.29-1.29,1.27,.58,1.27,1.29Z"/>
  <path class="cls-2" d="M109.27,95.23c0,.72-.58,1.29-1.29,1.29s-1.29-.57-1.29-1.29,.58-1.27,1.29-1.27,1.29,.57,1.29,1.27Z"/>
  <path class="cls-2" d="M111.83,101.37c0,.71-.57,1.29-1.29,1.29s-1.27-.58-1.27-1.29,.57-1.29,1.27-1.29,1.29,.58,1.29,1.29Z"/>
  <path class="cls-2" d="M109.27,107.12c0,.71-.58,1.27-1.29,1.27s-1.29-.57-1.29-1.27,.58-1.29,1.29-1.29,1.29,.57,1.29,1.29Z"/>
  <path class="cls-2" d="M103.55,108.99c0,.71-.58,1.29-1.29,1.29s-1.29-.58-1.29-1.29,.58-1.29,1.29-1.29,1.29,.58,1.29,1.29Z"/>
  <path class="cls-2" d="M97.75,106.93c0,.72-.58,1.29-1.29,1.29s-1.29-.57-1.29-1.29,.58-1.27,1.29-1.27,1.29,.57,1.29,1.27Z"/>
  <path class="cls-2" d="M95.04,101.37c0,.71-.58,1.29-1.29,1.29s-1.29-.58-1.29-1.29,.58-1.29,1.29-1.29,1.29,.58,1.29,1.29Z"/>
  <text class="cls-5" transform="translate(59.97 184.65)"><tspan x="0" y="0">Neumáticos</tspan></text>
</svg>