<?xml version="1.0" encoding="UTF-8"?>
<svg id="Capa_2" data-name="Capa 2" xmlns="http://www.w3.org/2000/svg" viewBox="0 0 217.42 217.36">
  <defs>
    <style>
      .cls-1 {
        fill: #24215b;
      }

      .cls-2 {
        fill: #283b54;
      }

      .cls-3 {
        fill: #3b538b;
      }

      .cls-4 {
        fill: #211915;
        font-family: MontserratRoman-ExtraLight, Montserrat;
        font-size: 12px;
        font-variation-settings: 'wght' 200;
      }
    </style>
  </defs>
  <path class="cls-2" d="M94.1,60.45c-.12-.17,.05-.58,.39-1.4,.35-.85,.7-1.44,.72-1.48,.52-.89,.6-1.24,1.4-3.03,.82-1.81,1.74-3.67,2.39-4.9,.89-1.69,1.86-3.53,3.4-5.77,1.56-2.25,2.69-3.44,3.43-4.15,.81-.77,1.39-1.19,2.56-2.02,.62-.44,1.15-.78,1.91-.98,.34-.09,.68-.11,1.35-.16,.16-.01,.39-.03,.67,.04,.22,.06,.38,.14,.39,.15,.63,.36-2.95,15.72-13.31,21.75-1.68,.98-4.92,2.51-5.31,1.96Z"/>
  <path class="cls-2" d="M63.37,122.6c-.06-.18-.11-.44-.11-.51v-.64l.93-2.71,6.1-.88,38.69,21.18,7.92-2.71,17.16-24.01,13.18-26.13,3.61-1.9,.17-.11,.14-.12s.02-.01,.02-.02c-.02,.03-.04,.07-.07,.12-.04,.07-.07,.12-.1,.16-.05,.08-.1,.17-.15,.25-.24,.4-.57,1-.57,1-.18,.33-.4,.72-.68,1.24-.18,.34-.52,.99-.93,1.82-.07,.15-.34,.7-.68,1.43-.05,.1-.2,.43-.39,.86-.06,.14-.25,.56-.49,1.13-.07,.16-.36,.84-.74,1.78-.24,.6-.42,1.05-.55,1.38-.3,.77-.52,1.35-.7,1.84-.25,.67-.43,1.15-.65,1.77-.29,.79-.35,.96-.88,2.42-.4,1.09-.6,1.64-.78,2.14,0,0-.43,1.16-.83,2.21-.42,1.11-2.22,5.64-4.16,9.67-4.42,9.17-10.34,17.47-10.34,17.47-4.12,5.76-8.38,10.65-12.45,14.74-2.2-.63-5.39-1.64-9.09-3.21-3.47-1.48-5.92-2.83-12.14-6.45-15.06-8.78-14.05-8.64-15.71-9.11-4.56-1.29-8.65-3.98-13.22-5.25-.22-.06-1.26-.2-1.5-.87Z"/>
  <path class="cls-2" d="M133.32,82.22c.44-.17,.49-.48,1.95-2.69,.68-1.03,1.25-1.83,2.39-3.44,.9-1.27,1.67-2.35,2.76-3.72,.6-.75,1.18-1.48,2.03-2.41,.7-.77,1.53-1.66,2.73-2.68,1.43-1.21,2.58-1.93,2.84-2.09,.6-.37,1.15-.71,1.94-1.04,1.65-.69,1.92-.35,2.66-.83,1.82-1.2,1.56-4.21,1.4-4.97-.06-.29-.18-.88-.67-1.17-.14-.08-.25-.11-.37-.14-.64-.15-1.03-.24-1.73-.25-1.19-.01-2.21,.26-2.41,.31-1.92,.5-3.35,1.31-3.76,1.55-1.33,.78-3.07,2-5.43,4.38-1.54,1.55-2.98,3.33-5.85,6.89-1.32,1.64-1.7,2.15-2.68,3.27-1.64,1.89-3.1,3.34-4.09,4.28,3.95,5,5.6,5.01,6.27,4.75Z"/>
  <path class="cls-3" d="M102.72,65.61c-.21-.38,4.97-5.47,7.71-8.7,1.92-2.27,3.15-4.23,3.93-5.48,1.07-1.72,2.5-4.06,3.71-7.37,.86-2.35,1.33-4.41,1.6-5.92-.1,.06-.26,.13-.46,.17-.29,.06-.53,.02-.68,0-1.12-.18-1.24-.22-1.24-.22-2.27-.64-3.39-1-3.39-1-.35-.11-.83-.27-1.39-.46-.27,.67-.69,1.63-1.31,2.74-1.05,1.9-2.11,3.21-2.95,4.23-2.01,2.43-3.29,3.74-6.29,7.01-3.1,3.38-3.89,4.32-4.24,4.74-.53,.64-1.94,2.37-3.66,4.76-1.3,1.81-2.38,3.45-3.51,5.26-2.1,3.35-3.8,6.36-6.25,10.84-3.2,5.88-5.53,10.38-5.95,11.18-3.3,6.38-5.04,9.73-6.87,13.64-2.14,4.56-4.94,11.01-7.76,19.12,.55-.26,1.51-.65,2.74-.76,1.68-.15,2.99,.29,3.71,.55,2.38,.85,8.12,3.13,15.66,6.42,3.4,2.02,6.86,4.14,10.37,6.38,4.41,2.81,8.63,5.63,12.66,8.42,1.66-.38,4.08-1.13,6.6-2.76,1.38-.89,2.72-1.99,5.84-5.53,2.76-3.13,4.69-5.33,6.94-8.65,1.48-2.19,2.01-3.26,6.54-12.18,2.72-5.36,5.97-10.48,8.22-16.06,.5-1.24,1.45-3.68,3.44-6.49,1.6-2.25,3.23-3.85,4.35-4.85,.72-1.16,1.77-2.85,3.02-4.9,4.63-7.58,5.55-9.42,6.33-11.42,.58-1.49,1.36-3.77,1.91-6.71-.93-.74-2.06-1.54-3.4-2.29-1.88-1.06-3.64-1.73-5.09-2.17-.35,1.15-.82,2.59-1.44,4.23-.57,1.5-1.63,4.12-3.27,7.25-2.3,4.4-4.6,7.57-5.71,9.05-1.56,2.07-3.58,4.49-6.14,7.03-1.05-1.19-2.62-2.82-4.73-4.51-.69-.55-3.35-2.62-9.46-5.52-3.85-1.83-5.78-2.42-12.58-5.31,0,0-4.53-1.92-5.91-2.86-.24-.16-.62-.52-1.01-.57-.07,0-.29-.02-.46-.19,0,0-.07-.07-.11-.15Z"/>
  <line class="cls-1" x1="63.97" y1="118.82" x2="87.83" y2="130.95"/>
  <text class="cls-4" transform="translate(75.9 184.65)"><tspan x="0" y="0">Textiles</tspan></text>
</svg>