<?xml version="1.0" encoding="UTF-8"?>
<svg id="Capa_2" data-name="Capa 2" xmlns="http://www.w3.org/2000/svg" viewBox="0 0 222.46 217.36">
  <defs>
    <style>
      .cls-1 {
        fill: #9f9f9f;
      }

      .cls-2 {
        fill: #3c538e;
      }

      .cls-3 {
        fill: #211915;
        font-family: MontserratRoman-ExtraLight, Montserrat;
        font-size: 12px;
        font-variation-settings: 'wght' 200;
      }
    </style>
  </defs>
  <path class="cls-2" d="M88.25,53.26c.89-1.96,2.38-3.12,2.38-3.12s1.44-1.12,3.52-1.51c3.11-.59,30.03-.67,66.65-.21,.07,11.72,.14,23.45,.21,35.17-17.34,.07-34.68,.14-52.01,.21-.24-.02-.57-.03-.95,.06-1.46,.34-1.93,1.7-2.42,1.96-2.81,1.51-20.18-26.37-17.37-32.56Z"/>
  <path class="cls-2" d="M62.83,148.98c-.18-7.15-.31-14.38-.38-21.67-.17-16.33-.08-32.32,.26-47.96,.02-.13,.05-.26,.07-.39,.15-.82,.25-1.62,.33-2.39l2.11,2.59h0s.08,.06,.12,.09c8.53,6.22,19.28,10.82,32.91,12.72-.05,19.75-.11,39.5-.16,59.25"/>
  <rect class="cls-1" x="58.26" y="146.83" width="43.13" height="11.88" rx="2.04" ry="2.04"/>
  <path class="cls-1" d="M63.56,79.05c-.85-1.76-1.24-3.58-1.24-3.58s-.39-1.85-.32-3.76c.2-5.35,5.2-10.87,6.2-11.98,2.55-2.82,4.87-4.37,7.66-6.24,5.65-3.78,8.51-4.12,9.45-4.18,2.94-.18,5.32,.83,5.32,.83s.26,.11,.5,.23c4.37,2.13,15.25,32.77,15.28,32.9h0s.11,.35,.11,.36c.09,.3,.13,3.89-.91,5.74-1.43,2.53-5.69,3.14-10.07,3.16-18.04,.06-30.3-9.99-31.99-13.47Z"/>
  <rect class="cls-1" x="145.02" y="59.65" width="43.13" height="11.88" rx="2.04" ry="2.04" transform="translate(100.99 232.17) rotate(-90)"/>
  <text class="cls-3" transform="translate(57.23 184.65)"><tspan x="0" y="0">Construcción</tspan></text>
</svg>