<?xml version="1.0" encoding="UTF-8"?>
<svg id="Capa_1" data-name="Capa 1" xmlns="http://www.w3.org/2000/svg" viewBox="0 0 2394.49 359.14">
  <defs>
    <style>
      .cls-1 {
        stroke: #80afc1;
        stroke-width: 1.64px;
      }

      .cls-1, .cls-2 {
        fill: none;
        stroke-miterlimit: 10;
      }

      .cls-3 {
        fill: #1d1d1b;
        font-family: Montserrat-Regular, Montserrat;
        font-size: 36px;
      }

      .cls-2 {
        stroke: #999;
        stroke-width: 2.07px;
      }
    </style>
  </defs>
  <path class="cls-1" d="m805.19,190.63l40.5-12.99c10.71-3.43,22.31-2.85,32.62,1.63l10.44,4.54c10.11,4.4,21.45,5.05,31.99,1.83l30.16-9.2c8.84-2.7,18.27-2.69,27.1.02l30.91,9.49c9.87,3.03,20.46,2.67,30.11-1.01l22.64-8.64c10.51-4.01,22.12-4.06,32.66-.14l38.87,14.46"/>
  <path class="cls-2" d="m1212.87,192.66l40.5-12.99c10.71-3.44,22.3-2.85,32.62,1.63l10.45,4.55c10.11,4.4,21.45,5.05,31.99,1.83l11.31-3.45"/>
  <path class="cls-2" d="m1340.44,184.01l-.7.21-11.3,3.48c-10.56,3.19-21.9,2.57-32-1.86l-10.43-4.51c-2.94-1.28-6-2.24-9.11-2.9-7.78-1.61-15.9-1.2-23.51,1.24l-40.53,13"/>
  <path class="cls-2" d="m1212.87,192.67l40.5-12.99c10.71-3.43,22.31-2.85,32.62,1.63l10.44,4.54c10.11,4.4,21.45,5.05,31.99,1.83l30.16-9.2c8.84-2.7,18.27-2.69,27.1.02l30.91,9.49c9.87,3.03,20.46,2.67,30.11-1.01l22.64-8.64c10.51-4.01,22.12-4.06,32.66-.14l38.87,14.46"/>
  <text class="cls-3" transform="translate(948.66 235.21)"><tspan x="0" y="0">SI </tspan></text>
  <text class="cls-3" transform="translate(1346.3 235.43)"><tspan x="0" y="0">NO </tspan></text>
</svg>